%FSLAX25Y25*%
%MOIN*%
G70*
G01*
G75*
G04 Layer_Color=32896*
%ADD10C,0.01000*%
%ADD11R,0.07000X0.05000*%
%ADD12R,0.05000X0.07000*%
%ADD13O,0.06500X0.04500*%
%ADD14O,0.07500X0.06250*%
%ADD15O,0.06500X0.05000*%
%ADD16C,0.07500*%
%ADD17R,0.04500X0.07000*%
%ADD18R,0.02362X0.08465*%
%ADD19R,0.06500X0.05000*%
%ADD20C,0.02000*%
%ADD21C,0.01500*%
%ADD22C,0.04000*%
%ADD23O,0.06500X0.05500*%
%ADD24C,0.05500*%
%ADD25C,0.06500*%
%ADD26O,0.08500X0.07500*%
%ADD27O,0.13000X0.15000*%
%ADD28O,0.10000X0.07000*%
%ADD29O,0.09500X0.06000*%
%ADD30R,0.14000X0.07500*%
%ADD31R,0.13000X0.07500*%
%ADD32C,0.03500*%
%ADD33R,0.09449X0.10236*%
%ADD34R,0.05000X0.07500*%
%ADD35R,0.03937X0.03347*%
%ADD36R,0.03937X0.03347*%
%ADD37R,0.07000X0.06000*%
%ADD38R,0.10000X0.07500*%
%ADD39R,0.06000X0.05000*%
%ADD40R,0.03347X0.03937*%
%ADD41R,0.03347X0.03937*%
%ADD42C,0.00787*%
%ADD43C,0.00984*%
%ADD44C,0.00800*%
D42*
X685945Y436594D02*
X704055D01*
X703858Y427539D02*
X704055D01*
X685945D02*
X686142D01*
X704055D02*
Y457461D01*
X685945Y427539D02*
Y457461D01*
X686142D01*
X703858D02*
X704055D01*
X725000Y410000D02*
X732000D01*
X738000D02*
X745000D01*
X725000Y420000D02*
X732000D01*
X738000D02*
X745000D01*
X725000Y410000D02*
Y420000D01*
X745000Y410000D02*
Y420000D01*
X735000Y410000D02*
Y421250D01*
X690000Y410000D02*
Y421250D01*
X695000Y426250D02*
X730000D01*
X690000Y421250D02*
X695000Y426250D01*
X730000D02*
X735000Y421250D01*
X655000Y468750D02*
Y478750D01*
X637000Y468750D02*
X655000D01*
X637000Y478750D02*
X655000D01*
X660069Y462480D02*
X665974D01*
X660069Y472520D02*
X665974D01*
Y462480D02*
Y464252D01*
Y470748D02*
Y472520D01*
X748750Y460000D02*
X758750D01*
X748750Y480000D02*
X758750D01*
Y460000D02*
Y467000D01*
Y473000D02*
Y480000D01*
X748750Y460000D02*
Y467000D01*
Y473000D02*
Y480000D01*
X661250Y411250D02*
Y418250D01*
Y424250D02*
Y431250D01*
X651250Y411250D02*
Y418250D01*
Y424250D02*
Y431250D01*
Y411250D02*
X661250D01*
X651250Y431250D02*
X661250D01*
X660000Y443750D02*
X670000D01*
X660000Y463750D02*
X670000D01*
Y443750D02*
Y450750D01*
Y456750D02*
Y463750D01*
X660000Y443750D02*
Y450750D01*
Y456750D02*
Y463750D01*
X661250Y428750D02*
X671250D01*
X661250Y426250D02*
X671250D01*
X661250Y433750D02*
X671250D01*
Y426250D02*
Y430000D01*
Y433750D01*
X661250Y426250D02*
Y433750D01*
X705000Y458750D02*
X715000D01*
X705000Y478750D02*
X715000D01*
Y458750D02*
Y465750D01*
Y471750D02*
Y478750D01*
X705000Y458750D02*
Y465750D01*
Y471750D02*
Y478750D01*
X722569Y459980D02*
X728474D01*
X722569Y470020D02*
X728474D01*
Y459980D02*
Y461752D01*
Y468248D02*
Y470020D01*
X730000Y470000D02*
X737000D01*
X743000D02*
X750000D01*
X730000Y480000D02*
X737000D01*
X743000D02*
X750000D01*
X730000Y470000D02*
Y480000D01*
X750000Y470000D02*
Y480000D01*
X744724Y465748D02*
Y467520D01*
Y457480D02*
Y459252D01*
X738819Y467520D02*
X744724D01*
X738819Y457480D02*
X744724D01*
X706250Y450500D02*
Y457500D01*
Y437500D02*
Y444500D01*
X716250Y450500D02*
Y457500D01*
Y437500D02*
Y444500D01*
X706250Y457500D02*
X716250D01*
X706250Y437500D02*
X716250D01*
Y450500D02*
Y457500D01*
Y437500D02*
Y444500D01*
X726250Y450500D02*
Y457500D01*
Y437500D02*
Y444500D01*
X716250Y457500D02*
X726250D01*
X716250Y437500D02*
X726250D01*
X686250Y460000D02*
Y467000D01*
Y473000D02*
Y480000D01*
X676250Y460000D02*
Y467000D01*
Y473000D02*
Y480000D01*
Y460000D02*
X686250D01*
X676250Y480000D02*
X686250D01*
X738750Y430000D02*
X743750D01*
X738750Y427500D02*
X743750D01*
X738750Y435000D02*
X743750D01*
Y427500D02*
Y431250D01*
Y435000D01*
X738750Y427500D02*
Y435000D01*
X745748Y444026D02*
X747520D01*
X737480D02*
X739252D01*
X747520D02*
Y449931D01*
X737480Y444026D02*
Y449931D01*
X681250Y437500D02*
Y444500D01*
Y450500D02*
Y457500D01*
X671250Y437500D02*
Y444500D01*
Y450500D02*
Y457500D01*
Y437500D02*
X681250D01*
X671250Y457500D02*
X681250D01*
X683750Y417500D02*
Y424500D01*
Y430500D02*
Y437500D01*
X673750Y417500D02*
Y424500D01*
Y430500D02*
Y437500D01*
Y417500D02*
X683750D01*
X673750Y437500D02*
X683750D01*
X725000Y450500D02*
Y457500D01*
Y437500D02*
Y444500D01*
X735000Y450500D02*
Y457500D01*
Y437500D02*
Y444500D01*
X725000Y457500D02*
X735000D01*
X725000Y437500D02*
X735000D01*
X667500Y460000D02*
X677500D01*
X667500Y480000D02*
X677500D01*
Y460000D02*
Y467000D01*
Y473000D02*
Y480000D01*
X667500Y460000D02*
Y467000D01*
Y473000D02*
Y480000D01*
X716250Y418750D02*
Y425750D01*
Y431750D02*
Y438750D01*
X706250Y418750D02*
Y425750D01*
Y431750D02*
Y438750D01*
Y418750D02*
X716250D01*
X706250Y438750D02*
X716250D01*
X715000Y431750D02*
Y438750D01*
Y418750D02*
Y425750D01*
X725000Y431750D02*
Y438750D01*
Y418750D02*
Y425750D01*
X715000Y438750D02*
X725000D01*
X715000Y418750D02*
X725000D01*
X761250Y435000D02*
X771250D01*
X761250Y455000D02*
X771250D01*
Y435000D02*
Y442000D01*
Y448000D02*
Y455000D01*
X761250Y435000D02*
Y442000D01*
Y448000D02*
Y455000D01*
X689980Y473474D02*
X691752D01*
X698248D02*
X700020D01*
X689980Y467569D02*
Y473474D01*
X700020Y467569D02*
Y473474D01*
D43*
X704547Y424980D02*
G03*
X704547Y424980I-492J0D01*
G01*
D44*
X695501Y447499D02*
X696000Y447999D01*
X697000D01*
X697500Y447499D01*
Y445500D01*
X697000Y445000D01*
X696000D01*
X695501Y445500D01*
X692502Y447999D02*
X694501D01*
Y446499D01*
X693501Y446999D01*
X693002D01*
X692502Y446499D01*
Y445500D01*
X693002Y445000D01*
X694001D01*
X694501Y445500D01*
X715000Y446000D02*
Y448999D01*
X713500D01*
X713001Y448499D01*
Y447500D01*
X713500Y447000D01*
X715000D01*
X714000D02*
X713001Y446000D01*
X712001D02*
X711001D01*
X711501D01*
Y448999D01*
X712001Y448499D01*
X709502Y448999D02*
X707502D01*
Y448499D01*
X709502Y446500D01*
Y446000D01*
X716250Y414249D02*
X714251Y411250D01*
Y414249D02*
X716250Y411250D01*
X713251D02*
X712251D01*
X712751D01*
Y414249D01*
X713251Y413749D01*
X668201Y450599D02*
X669200D01*
X668701D01*
Y448100D01*
X669200Y447600D01*
X669700D01*
X670200Y448100D01*
X667201Y447600D02*
Y450599D01*
X665701D01*
X665202Y450099D01*
Y449099D01*
X665701Y448600D01*
X667201D01*
X664202Y450099D02*
X663702Y450599D01*
X662702D01*
X662203Y450099D01*
Y449599D01*
X662702Y449099D01*
X663202D01*
X662702D01*
X662203Y448600D01*
Y448100D01*
X662702Y447600D01*
X663702D01*
X664202Y448100D01*
X644251Y419249D02*
X645250D01*
X644750D01*
Y416750D01*
X645250Y416250D01*
X645750D01*
X646250Y416750D01*
X643251Y416250D02*
Y419249D01*
X641751D01*
X641252Y418749D01*
Y417750D01*
X641751Y417250D01*
X643251D01*
X638253Y416250D02*
X640252D01*
X638253Y418249D01*
Y418749D01*
X638752Y419249D01*
X639752D01*
X640252Y418749D01*
X743700Y473500D02*
Y476499D01*
X742201D01*
X741701Y475999D01*
Y475000D01*
X742201Y474500D01*
X743700D01*
X742700D02*
X741701Y473500D01*
X740701D02*
X739701D01*
X740201D01*
Y476499D01*
X740701Y475999D01*
X736202Y476499D02*
X737202Y475999D01*
X738202Y475000D01*
Y474000D01*
X737702Y473500D01*
X736702D01*
X736202Y474000D01*
Y474500D01*
X736702Y475000D01*
X738202D01*
X685000Y468500D02*
Y471499D01*
X683500D01*
X683001Y470999D01*
Y470000D01*
X683500Y469500D01*
X685000D01*
X684000D02*
X683001Y468500D01*
X682001D02*
X681001D01*
X681501D01*
Y471499D01*
X682001Y470999D01*
X677502Y471499D02*
X679502D01*
Y470000D01*
X678502Y470499D01*
X678002D01*
X677502Y470000D01*
Y469000D01*
X678002Y468500D01*
X679002D01*
X679502Y469000D01*
X682500Y426000D02*
Y428999D01*
X681001D01*
X680501Y428499D01*
Y427499D01*
X681001Y427000D01*
X682500D01*
X681500D02*
X680501Y426000D01*
X679501D02*
X678501D01*
X679001D01*
Y428999D01*
X679501Y428499D01*
X675502Y426000D02*
Y428999D01*
X677002Y427499D01*
X675002D01*
X713700Y467300D02*
Y470299D01*
X712200D01*
X711701Y469799D01*
Y468799D01*
X712200Y468300D01*
X713700D01*
X712700D02*
X711701Y467300D01*
X710701D02*
X709701D01*
X710201D01*
Y470299D01*
X710701Y469799D01*
X708202D02*
X707702Y470299D01*
X706702D01*
X706202Y469799D01*
Y469299D01*
X706702Y468799D01*
X707202D01*
X706702D01*
X706202Y468300D01*
Y467800D01*
X706702Y467300D01*
X707702D01*
X708202Y467800D01*
X680000Y446000D02*
Y448999D01*
X678501D01*
X678001Y448499D01*
Y447500D01*
X678501Y447000D01*
X680000D01*
X679000D02*
X678001Y446000D01*
X677001D02*
X676001D01*
X676501D01*
Y448999D01*
X677001Y448499D01*
X672502Y446000D02*
X674502D01*
X672502Y447999D01*
Y448499D01*
X673002Y448999D01*
X674002D01*
X674502Y448499D01*
X724500Y446000D02*
Y448999D01*
X723000D01*
X722501Y448499D01*
Y447500D01*
X723000Y447000D01*
X724500D01*
X723500D02*
X722501Y446000D01*
X721501D02*
X720501D01*
X721001D01*
Y448999D01*
X721501Y448499D01*
X719002Y446000D02*
X718002D01*
X718502D01*
Y448999D01*
X719002Y448499D01*
X733700Y446000D02*
Y448999D01*
X732200D01*
X731701Y448499D01*
Y447500D01*
X732200Y447000D01*
X733700D01*
X732700D02*
X731701Y446000D01*
X730701D02*
X729701D01*
X730201D01*
Y448999D01*
X730701Y448499D01*
X728202D02*
X727702Y448999D01*
X726702D01*
X726202Y448499D01*
Y446500D01*
X726702Y446000D01*
X727702D01*
X728202Y446500D01*
Y448499D01*
X675000Y468500D02*
Y471499D01*
X673500D01*
X673001Y470999D01*
Y470000D01*
X673500Y469500D01*
X675000D01*
X674000D02*
X673001Y468500D01*
X672001Y470999D02*
X671501Y471499D01*
X670502D01*
X670002Y470999D01*
Y470499D01*
X670502Y470000D01*
X670002Y469500D01*
Y469000D01*
X670502Y468500D01*
X671501D01*
X672001Y469000D01*
Y469500D01*
X671501Y470000D01*
X672001Y470499D01*
Y470999D01*
X671501Y470000D02*
X670502D01*
X768200Y443500D02*
Y446499D01*
X766701D01*
X766201Y445999D01*
Y445000D01*
X766701Y444500D01*
X768200D01*
X767200D02*
X766201Y443500D01*
X765201D02*
X764201D01*
X764701D01*
Y446499D01*
X765201Y445999D01*
X724201Y464000D02*
Y465999D01*
X724700Y466499D01*
X725700D01*
X726200Y465999D01*
Y464000D01*
X725700Y463500D01*
X724700D01*
X725200Y464500D02*
X724201Y463500D01*
X724700D02*
X724201Y464000D01*
X721701Y463500D02*
Y466499D01*
X723201Y464999D01*
X721202D01*
X695501Y467800D02*
Y469799D01*
X696000Y470299D01*
X697000D01*
X697500Y469799D01*
Y467800D01*
X697000Y467300D01*
X696000D01*
X696500Y468300D02*
X695501Y467300D01*
X696000D02*
X695501Y467800D01*
X694501Y469799D02*
X694001Y470299D01*
X693002D01*
X692502Y469799D01*
Y469299D01*
X693002Y468799D01*
X693501D01*
X693002D01*
X692502Y468300D01*
Y467800D01*
X693002Y467300D01*
X694001D01*
X694501Y467800D01*
X743001Y447800D02*
Y449799D01*
X743501Y450299D01*
X744500D01*
X745000Y449799D01*
Y447800D01*
X744500Y447300D01*
X743501D01*
X744000Y448300D02*
X743001Y447300D01*
X743501D02*
X743001Y447800D01*
X740002Y447300D02*
X742001D01*
X740002Y449299D01*
Y449799D01*
X740501Y450299D01*
X741501D01*
X742001Y449799D01*
X740001Y461500D02*
Y463499D01*
X740500Y463999D01*
X741500D01*
X742000Y463499D01*
Y461500D01*
X741500Y461000D01*
X740500D01*
X741000Y462000D02*
X740001Y461000D01*
X740500D02*
X740001Y461500D01*
X739001Y461000D02*
X738001D01*
X738501D01*
Y463999D01*
X739001Y463499D01*
X737500Y434249D02*
Y431250D01*
X736000D01*
X735501Y431750D01*
Y433749D01*
X736000Y434249D01*
X737500D01*
X733002Y431250D02*
Y434249D01*
X734501Y432750D01*
X732502D01*
X711701Y429799D02*
X712200Y430299D01*
X713200D01*
X713700Y429799D01*
Y427800D01*
X713200Y427300D01*
X712200D01*
X711701Y427800D01*
X709201Y427300D02*
Y430299D01*
X710701Y428799D01*
X708702D01*
X720501Y429799D02*
X721000Y430299D01*
X722000D01*
X722500Y429799D01*
Y427800D01*
X722000Y427300D01*
X721000D01*
X720501Y427800D01*
X719501Y429799D02*
X719001Y430299D01*
X718002D01*
X717502Y429799D01*
Y429299D01*
X718002Y428799D01*
X718501D01*
X718002D01*
X717502Y428300D01*
Y427800D01*
X718002Y427300D01*
X719001D01*
X719501Y427800D01*
X751250Y413750D02*
Y416749D01*
X749751D01*
X749251Y416249D01*
Y415249D01*
X749751Y414750D01*
X751250D01*
X750250D02*
X749251Y413750D01*
X748251Y414250D02*
X747751Y413750D01*
X746751D01*
X746252Y414250D01*
Y416249D01*
X746751Y416749D01*
X747751D01*
X748251Y416249D01*
Y415749D01*
X747751Y415249D01*
X746252D01*
X667500Y452300D02*
Y455299D01*
X666001D01*
X665501Y454799D01*
Y453799D01*
X666001Y453300D01*
X667500D01*
X666500D02*
X665501Y452300D01*
X662502Y455299D02*
X663501Y454799D01*
X664501Y453799D01*
Y452800D01*
X664001Y452300D01*
X663001D01*
X662502Y452800D01*
Y453300D01*
X663001Y453799D01*
X664501D01*
X756200Y468500D02*
Y471499D01*
X754701D01*
X754201Y470999D01*
Y470000D01*
X754701Y469500D01*
X756200D01*
X755200D02*
X754201Y468500D01*
X751202D02*
X753201D01*
X751202Y470499D01*
Y470999D01*
X751701Y471499D01*
X752701D01*
X753201Y470999D01*
X668700Y431499D02*
Y428500D01*
X667201D01*
X666701Y429000D01*
Y430999D01*
X667201Y431499D01*
X668700D01*
X665701Y430999D02*
X665201Y431499D01*
X664201D01*
X663702Y430999D01*
Y430499D01*
X664201Y429999D01*
X664701D01*
X664201D01*
X663702Y429500D01*
Y429000D01*
X664201Y428500D01*
X665201D01*
X665701Y429000D01*
X660501Y475500D02*
Y477499D01*
X661000Y477999D01*
X662000D01*
X662500Y477499D01*
Y475500D01*
X662000Y475000D01*
X661000D01*
X661500Y476000D02*
X660501Y475000D01*
X661000D02*
X660501Y475500D01*
X657502Y477999D02*
X659501D01*
Y476500D01*
X658501Y476999D01*
X658002D01*
X657502Y476500D01*
Y475500D01*
X658002Y475000D01*
X659001D01*
X659501Y475500D01*
X658700Y419800D02*
Y422799D01*
X657200D01*
X656701Y422299D01*
Y421300D01*
X657200Y420800D01*
X658700D01*
X657700D02*
X656701Y419800D01*
X654202D02*
Y422799D01*
X655701Y421300D01*
X653702D01*
X646201Y474799D02*
X646700Y475299D01*
X647700D01*
X648200Y474799D01*
Y472800D01*
X647700Y472300D01*
X646700D01*
X646201Y472800D01*
X645201Y474799D02*
X644701Y475299D01*
X643702D01*
X643202Y474799D01*
Y474299D01*
X643702Y473800D01*
X643202Y473300D01*
Y472800D01*
X643702Y472300D01*
X644701D01*
X645201Y472800D01*
Y473300D01*
X644701Y473800D01*
X645201Y474299D01*
Y474799D01*
X644701Y473800D02*
X643702D01*
M02*
