%FSLAX25Y25*%
%MOIN*%
G70*
G01*
G75*
G04 Layer_Physical_Order=1*
G04 Layer_Color=255*
%ADD10C,0.01000*%
%ADD11R,0.07000X0.05000*%
%ADD12R,0.05000X0.07000*%
%ADD13O,0.06500X0.04500*%
%ADD14O,0.07500X0.06250*%
%ADD15O,0.06500X0.05000*%
%ADD16C,0.07500*%
%ADD17R,0.04500X0.07000*%
%ADD18R,0.02362X0.08465*%
%ADD19R,0.06500X0.05000*%
%ADD20C,0.02000*%
%ADD21C,0.01500*%
%ADD22C,0.04000*%
%ADD23O,0.06500X0.05500*%
%ADD24C,0.05500*%
%ADD25C,0.06500*%
%ADD26O,0.08500X0.07500*%
%ADD27O,0.13000X0.15000*%
%ADD28O,0.10000X0.07000*%
%ADD29O,0.09500X0.06000*%
%ADD30R,0.14000X0.07500*%
%ADD31R,0.13000X0.07500*%
%ADD32C,0.03500*%
D10*
X761911Y462521D02*
G03*
X770950Y464944I2839J7480D01*
G01*
X766000Y457500D02*
G03*
X765341Y459091I-2250J0D01*
G01*
X766000Y457500D02*
G03*
X765342Y459090I-2250J0D01*
G01*
X719235Y478450D02*
G03*
X717789Y474394I3265J-3450D01*
G01*
X770950Y439339D02*
G03*
X766000Y441912I-3450J-589D01*
G01*
X728500Y447500D02*
G03*
X722319Y449750I-3500J0D01*
G01*
X728464Y447000D02*
G03*
X728500Y447500I-3464J500D01*
G01*
X731904Y446591D02*
G03*
X729282Y447000I-1591J-1591D01*
G01*
X725286Y441750D02*
G03*
X726500Y438569I3464J-500D01*
G01*
X717000Y475000D02*
G03*
X716250Y476561I-2000J0D01*
G01*
X717789Y474394D02*
G03*
X717000Y474669I-1539J-3144D01*
G01*
X711500Y457476D02*
G03*
X712158Y455910I2250J24D01*
G01*
X711500Y457476D02*
G03*
X712159Y455909I2250J24D01*
G01*
X708250Y473750D02*
G03*
X707661Y475167I-2000J0D01*
G01*
X708250Y473750D02*
G03*
X707664Y475164I-2000J0D01*
G01*
X706417Y476411D02*
G03*
X705000Y477000I-1417J-1411D01*
G01*
X706414Y476414D02*
G03*
X705000Y477000I-1414J-1414D01*
G01*
X713409Y454659D02*
G03*
X715000Y454000I1591J1591D01*
G01*
X713410Y454658D02*
G03*
X715000Y454000I1590J1592D01*
G01*
X707774Y447906D02*
G03*
X706250Y448500I-1524J-1656D01*
G01*
X713931Y449750D02*
G03*
X707774Y447906I-2681J-2250D01*
G01*
X707159Y442159D02*
G03*
X709781Y441750I1591J1591D01*
G01*
X707774Y447906D02*
G03*
X706250Y448500I-1524J-1656D01*
G01*
X701250D02*
G03*
X699659Y447841I0J-2250D01*
G01*
X701250Y448500D02*
G03*
X699660Y447842I0J-2250D01*
G01*
X699750Y440000D02*
G03*
X699495Y441313I-3500J0D01*
G01*
X766000Y435588D02*
G03*
X770950Y438161I1500J3162D01*
G01*
X758552Y434009D02*
G03*
X760341Y434659I198J2241D01*
G01*
X745909D02*
G03*
X748531Y434250I1591J1591D01*
G01*
X749127D02*
G03*
X748096Y430000I4123J-3250D01*
G01*
X759500Y431000D02*
G03*
X758552Y434009I-5250J0D01*
G01*
X744750Y432812D02*
G03*
X744092Y434403I-2250J0D01*
G01*
X744750Y432812D02*
G03*
X744091Y434404I-2250J0D01*
G01*
X723500Y434750D02*
G03*
X717299Y432524I-3500J0D01*
G01*
X722701Y432524D02*
G03*
X723500Y434750I-2701J2226D01*
G01*
X764435Y429107D02*
G03*
X766000Y431250I-685J2143D01*
G01*
X759324Y429653D02*
G03*
X759500Y431000I-5074J1347D01*
G01*
X770950Y425056D02*
G03*
X763171Y427843I-6200J-5056D01*
G01*
X718688Y418130D02*
G03*
X725000Y412813I3812J-1880D01*
G01*
X714750Y434750D02*
G03*
X708549Y432524I-3500J0D01*
G01*
X716508Y421059D02*
G03*
X717159Y419659I2242J191D01*
G01*
X716508Y421059D02*
G03*
X717158Y419660I2242J191D01*
G01*
X713951Y432524D02*
G03*
X714750Y434750I-2701J2226D01*
G01*
X706000Y436069D02*
G03*
X707250Y438750I-2250J2681D01*
G01*
D02*
G03*
X701500Y436069I-3500J0D01*
G01*
X715342Y418410D02*
G03*
X716000Y420000I-1592J1590D01*
G01*
X715341Y418409D02*
G03*
X716000Y420000I-1591J1591D01*
G01*
X711250Y415250D02*
G03*
X712841Y415909I0J2250D01*
G01*
X711250Y415250D02*
G03*
X712840Y415908I0J2250D01*
G01*
X705411Y419750D02*
G03*
X703000Y420500I-2411J-3500D01*
G01*
Y412000D02*
G03*
X707131Y415250I0J4250D01*
G01*
X702000Y420500D02*
G03*
X702000Y412000I0J-4250D01*
G01*
X695342Y415910D02*
G03*
X696000Y417500I-1592J1590D01*
G01*
X698500Y453750D02*
G03*
X698500Y453750I-3500J0D01*
G01*
X669778Y478450D02*
G03*
X670335Y473500I2722J-2200D01*
G01*
X668486D02*
G03*
X668189Y463871I-2236J-4750D01*
G01*
X671000Y458750D02*
G03*
X670770Y460088I-4000J0D01*
G01*
X667000Y454750D02*
G03*
X671000Y458750I0J4000D01*
G01*
X690342Y453410D02*
G03*
X691000Y455000I-1592J1590D01*
G01*
X690341Y453409D02*
G03*
X691000Y455000I-1591J1591D01*
G01*
X687250Y450000D02*
G03*
X687237Y450305I-3500J0D01*
G01*
X684055Y453487D02*
G03*
X687250Y450000I-305J-3487D01*
G01*
X674091Y454091D02*
G03*
X671469Y454500I-1591J-1591D01*
G01*
X671000Y448750D02*
G03*
X670567Y450500I-3750J0D01*
G01*
X667250Y445000D02*
G03*
X671000Y448750I0J3750D01*
G01*
X652664Y463914D02*
G03*
X651250Y464500I-1414J-1414D01*
G01*
X652667Y463911D02*
G03*
X651250Y464500I-1417J-1411D01*
G01*
X642500Y473750D02*
G03*
X636550Y476250I-3500J0D01*
G01*
X639000Y470250D02*
G03*
X642500Y473750I0J3500D01*
G01*
X636550Y471250D02*
G03*
X639000Y470250I2450J2499D01*
G01*
X665500Y462750D02*
G03*
X665500Y454750I0J-4000D01*
G01*
X659833Y451089D02*
G03*
X661250Y450500I1417J1411D01*
G01*
X661933D02*
G03*
X665250Y445000I3317J-1750D01*
G01*
X659836Y451086D02*
G03*
X661250Y450500I1414J1414D01*
G01*
X660987Y444695D02*
G03*
X661000Y445000I-3487J305D01*
G01*
X695136Y443318D02*
G03*
X699750Y440000I1114J-3318D01*
G01*
X692250D02*
G03*
X686069Y442250I-3500J0D01*
G01*
Y437750D02*
G03*
X692250Y440000I2681J2250D01*
G01*
X683410Y438408D02*
G03*
X685000Y437750I1590J1592D01*
G01*
X678500Y441250D02*
G03*
X672750Y438569I-3500J0D01*
G01*
X677250D02*
G03*
X678500Y441250I-2250J2681D01*
G01*
X683409Y438409D02*
G03*
X685000Y437750I1591J1591D01*
G01*
X672750Y437500D02*
G03*
X673408Y435910I2250J0D01*
G01*
X672750Y437500D02*
G03*
X673409Y435909I2250J0D01*
G01*
X695341Y415909D02*
G03*
X696000Y417500I-1591J1591D01*
G01*
X681000Y433750D02*
G03*
X680341Y435341I-2250J0D01*
G01*
X681000Y433750D02*
G03*
X680342Y435340I-2250J0D01*
G01*
X676431Y421372D02*
G03*
X676120Y421059I2319J-2622D01*
G01*
D02*
G03*
X675588Y417250I2630J-2309D01*
G01*
X665625Y443375D02*
G03*
X663074Y442608I0J-4625D01*
G01*
X671500Y438750D02*
G03*
X666875Y443375I-4625J0D01*
G01*
X661022Y438296D02*
G03*
X665625Y434125I4603J454D01*
G01*
X666875D02*
G03*
X671500Y438750I0J4625D01*
G01*
X661000Y445000D02*
G03*
X657805Y441513I-3500J0D01*
G01*
X670916Y431000D02*
G03*
X666875Y433375I-4041J-2250D01*
G01*
Y424125D02*
G03*
X670916Y426500I0J4625D01*
G01*
X658500Y427500D02*
G03*
X657841Y429091I-2250J0D01*
G01*
X656591Y430341D02*
G03*
X656031Y430750I-1591J-1591D01*
G01*
X656590Y430342D02*
G03*
X656031Y430750I-1590J-1592D01*
G01*
X665625Y433375D02*
G03*
X665625Y424125I0J-4625D01*
G01*
X661590Y417842D02*
G03*
X660000Y418500I-1590J-1592D01*
G01*
X661591Y417841D02*
G03*
X660000Y418500I-1591J-1591D01*
G01*
X658500Y427500D02*
G03*
X657842Y429090I-2250J0D01*
G01*
X658931Y418500D02*
G03*
X658700Y418750I-2681J-2250D01*
G01*
X770042Y464000D02*
X770950D01*
X768623Y463000D02*
X770950D01*
X764750Y462000D02*
X770950D01*
X765427Y459000D02*
X770950D01*
X765944Y458000D02*
X770950D01*
X763432Y461000D02*
X770950D01*
X764432Y460000D02*
X770950D01*
X766000Y457500D02*
Y462098D01*
X763000Y461432D02*
Y462194D01*
X761911Y462521D02*
X765340Y459092D01*
X764000Y460432D02*
Y462035D01*
X765000Y459432D02*
Y462004D01*
X762432Y462000D02*
X764750D01*
X770000Y441199D02*
Y463964D01*
X770950Y439339D02*
Y464944D01*
X766000Y457000D02*
X770950D01*
X766000Y456000D02*
X770950D01*
X766000Y453000D02*
X770950D01*
X766000Y452000D02*
X770950D01*
X766000Y455000D02*
X770950D01*
X766000Y454000D02*
X770950D01*
X768000Y442214D02*
Y462690D01*
X769000Y441912D02*
Y463222D01*
X767000Y442214D02*
Y462323D01*
X766000Y441912D02*
Y457500D01*
Y441912D02*
Y457500D01*
X734250Y478450D02*
X738250D01*
Y472000D02*
Y478450D01*
X734250Y478000D02*
X738250D01*
X734250Y477000D02*
X738250D01*
X734250Y474000D02*
X738250D01*
X734250Y473000D02*
X738250D01*
X734250Y476000D02*
X738250D01*
X734250Y475000D02*
X738250D01*
X737000Y472000D02*
Y478450D01*
X738000Y472000D02*
Y478450D01*
X735000Y472000D02*
Y478450D01*
X734250Y472000D02*
X738250D01*
X734250D02*
Y478450D01*
Y472000D02*
X738250D01*
X736000D02*
Y478450D01*
X715000Y454000D02*
X726568D01*
X715000D02*
X726568D01*
X727000Y450372D02*
Y453568D01*
X728000Y449303D02*
Y452568D01*
X698419Y453000D02*
X727568D01*
X698031Y452000D02*
X728568D01*
X723000Y450372D02*
Y454000D01*
X722000Y449750D02*
Y454000D01*
X720000Y449750D02*
Y454000D01*
X721000Y449750D02*
Y454000D01*
X725000Y451000D02*
Y454000D01*
X726000Y450854D02*
Y454000D01*
X724000Y450854D02*
Y454000D01*
X766000Y449000D02*
X770950D01*
X766000Y448000D02*
X770950D01*
X766000Y451000D02*
X770950D01*
X766000Y450000D02*
X770950D01*
X766000Y445000D02*
X770950D01*
X766000Y443000D02*
X770950D01*
X766000Y447000D02*
X770950D01*
X766000Y446000D02*
X770950D01*
X766000Y444000D02*
X770950D01*
X736000Y442494D02*
Y444568D01*
X734000Y444494D02*
Y446568D01*
X735000Y443495D02*
Y445568D01*
X735495Y443000D02*
X737568D01*
X768799Y442000D02*
X770950D01*
X734494Y444000D02*
X736568D01*
X770181Y441000D02*
X770950D01*
X741000Y437495D02*
Y439568D01*
X741495Y437000D02*
X743568D01*
X770531D02*
X770950D01*
X739495Y439000D02*
X741568D01*
X740494Y438000D02*
X742568D01*
X738000Y440494D02*
Y442568D01*
X739000Y439495D02*
Y441568D01*
X736494Y442000D02*
X738568D01*
X737000Y441495D02*
Y443568D01*
X738494Y440000D02*
X740568D01*
X740000Y438494D02*
Y440568D01*
X737495Y441000D02*
X739568D01*
X730000Y447228D02*
Y450568D01*
X731000Y447142D02*
Y449568D01*
X725000Y451000D02*
X729568D01*
X727450Y450000D02*
X730568D01*
X728464Y448000D02*
X732568D01*
X731343Y447000D02*
X733568D01*
X728162Y449000D02*
X731568D01*
X728464Y447000D02*
X729282D01*
X729000D02*
Y451568D01*
X711250Y451000D02*
X725000D01*
X713699Y450000D02*
X722550D01*
X728464Y447000D02*
X729282D01*
X713931Y449750D02*
X722319D01*
X732494Y446000D02*
X734568D01*
X733000Y445495D02*
Y447568D01*
X732000Y446494D02*
Y448568D01*
X733495Y445000D02*
X735568D01*
X721299Y438000D02*
X726500D01*
X722681Y437000D02*
X726500D01*
X721000Y438104D02*
Y441750D01*
X722000Y437622D02*
Y441750D01*
X709781D02*
X725286D01*
X720000Y438250D02*
Y441750D01*
X707019Y440000D02*
X725481D01*
X707241Y439000D02*
X726069D01*
X706431Y441000D02*
X725259D01*
X718000Y476521D02*
Y478450D01*
X717000Y475000D02*
Y478450D01*
X716250D02*
X719235D01*
X716250Y478000D02*
X718817D01*
X717000Y475000D02*
X717750D01*
X717000Y474669D02*
Y475000D01*
X716250Y477000D02*
X718192D01*
X716732Y476000D02*
X717857D01*
X716250Y476561D02*
Y478450D01*
X707000Y475828D02*
Y478450D01*
X708000Y474718D02*
Y478450D01*
X707811Y475000D02*
X708250D01*
X717000Y474669D02*
Y475000D01*
X706828Y476000D02*
X708250D01*
X711069Y457476D02*
X711431D01*
X709000Y450181D02*
Y457476D01*
X708250Y473750D02*
Y478450D01*
Y472078D02*
Y473750D01*
Y472078D02*
Y473750D01*
X708000Y448799D02*
Y457476D01*
X707000Y448371D02*
Y457476D01*
X705000Y477000D02*
X708250D01*
X704250Y478450D02*
X708250D01*
X704250Y478000D02*
X708250D01*
X706417Y476411D02*
X707661Y475167D01*
X706431Y457476D02*
X711069D01*
X706069D02*
X706431D01*
X705000Y477000D02*
Y478450D01*
X706000Y476732D02*
Y478450D01*
X704250Y477000D02*
Y478450D01*
Y477000D02*
X705000D01*
X704250D02*
X705000D01*
X696431Y457476D02*
X701069D01*
X696069D02*
X696431D01*
X702000Y448500D02*
Y457476D01*
X703000Y448500D02*
Y457476D01*
X701069D02*
X701431D01*
X701069D02*
X701431D01*
X706069D02*
X706431D01*
X706000Y448500D02*
Y457476D01*
X704000Y448500D02*
Y457476D01*
X705000Y448500D02*
Y457476D01*
X697000Y456622D02*
Y457476D01*
X698000Y455553D02*
Y457476D01*
X696069D02*
X696431D01*
X696000Y457104D02*
Y457476D01*
X701000Y448486D02*
Y457476D01*
X700000Y448121D02*
Y457476D01*
X699000Y447182D02*
Y457476D01*
X714000Y449750D02*
Y454234D01*
X718000Y449750D02*
Y454000D01*
X717000Y449750D02*
Y454000D01*
X719000Y449750D02*
Y454000D01*
X715000Y449750D02*
Y454000D01*
X716000Y449750D02*
Y454000D01*
X711069Y457476D02*
X711431D01*
X712000Y450919D02*
Y456086D01*
X711000Y450991D02*
Y457476D01*
X710000Y450769D02*
Y457476D01*
X712160Y455908D02*
X713408Y454660D01*
X713000Y450531D02*
Y455068D01*
X719000Y438104D02*
Y441750D01*
X718000Y437622D02*
Y441750D01*
X710000Y438019D02*
Y441750D01*
X712549Y438000D02*
X718701D01*
X713000Y437781D02*
Y441750D01*
X711000Y438241D02*
Y441750D01*
X712000Y438169D02*
Y441750D01*
X707000Y440049D02*
Y442318D01*
X706000Y441431D02*
Y443318D01*
X707169Y438000D02*
X709951D01*
X709000Y437431D02*
Y441514D01*
X706781Y437000D02*
X708569D01*
X701431Y457476D02*
X706069D01*
X698269Y455000D02*
X713068D01*
X696299Y457000D02*
X711556D01*
X697681Y456000D02*
X712073D01*
X701250Y448500D02*
X706250D01*
X701182Y443000D02*
X706318D01*
X698491Y454000D02*
X715000D01*
X697165Y451000D02*
X711250D01*
X698000Y446182D02*
Y451947D01*
X697000Y445182D02*
Y450878D01*
X696000Y444182D02*
Y450396D01*
X702182Y444000D02*
X705318D01*
X702182D02*
X705318D01*
X707159Y442159D01*
X705000Y442019D02*
Y444000D01*
X704000Y442241D02*
Y444000D01*
X699495Y441313D02*
X702182Y444000D01*
X703000Y442169D02*
Y444000D01*
X705049Y442000D02*
X707336D01*
X700182D02*
X702451D01*
X702000Y441781D02*
Y443818D01*
X701000Y440915D02*
Y442818D01*
X699604Y441000D02*
X701069D01*
X699750Y440000D02*
X700481D01*
X699604Y439000D02*
X700259D01*
X699122Y438000D02*
X700331D01*
X769665Y436000D02*
X770950D01*
X760341Y434659D02*
X761500Y435818D01*
X766000Y434000D02*
X770950D01*
X766000Y433000D02*
X770950D01*
X760682Y435000D02*
X761500D01*
X766000D02*
X770950D01*
X759000Y433236D02*
Y434014D01*
X748531Y434250D02*
X749127D01*
X758750Y434000D02*
X761500D01*
X759104Y433000D02*
X761500D01*
X747500Y434000D02*
X748942D01*
X770000Y426036D02*
Y436301D01*
X770950Y425056D02*
Y438161D01*
X761500Y431828D02*
Y435818D01*
X769000Y426778D02*
Y435588D01*
X767000Y427677D02*
Y435286D01*
X768000Y427310D02*
Y435286D01*
X766000Y431250D02*
Y435588D01*
Y427902D02*
Y435588D01*
X761000Y431328D02*
Y435318D01*
X760000Y430328D02*
Y434379D01*
X746000Y425578D02*
Y434573D01*
X748000Y431000D02*
Y434056D01*
X747000Y430000D02*
Y434056D01*
X742000Y436494D02*
Y438568D01*
X743000Y435495D02*
Y437568D01*
X726568Y454000D02*
X745909Y434659D01*
X731904Y446591D02*
X744090Y434404D01*
X743495Y435000D02*
X745568D01*
X744000Y434494D02*
Y436568D01*
X723269Y436000D02*
X726500D01*
X742494D02*
X744568D01*
X723000Y436553D02*
Y441750D01*
X713931Y437000D02*
X717319D01*
X723491Y435000D02*
X726500D01*
X723419Y434000D02*
X726500D01*
X745000Y426578D02*
Y435568D01*
X726500Y432524D02*
Y438569D01*
X744742Y433000D02*
X748396D01*
X744750Y426828D02*
Y432812D01*
X744411Y434000D02*
X747500D01*
X723031Y433000D02*
X726500D01*
X725000Y432524D02*
Y441750D01*
X726000Y432524D02*
Y439085D01*
X724000Y432524D02*
Y441750D01*
X723000Y432524D02*
Y432947D01*
X726069Y432524D02*
X726431D01*
X766000Y432000D02*
X770950D01*
X759404D02*
X761500D01*
X759324Y429653D02*
X761500Y431828D01*
X765986Y431000D02*
X770950D01*
X765621Y430000D02*
X770950D01*
X759500Y431000D02*
X760672D01*
X764328Y429000D02*
X770950D01*
X748000Y430000D02*
Y431000D01*
X746250Y430000D02*
X748096D01*
X746250D02*
X748096D01*
X744750D02*
X746250D01*
X764750Y428000D02*
X770950D01*
X765000Y427996D02*
Y429379D01*
X763171Y427843D02*
X764435Y429107D01*
X768623Y427000D02*
X770950D01*
X770042Y426000D02*
X770950D01*
X763328Y428000D02*
X764750D01*
X764000Y427965D02*
Y428672D01*
X746250Y425328D02*
Y430000D01*
X749578Y422000D02*
X754172D01*
X749578D02*
X754172D01*
X745578Y426000D02*
X746250D01*
X744750Y432000D02*
X748096D01*
X744750Y431000D02*
X748000D01*
X722701Y432524D02*
X726069D01*
X726431D01*
X744750Y427000D02*
X746250D01*
X744750Y426828D02*
X746250Y425328D01*
X744750Y429000D02*
X746250D01*
X744750Y428000D02*
X746250D01*
X716431Y432524D02*
X717299D01*
X717160Y419658D02*
X718688Y418130D01*
X715766Y419000D02*
X717818D01*
X714932Y418000D02*
X718627D01*
X713932Y417000D02*
X718317D01*
X712932Y416000D02*
X718257D01*
X707062Y415000D02*
X718438D01*
X725000Y411550D02*
Y412813D01*
Y411550D02*
Y412813D01*
X724000Y411550D02*
Y412274D01*
X722500Y412000D02*
X725000D01*
X723000Y411550D02*
Y412030D01*
X703000Y412000D02*
X722500D01*
X718000Y411550D02*
Y418818D01*
X719000Y411550D02*
Y413839D01*
X706606Y414000D02*
X718894D01*
X705739Y413000D02*
X719761D01*
X721000Y411550D02*
Y412274D01*
X722000Y411550D02*
Y412030D01*
X720000Y411550D02*
Y412813D01*
X717000Y436553D02*
Y441750D01*
X716000Y432524D02*
Y441750D01*
X714519Y436000D02*
X716731D01*
X715000Y432524D02*
Y441750D01*
X714741Y435000D02*
X716509D01*
X716069Y432524D02*
X716431D01*
X714669Y434000D02*
X716581D01*
X714281Y433000D02*
X716969D01*
X714000Y436915D02*
Y441750D01*
X708000Y436049D02*
Y441629D01*
Y432524D02*
Y433451D01*
X717000Y432524D02*
Y432947D01*
X713951Y432524D02*
X716069D01*
X716431D01*
X716069Y421059D02*
X716431D01*
X716069D02*
X716431D01*
X716000Y420000D02*
Y421059D01*
X711069D02*
X711431D01*
X711069D02*
X711431D01*
X709000Y419750D02*
Y421059D01*
X708000Y419750D02*
Y421059D01*
X707000Y432524D02*
Y437451D01*
X706000Y436000D02*
X707981D01*
X706000Y433000D02*
X708219D01*
X706431Y432524D02*
X708549D01*
X706000Y435000D02*
X707759D01*
X706000Y434000D02*
X707831D01*
X706000Y432524D02*
Y436069D01*
X706069Y432524D02*
X706431D01*
X698053Y437000D02*
X700719D01*
X701500Y432524D02*
Y436069D01*
X701069Y432524D02*
X701431D01*
X706069D02*
X706431D01*
X701069D02*
X701431D01*
X700000D02*
Y441818D01*
X701000Y432524D02*
Y436585D01*
X696431Y432524D02*
X701069D01*
X699000D02*
Y437835D01*
X701069Y421059D02*
X701431D01*
X706431D02*
X711069D01*
X696431D02*
X701069D01*
X701431D01*
X697000Y432524D02*
Y436581D01*
X698000Y432524D02*
Y436969D01*
X696000Y432524D02*
Y436509D01*
X696069Y432524D02*
X696431D01*
X696069D02*
X696431D01*
X698000Y417686D02*
Y421059D01*
X696069D02*
X696431D01*
X716000Y421000D02*
X716514D01*
X711000Y420432D02*
Y421059D01*
X710318Y419750D02*
X711500Y420932D01*
X716000Y420000D02*
X716879D01*
X705000D02*
X710568D01*
X712842Y415910D02*
X715340Y418408D01*
X706069Y421059D02*
X706431D01*
X706069D02*
X706431D01*
X705000Y420000D02*
Y421059D01*
X706000Y419750D02*
Y421059D01*
X707000Y419750D02*
Y421059D01*
X710000Y419750D02*
Y421059D01*
X705411Y419750D02*
X710318D01*
X715000Y411550D02*
Y418068D01*
X717000Y411550D02*
Y419836D01*
X713000Y411550D02*
Y416068D01*
X714000Y411550D02*
Y417068D01*
X712000Y411550D02*
Y415379D01*
X707131Y415250D02*
X711250D01*
X710000Y411550D02*
Y415250D01*
X711000Y411550D02*
Y415250D01*
X708000Y411550D02*
Y415250D01*
X709000Y411550D02*
Y415250D01*
X706000Y411550D02*
Y413240D01*
X707000Y411550D02*
Y414814D01*
X705000Y411550D02*
Y412500D01*
X703000Y420500D02*
Y421059D01*
X704000Y420381D02*
Y421059D01*
X701431D02*
X706069D01*
X700000Y420000D02*
Y421059D01*
X702000Y420500D02*
Y421059D01*
Y420500D02*
X703000D01*
X701000Y420381D02*
Y421059D01*
X696069D02*
X696431D01*
X699000Y419260D02*
Y421059D01*
X696000Y420000D02*
X700000D01*
X696000Y417500D02*
Y421059D01*
Y419000D02*
X698760D01*
X696000Y418000D02*
X698127D01*
X695944Y417000D02*
X697817D01*
X704000Y411550D02*
Y412119D01*
X703000Y411550D02*
Y412000D01*
X702000D02*
X703000D01*
X702000D02*
X703000D01*
X702000Y411550D02*
Y412000D01*
X697000Y411550D02*
Y421059D01*
X698000Y411550D02*
Y414814D01*
X695427Y416000D02*
X697757D01*
X700000Y411550D02*
Y412500D01*
X701000Y411550D02*
Y412119D01*
X699000Y411550D02*
Y413240D01*
X694000Y457104D02*
Y457476D01*
X693000Y456622D02*
Y457476D01*
X691069D02*
X691431D01*
X696069D01*
X691069D02*
X691431D01*
X691000Y457000D02*
X693701D01*
X686069Y457476D02*
X686431D01*
X686500Y455932D02*
Y457476D01*
X676431D02*
X681069D01*
X681431D01*
X676069D02*
X676431D01*
X676069D02*
X676431D01*
X681431D02*
X686069D01*
X686431D01*
X681069D02*
X681431D01*
X686000Y455432D02*
Y457476D01*
X685000Y454432D02*
Y457476D01*
X684000Y453491D02*
Y457476D01*
X683000Y453419D02*
Y457476D01*
X692000Y455553D02*
Y457476D01*
X691000Y455000D02*
Y457476D01*
X678000Y450182D02*
Y457476D01*
X679000Y449182D02*
Y457476D01*
X676000Y452182D02*
Y457476D01*
X677000Y451182D02*
Y457476D01*
X682000Y453031D02*
Y457476D01*
X681000Y452165D02*
Y457476D01*
X680000Y448182D02*
Y457476D01*
X640299Y477000D02*
X669081D01*
X636550Y478450D02*
X669778D01*
X636550Y478000D02*
X669469D01*
X668486Y473500D02*
X670335D01*
X670000D02*
Y473801D01*
X642269Y475000D02*
X669231D01*
X666250Y474000D02*
X669819D01*
X669000Y476250D02*
Y478450D01*
Y473500D02*
Y476250D01*
X667000Y473946D02*
Y478450D01*
X668000Y473700D02*
Y478450D01*
X653578Y463000D02*
X667318D01*
X641681Y476000D02*
X669009D01*
X672000Y454694D02*
Y457476D01*
X673000Y454694D02*
Y457476D01*
X670770Y460088D02*
X671069Y460387D01*
Y457476D02*
Y460387D01*
X674000Y454177D02*
Y457476D01*
X675000Y453182D02*
Y457476D01*
X671069D02*
X676069D01*
X670597Y457000D02*
X686500D01*
X667067Y462749D02*
X668189Y463871D01*
X671000Y458750D02*
Y460318D01*
X665500Y462750D02*
X667000D01*
Y463554D01*
X671000Y454500D02*
Y458750D01*
X691000Y456000D02*
X692319D01*
X691000Y455000D02*
X691731D01*
X689932Y453000D02*
X691581D01*
X688932Y452000D02*
X691969D01*
X687932Y451000D02*
X692835D01*
X690766Y454000D02*
X691509D01*
X684055Y453487D02*
X686500Y455932D01*
X687237Y450305D02*
X690340Y453408D01*
X677182Y451000D02*
X680396D01*
X687250Y450000D02*
X708801D01*
X687104Y449000D02*
X708088D01*
X686622Y448000D02*
X699836D01*
X685553Y447000D02*
X698818D01*
X684000Y444182D02*
Y446509D01*
X682182Y446000D02*
X697818D01*
X683182Y445000D02*
X696818D01*
X680182Y448000D02*
X680878D01*
X681000Y447182D02*
Y447835D01*
X678182Y450000D02*
X680250D01*
X679182Y449000D02*
X680396D01*
X682000Y446182D02*
Y446969D01*
X683000Y445182D02*
Y446581D01*
X681182Y447000D02*
X681947D01*
X674182Y454000D02*
X684568D01*
X669905Y456000D02*
X686500D01*
X668392Y455000D02*
X685568D01*
X675182Y453000D02*
X681947D01*
X676182Y452000D02*
X680878D01*
X670786Y450000D02*
X671818D01*
X670992Y449000D02*
X672818D01*
X669000Y454500D02*
Y455286D01*
X670000Y454500D02*
Y456104D01*
X665500Y454750D02*
X667000D01*
X668000Y454500D02*
Y454877D01*
X670567Y450500D02*
X671318D01*
X671000Y448750D02*
Y450500D01*
X662078Y454500D02*
X671469D01*
X675000Y444750D02*
Y446818D01*
X674000Y444604D02*
Y447818D01*
X670567Y447000D02*
X674818D01*
X669800Y446000D02*
X675818D01*
X676000Y444604D02*
Y445818D01*
X677000Y444122D02*
Y444818D01*
X667250Y445000D02*
X676818D01*
X673000Y444122D02*
Y448818D01*
X670924Y448000D02*
X673818D01*
X665250Y445000D02*
X667250D01*
X665250D02*
X667250D01*
X666000Y473994D02*
Y478450D01*
X665000Y473849D02*
Y478450D01*
X664000Y473493D02*
Y478450D01*
X663000Y472873D02*
Y478450D01*
X662000Y471832D02*
Y478450D01*
X651000Y467000D02*
X661300D01*
X651000Y466000D02*
X661778D01*
X651000Y465000D02*
X662576D01*
X651000Y470250D02*
Y478450D01*
X661000Y468750D02*
Y478450D01*
X649000Y470250D02*
Y478450D01*
X650000Y470250D02*
Y478450D01*
X651000Y469000D02*
X661006D01*
X651000Y468000D02*
X661054D01*
X651000Y470000D02*
X661151D01*
X658000Y458578D02*
Y478450D01*
X659000Y457578D02*
Y478450D01*
X656000Y460578D02*
Y478450D01*
X657000Y459578D02*
Y478450D01*
X663000Y461872D02*
Y464627D01*
X662000Y460686D02*
Y465668D01*
X660000Y456578D02*
Y478450D01*
X661000Y455578D02*
Y468750D01*
X654000Y462578D02*
Y478450D01*
X655000Y461578D02*
Y478450D01*
X652000Y464354D02*
Y478450D01*
X653000Y463578D02*
Y478450D01*
X651000Y464500D02*
Y470250D01*
X641000Y476622D02*
Y478450D01*
X642000Y475553D02*
Y478450D01*
X642491Y474000D02*
X666250D01*
X642419Y473000D02*
X663168D01*
X642031Y472000D02*
X662127D01*
X641165Y471000D02*
X661507D01*
X639000Y477250D02*
Y478450D01*
X640000Y477104D02*
Y478450D01*
X638000Y477104D02*
Y478450D01*
X637000Y476622D02*
Y478450D01*
X636550Y476250D02*
Y478450D01*
Y477000D02*
X637701D01*
X647000Y470250D02*
Y478450D01*
X648000Y470250D02*
Y478450D01*
X645000Y470250D02*
Y478450D01*
X646000Y470250D02*
Y478450D01*
X643000Y470250D02*
Y478450D01*
X644000Y470250D02*
Y478450D01*
X639000Y470250D02*
X651000D01*
X642000D02*
Y471947D01*
X636550Y470250D02*
Y471250D01*
X637000Y470250D02*
Y470878D01*
X641000Y470250D02*
Y470878D01*
X636550Y470250D02*
X639000D01*
X666000Y462750D02*
Y463506D01*
X665000Y462719D02*
Y463651D01*
X664000Y462458D02*
Y464007D01*
X663000Y454500D02*
Y455627D01*
X664000Y454500D02*
Y455042D01*
X660578Y456000D02*
X662595D01*
X661578Y455000D02*
X664108D01*
X658578Y458000D02*
X661571D01*
X659578Y457000D02*
X661903D01*
X656578Y460000D02*
X661700D01*
X657578Y459000D02*
X661508D01*
X662000Y454578D02*
Y456813D01*
X661250Y450500D02*
X661933D01*
X660854Y446000D02*
X662701D01*
X661000Y445000D02*
X665250D01*
X659303Y448000D02*
X661576D01*
X660372Y447000D02*
X661933D01*
X659000Y448162D02*
Y451922D01*
X660000Y447449D02*
Y450939D01*
X657000Y448464D02*
Y453922D01*
X658000Y448464D02*
Y452922D01*
X661000Y445000D02*
Y450516D01*
Y444682D02*
Y445000D01*
X654578Y462000D02*
X663168D01*
X655578Y461000D02*
X662193D01*
X652573Y464000D02*
X664014D01*
X652667Y463911D02*
X662078Y454500D01*
X651000Y452000D02*
X658922D01*
X651000Y451000D02*
X659927D01*
X651000Y453000D02*
X657922D01*
X651000Y459922D02*
X659833Y451089D01*
X651000Y458000D02*
X652922D01*
X651000Y457000D02*
X653922D01*
X650672Y460250D02*
X651000Y459922D01*
Y459000D02*
X651922D01*
X651000Y455000D02*
X655922D01*
X651000Y454000D02*
X656922D01*
X651000Y456000D02*
X654922D01*
X656000Y448162D02*
Y454922D01*
X655000Y447449D02*
Y455922D01*
X651000Y450000D02*
X661715D01*
X650500Y449000D02*
X661508D01*
X650500Y447000D02*
X654628D01*
X650500Y444000D02*
X654146D01*
X650500Y448000D02*
X655697D01*
X651000Y449750D02*
Y459922D01*
X654000Y445000D02*
Y456922D01*
X650500Y449750D02*
X651000D01*
Y459750D01*
X650500Y446000D02*
X654146D01*
X650500Y445000D02*
X654000D01*
X695136Y443318D02*
X699658Y447840D01*
X695000Y443269D02*
Y450250D01*
X694000Y442681D02*
Y450396D01*
X693000Y441299D02*
Y450878D01*
X691622Y442000D02*
X693378D01*
X692104Y441000D02*
X692896D01*
X684182Y444000D02*
X695818D01*
X690553Y443000D02*
X694447D01*
X690000Y443269D02*
Y453068D01*
X692000Y441299D02*
Y451947D01*
X689000Y443491D02*
Y452068D01*
X688000Y443419D02*
Y451068D01*
X687000Y443031D02*
Y448701D01*
X685182Y443000D02*
X686947D01*
X685000Y443182D02*
Y446731D01*
X692250Y440000D02*
X692750D01*
X693000Y432524D02*
Y438701D01*
X694000Y432524D02*
Y437319D01*
X692104Y439000D02*
X692896D01*
X691622Y438000D02*
X693378D01*
X685000Y437750D02*
X686069D01*
X692000Y432524D02*
Y438701D01*
X684000Y432524D02*
Y437984D01*
X686000Y432524D02*
Y437750D01*
X691000Y432524D02*
Y437319D01*
X685000Y432524D02*
Y437750D01*
X678031Y443000D02*
X678818D01*
X674091Y454091D02*
X685932Y442250D01*
X671318Y450500D02*
X683408Y438410D01*
X678419Y442000D02*
X679818D01*
X678491Y441000D02*
X680818D01*
X678269Y440000D02*
X681818D01*
X677681Y439000D02*
X682818D01*
X677165Y444000D02*
X677818D01*
X678000Y443053D02*
Y443818D01*
X661682Y444000D02*
X672835D01*
X672000Y443053D02*
Y449818D01*
X671493Y439000D02*
X672319D01*
X668699Y443000D02*
X671969D01*
X682000Y432524D02*
Y439818D01*
X683000Y432524D02*
Y438818D01*
X680000Y435682D02*
Y441818D01*
X681000Y433750D02*
Y440818D01*
X678682Y437000D02*
X686947D01*
X677682Y438000D02*
X683969D01*
X677250Y438432D02*
X680340Y435342D01*
X678000Y437682D02*
Y439447D01*
X679000Y436682D02*
Y442818D01*
X672750Y437500D02*
Y438569D01*
X672000Y432524D02*
Y439447D01*
X671439Y438000D02*
X672750D01*
X690553Y437000D02*
X694447D01*
X695000Y432524D02*
Y436731D01*
X680621Y435000D02*
X701500D01*
X680986Y434000D02*
X701500D01*
X691069Y432524D02*
X691431D01*
X696069D01*
X681000Y433000D02*
X701500D01*
X691069Y432524D02*
X691431D01*
X689000D02*
Y436509D01*
X690000Y432524D02*
Y436731D01*
X681000Y432524D02*
Y433750D01*
X688000Y432524D02*
Y436581D01*
X681069Y432524D02*
X681431D01*
X686069D01*
X681069D02*
X681431D01*
X695000Y411550D02*
Y415568D01*
X694432Y415000D02*
X697938D01*
X690982Y411550D02*
X695340Y415908D01*
X693432Y414000D02*
X698394D01*
X692432Y413000D02*
X699261D01*
X691432Y412000D02*
X702000D01*
X690982Y411550D02*
X725000D01*
X686431Y432524D02*
X691069D01*
X687000D02*
Y436969D01*
X686069Y432524D02*
X686431D01*
X686069D02*
X686431D01*
X693000Y411550D02*
Y413568D01*
X694000Y411550D02*
Y414568D01*
X692000Y411550D02*
Y412568D01*
X679682Y436000D02*
X701500D01*
X673410Y435908D02*
X676500Y432818D01*
X676000Y432524D02*
Y433318D01*
X676069Y432524D02*
X676431D01*
X668699Y433000D02*
X676318D01*
X671069Y432524D02*
X676069D01*
X673000D02*
Y436469D01*
X674000Y432524D02*
Y435318D01*
X671156Y437000D02*
X672806D01*
X670594Y436000D02*
X673323D01*
X669582Y435000D02*
X674318D01*
X675000Y432524D02*
Y434318D01*
X661000Y434000D02*
X675318D01*
X676069Y432524D02*
X676431D01*
X671069Y421059D02*
X676069D01*
X662182Y417250D02*
X675588D01*
X661250Y421000D02*
X676069D01*
X674000Y417250D02*
Y421059D01*
X675000Y417250D02*
Y421059D01*
X672000Y417250D02*
Y421059D01*
X673000Y417250D02*
Y421059D01*
X661250Y419000D02*
X675259D01*
X661414Y418000D02*
X675331D01*
X661250Y420000D02*
X675481D01*
X670000Y442160D02*
Y446201D01*
X671000Y440842D02*
Y448750D01*
X668000Y443236D02*
Y445076D01*
X669000Y442858D02*
Y445433D01*
X670166Y442000D02*
X671581D01*
X670916Y441000D02*
X671509D01*
X665625Y443375D02*
X666875D01*
X667000Y443373D02*
Y445000D01*
X665000Y443333D02*
Y445008D01*
X664000Y443080D02*
Y445215D01*
X662000Y443682D02*
Y446879D01*
X663000Y442682D02*
Y445750D01*
X666000Y443375D02*
Y445000D01*
X662682Y443000D02*
X663801D01*
X671328Y440000D02*
X671731D01*
X669000Y432858D02*
Y434642D01*
X670000Y432160D02*
Y435340D01*
X668000Y433236D02*
Y434264D01*
X664000Y433080D02*
Y434420D01*
X661000Y436000D02*
X661906D01*
X662000Y431622D02*
Y435878D01*
X661000Y437000D02*
X661344D01*
X661000Y435000D02*
Y438318D01*
X663000Y432558D02*
Y434942D01*
X661000Y430750D02*
Y435000D01*
X662918D01*
X660987Y444695D02*
X663074Y442608D01*
X656000Y438750D02*
Y441838D01*
X650500Y441000D02*
X658318D01*
X659000Y438750D02*
Y440318D01*
X660000Y438750D02*
Y439318D01*
X650500Y440000D02*
X659318D01*
X650500Y439000D02*
X660318D01*
X654000Y438750D02*
Y445000D01*
X655000Y438750D02*
Y442551D01*
X650500Y443000D02*
X654628D01*
X650500Y440250D02*
Y449750D01*
Y439750D02*
Y440250D01*
Y439750D02*
Y440250D01*
Y442000D02*
X655697D01*
X657000Y438750D02*
Y441536D01*
X657805Y441513D02*
X660568Y438750D01*
X652000D02*
Y458922D01*
X653000Y438750D02*
Y457922D01*
X660568Y438750D02*
X661000Y438318D01*
Y430750D02*
Y438318D01*
X651500Y438750D02*
X660568D01*
X658000D02*
Y441318D01*
X651000Y433432D02*
Y449750D01*
X651500Y432932D02*
Y438750D01*
X650500Y438000D02*
X651500D01*
X650500Y433932D02*
Y439750D01*
Y436000D02*
X651500D01*
X650500Y435000D02*
X651500D01*
X650500Y437000D02*
X651500D01*
X667000Y433373D02*
Y434127D01*
X671069Y431000D02*
Y432524D01*
X665625Y434125D02*
X666875D01*
X670166Y432000D02*
X671069D01*
X670594Y426000D02*
X671069D01*
X669582Y425000D02*
X671069D01*
X665625Y433375D02*
X666875D01*
X666000D02*
Y434125D01*
X665000Y433333D02*
Y434167D01*
X661000Y431000D02*
X661584D01*
X661250Y425000D02*
X662918D01*
X665625Y424125D02*
X666875D01*
X661250Y426000D02*
X661906D01*
X671069Y421059D02*
Y426500D01*
X670000Y417250D02*
Y425340D01*
X668000Y417250D02*
Y424264D01*
X669000Y417250D02*
Y424642D01*
X661250Y424000D02*
X671069D01*
X667000Y417250D02*
Y424127D01*
X661250Y423000D02*
X671069D01*
X661250Y422000D02*
X671069D01*
X663000Y417250D02*
Y424942D01*
X664000Y417250D02*
Y424420D01*
X661250Y418750D02*
Y426750D01*
X662000Y417432D02*
Y425878D01*
X665000Y417250D02*
Y424167D01*
X666000Y417250D02*
Y424125D01*
X661592Y417840D02*
X662182Y417250D01*
X661000Y433000D02*
X663801D01*
X661000Y432000D02*
X662334D01*
X656031Y430750D02*
X661000D01*
Y428750D02*
Y430750D01*
X657927Y429000D02*
X661007D01*
X658444Y428000D02*
X661061D01*
X656932Y430000D02*
X661172D01*
X657000Y429932D02*
Y430750D01*
X658000Y428914D02*
Y430750D01*
X650500Y434000D02*
X651500D01*
X650500Y433932D02*
X651500Y432932D01*
X656592Y430340D02*
X657840Y429092D01*
X661000Y426750D02*
Y428750D01*
X658500Y427000D02*
X661344D01*
X658500Y426750D02*
X661250D01*
X658700Y418750D02*
X661250D01*
X659000Y426750D02*
Y430750D01*
X660000Y426750D02*
Y430750D01*
X658500Y426750D02*
Y427500D01*
X658931Y418500D02*
X660000D01*
X661000Y418266D02*
Y418750D01*
X727851Y415000D02*
X729000D01*
X727750Y415101D02*
X727851Y415000D01*
X727750Y415101D02*
Y419750D01*
X723750Y423750D02*
X727750Y419750D01*
X723750Y423750D02*
Y426791D01*
X756250Y421250D02*
Y423750D01*
X750000Y414000D02*
Y415000D01*
X756250Y423750D02*
X763750Y431250D01*
X748750Y420000D02*
X755000D01*
X756250Y421250D01*
X661250Y452500D02*
X672500D01*
X651250Y462500D02*
X661250Y452500D01*
X686250Y470000D02*
X697500D01*
X681250Y475000D02*
X686250Y470000D01*
X681250Y475000D02*
Y476250D01*
X715000Y472500D02*
Y475000D01*
X726250Y470000D02*
X741250D01*
X743750Y467500D01*
X708750Y443750D02*
X726250D01*
X642500Y465000D02*
X645000Y462500D01*
X651250D01*
X726250Y443750D02*
X727500Y445000D01*
X730312D01*
X742500Y426250D02*
X748750Y420000D01*
X738750Y421250D02*
Y426791D01*
Y421250D02*
X740000Y420000D01*
X745000D01*
X750000Y415000D01*
X722500Y473750D02*
X726250Y470000D01*
X722500Y473750D02*
Y475000D01*
X697500Y470000D02*
X698750Y468750D01*
Y463209D02*
Y468750D01*
X705000Y475000D02*
X706250Y473750D01*
X700250Y475000D02*
X705000D01*
X706250Y471250D02*
Y473750D01*
Y471250D02*
X707500Y470000D01*
X712500D01*
X713750Y468750D01*
Y463209D02*
Y468750D01*
X747500Y436250D02*
X758750D01*
D11*
X751250Y426000D02*
D03*
Y414000D02*
D03*
X656250Y422750D02*
D03*
D12*
X712250Y475000D02*
D03*
X700250D02*
D03*
X730250D02*
D03*
X742250D02*
D03*
X741000Y415000D02*
D03*
X729000D02*
D03*
X639000D02*
D03*
D13*
X666250Y448750D02*
D03*
D14*
Y438750D02*
D03*
Y428750D02*
D03*
D15*
Y458750D02*
D03*
D16*
Y468750D02*
D03*
D17*
X651000Y415000D02*
D03*
D18*
X703750Y426791D02*
D03*
X673750D02*
D03*
X678750D02*
D03*
X683750D02*
D03*
X698750D02*
D03*
X708750D02*
D03*
X713750D02*
D03*
X718750D02*
D03*
X673750Y463209D02*
D03*
X678750D02*
D03*
X683750D02*
D03*
X693750D02*
D03*
X698750D02*
D03*
X703750D02*
D03*
X708750D02*
D03*
X713750D02*
D03*
X718750D02*
D03*
X723750Y426791D02*
D03*
X728750D02*
D03*
X733750D02*
D03*
X738750D02*
D03*
X723750Y463209D02*
D03*
X728750D02*
D03*
X733750D02*
D03*
X738750D02*
D03*
X693750Y426791D02*
D03*
X688750D02*
D03*
Y463209D02*
D03*
D19*
X656250Y434750D02*
D03*
D20*
X764750Y462500D02*
Y471000D01*
X730250Y475000D02*
X733750D01*
X767500Y438750D02*
Y441750D01*
X716250Y471250D02*
Y474250D01*
X708750Y475000D02*
X712250D01*
X715750D01*
X767500Y435750D02*
Y438750D01*
X720000Y434750D02*
Y437750D01*
Y434750D02*
X723000D01*
X717000D02*
X720000D01*
X753750Y431000D02*
X759000D01*
X748500D02*
X753750D01*
X764750Y419000D02*
Y427500D01*
X751250Y422500D02*
Y426000D01*
X746750D02*
X751250D01*
X711250Y434750D02*
Y437750D01*
Y434750D02*
X714250D01*
X708250D02*
X711250D01*
X708750Y426791D02*
Y432024D01*
Y421559D02*
Y426791D01*
X695000Y453750D02*
Y456750D01*
X692000Y453750D02*
X695000D01*
Y450750D02*
Y453750D01*
X698000D01*
X666250Y448750D02*
X670500D01*
X639000Y473750D02*
X642000D01*
X639000D02*
Y476750D01*
Y470750D02*
Y473750D01*
X666250Y445500D02*
Y448750D01*
X662000D02*
X666250D01*
X642500Y445000D02*
X650000D01*
X675750Y418750D02*
X678750D01*
D21*
X718750Y421250D02*
X722500Y417500D01*
X718750Y421250D02*
Y426791D01*
X657500Y445000D02*
X663750Y438750D01*
X666250D01*
X712250Y475000D02*
X718750Y468500D01*
X753750Y467500D02*
Y470000D01*
Y467500D02*
X763750Y457500D01*
X696250Y440000D02*
Y441250D01*
X706250Y446250D02*
X708750Y443750D01*
X696250Y441250D02*
X701250Y446250D01*
X706250D01*
X672500Y452500D02*
X685000Y440000D01*
X688750D01*
X678750Y426791D02*
Y433750D01*
X675000Y437500D02*
X678750Y433750D01*
X675000Y437500D02*
Y441250D01*
X730312Y445000D02*
X742500Y432812D01*
Y426250D02*
Y432812D01*
X763750Y431250D02*
Y457500D01*
X688750Y418750D02*
Y426791D01*
X652500Y412500D02*
X688750D01*
X651000Y414000D02*
Y415250D01*
X682500Y415000D02*
X683750Y416250D01*
Y426791D01*
X688750Y412500D02*
X693750Y417500D01*
Y426791D01*
X743500Y476250D02*
X752500D01*
X742250Y475000D02*
X743500Y476250D01*
X718750Y463209D02*
Y468500D01*
X683750Y450000D02*
X688750Y455000D01*
Y463209D01*
X703750Y426791D02*
Y438750D01*
X683750Y463209D02*
Y468750D01*
X672500Y476000D02*
X676500D01*
X683750Y468750D01*
X711250Y447500D02*
X725000D01*
X702500Y417500D02*
X711250D01*
X713750Y420000D01*
Y426791D01*
X666250Y428750D02*
X668209Y426791D01*
X667500Y428750D02*
X673041D01*
X676250Y471250D02*
X678750Y468750D01*
X666250D02*
Y470000D01*
X678750Y463209D02*
Y468750D01*
X666250Y470000D02*
X667500Y471250D01*
X676250D01*
X670709Y463209D02*
X673750D01*
X666250Y458750D02*
X670709Y463209D01*
X651000Y414000D02*
X652500Y412500D01*
X639000Y415000D02*
Y424000D01*
X656250Y416250D02*
X660000D01*
X661250Y415000D01*
X682500D01*
X656250Y422750D02*
Y427500D01*
X655000Y428750D02*
X656250Y427500D01*
X652500Y428750D02*
X655000D01*
X646250Y435000D02*
X652500Y428750D01*
X738750Y456250D02*
Y463209D01*
Y456250D02*
X746000Y449000D01*
X753750D01*
X733750Y453750D02*
X746500Y441000D01*
X733750Y453750D02*
Y463209D01*
X746500Y441000D02*
X753750D01*
X688750Y475000D02*
X700250D01*
X728750Y426791D02*
Y441250D01*
X713750Y457500D02*
Y463209D01*
Y457500D02*
X715000Y456250D01*
X727500D01*
X747500Y436250D01*
X761250Y438750D02*
Y453750D01*
X756000Y459000D02*
X761250Y453750D01*
X753750Y459000D02*
X756000D01*
X758750Y436250D02*
X761250Y438750D01*
D22*
X695000Y453750D02*
D03*
X639000Y473750D02*
D03*
X657500Y445000D02*
D03*
X753750Y470000D02*
D03*
X743750Y467500D02*
D03*
X728750Y475000D02*
D03*
X767500Y438750D02*
D03*
X696250Y440000D02*
D03*
X688750D02*
D03*
X675000Y441250D02*
D03*
X688750Y418750D02*
D03*
X752500Y476250D02*
D03*
X683750Y450000D02*
D03*
X703750Y438750D02*
D03*
X741000Y415000D02*
D03*
X728750Y441250D02*
D03*
X672500Y476250D02*
D03*
X711250Y447500D02*
D03*
X725000D02*
D03*
X656250Y416250D02*
D03*
X657500Y435000D02*
D03*
X720000Y434750D02*
D03*
X711250D02*
D03*
X716250Y471250D02*
D03*
X678750Y418750D02*
D03*
D23*
X702500Y416250D02*
D03*
D24*
X722500D02*
D03*
D25*
X688750Y475000D02*
D03*
X722500D02*
D03*
D26*
X753750Y459000D02*
D03*
Y431000D02*
D03*
D27*
X764750Y471000D02*
D03*
Y419000D02*
D03*
D28*
X753750Y449000D02*
D03*
D29*
Y441000D02*
D03*
D30*
X642500Y425000D02*
D03*
Y465000D02*
D03*
Y455000D02*
D03*
D31*
Y435000D02*
D03*
Y445000D02*
D03*
D32*
X681250Y476250D02*
D03*
M02*
