M48
;Layer_Color=9474304
;FILE_FORMAT=2:5
INCH,LZ
;TYPE=PLATED
T1F00S00C0.02000
T2F00S00C0.03000
T3F00S00C0.04000
T4F00S00C0.09000
%
T01
X06425Y0425
Y0435
Y0445
Y0455
Y0465
X06575Y0445
Y0435
X065625Y041625
X067875Y041875
X068875
Y044
X069625
X070375Y043875
X071125Y043475
X072
X072875Y044125
X0725Y04475
X071125
X0695Y045375
X068375Y045
X0675Y044125
X0741Y0415
X07675Y043875
X074375Y04675
X075375Y047
X07525Y047625
X072875Y0475
X071625Y047125
X068125Y047625
X06725
X0639Y047375
T02
X07025Y041625
X07225
Y0475
X068875
T03
X075375Y0431
Y0441
Y0449
Y0459
T04
X076475Y0419
Y0471
M30
