%FSLAX25Y25*%
%MOIN*%
G70*
G01*
G75*
G04 Layer_Color=32896*
%ADD10C,0.01000*%
%ADD11R,0.03937X0.03347*%
%ADD12R,0.03937X0.03347*%
%ADD13R,0.07000X0.05000*%
%ADD14R,0.05000X0.07000*%
%ADD15R,0.10000X0.05500*%
%ADD16R,0.10000X0.07500*%
%ADD17R,0.06500X0.05000*%
%ADD18R,0.03347X0.03937*%
%ADD19R,0.03347X0.03937*%
%ADD20R,0.05000X0.06500*%
%ADD21R,0.08465X0.02362*%
%ADD22C,0.01250*%
%ADD23C,0.01500*%
%ADD24C,0.02000*%
%ADD25C,0.06500*%
%ADD26O,0.05500X0.08000*%
%ADD27O,0.06250X0.07500*%
%ADD28C,0.07500*%
%ADD29O,0.06500X0.06250*%
%ADD30O,0.06250X0.06500*%
%ADD31O,0.07500X0.07000*%
%ADD32O,0.06500X0.06250*%
%ADD33O,0.06000X0.06500*%
%ADD34O,0.07500X0.10000*%
%ADD35C,0.16000*%
%ADD36O,0.07000X0.10000*%
%ADD37C,0.00787*%
%ADD38C,0.00600*%
D10*
X707500Y307500D02*
Y520000D01*
X610000D02*
X707500D01*
X610000Y307500D02*
Y520000D01*
Y307500D02*
X707500D01*
X686200Y449500D02*
Y452999D01*
X684451D01*
X683867Y452416D01*
Y451249D01*
X684451Y450666D01*
X686200D01*
X685034D02*
X683867Y449500D01*
X682701D02*
X681535D01*
X682118D01*
Y452999D01*
X682701Y452416D01*
X679785Y452999D02*
X677453D01*
Y452416D01*
X679785Y450083D01*
Y449500D01*
X665167Y312874D02*
X666334D01*
X665751D01*
Y309958D01*
X666334Y309375D01*
X666917D01*
X667500Y309958D01*
X664001Y309375D02*
Y312874D01*
X662252D01*
X661668Y312291D01*
Y311124D01*
X662252Y310541D01*
X664001D01*
X660502Y309375D02*
X659336D01*
X659919D01*
Y312874D01*
X660502Y312291D01*
X620625Y509124D02*
Y505625D01*
X618876D01*
X618292Y506208D01*
Y508541D01*
X618876Y509124D01*
X620625D01*
X614793Y505625D02*
X617126D01*
X614793Y507958D01*
Y508541D01*
X615377Y509124D01*
X616543D01*
X617126Y508541D01*
X702500Y430499D02*
Y427000D01*
X700751D01*
X700167Y427583D01*
Y429916D01*
X700751Y430499D01*
X702500D01*
X699001Y427000D02*
X697835D01*
X698418D01*
Y430499D01*
X699001Y429916D01*
X641100Y372399D02*
X638767Y368900D01*
Y372399D02*
X641100Y368900D01*
X637601D02*
X636435D01*
X637018D01*
Y372399D01*
X637601Y371816D01*
X645792Y416624D02*
X646959D01*
X646376D01*
Y413708D01*
X646959Y413125D01*
X647542D01*
X648125Y413708D01*
X644626Y413125D02*
Y416624D01*
X642877D01*
X642294Y416041D01*
Y414874D01*
X642877Y414291D01*
X644626D01*
X641127Y416041D02*
X640544Y416624D01*
X639378D01*
X638795Y416041D01*
Y415458D01*
X639378Y414874D01*
X639961D01*
X639378D01*
X638795Y414291D01*
Y413708D01*
X639378Y413125D01*
X640544D01*
X641127Y413708D01*
X668567Y491999D02*
X669734D01*
X669151D01*
Y489083D01*
X669734Y488500D01*
X670317D01*
X670900Y489083D01*
X667401Y488500D02*
Y491999D01*
X665652D01*
X665068Y491416D01*
Y490249D01*
X665652Y489666D01*
X667401D01*
X661570Y488500D02*
X663902D01*
X661570Y490833D01*
Y491416D01*
X662153Y491999D01*
X663319D01*
X663902Y491416D01*
X615167Y473541D02*
X615751Y474124D01*
X616917D01*
X617500Y473541D01*
Y471208D01*
X616917Y470625D01*
X615751D01*
X615167Y471208D01*
X614001Y474124D02*
X611668D01*
Y473541D01*
X614001Y471208D01*
Y470625D01*
D37*
X628024Y465193D02*
G03*
X628024Y459807I-7399J-2693D01*
G01*
X700416Y421562D02*
G03*
X689584Y421562I-5416J7188D01*
G01*
X612709Y500938D02*
G03*
X623541Y500938I5416J-7188D01*
G01*
X629375Y461250D02*
Y463750D01*
X628125Y462500D02*
X630625D01*
X689687Y421562D02*
X691250D01*
X698750D02*
X700313D01*
X650000Y417500D02*
X652500Y420000D01*
X650000Y410000D02*
Y420000D01*
Y410000D02*
X700000D01*
Y420000D01*
X650000D02*
X700000D01*
X626850Y482050D02*
X705650D01*
X626850Y517950D02*
X705650D01*
Y482050D02*
Y517950D01*
X626850Y482050D02*
Y517950D01*
X656250Y493750D02*
Y517650D01*
X676250Y493750D02*
Y517650D01*
X656250Y493750D02*
X676250D01*
X648750Y348125D02*
Y393125D01*
X628750Y348125D02*
X648750D01*
X628750D02*
Y393125D01*
X648750D01*
X673750Y446250D02*
X688750D01*
Y456250D01*
X673750D02*
X688750D01*
X673750Y446250D02*
Y456250D01*
X612813Y500938D02*
X614375D01*
X621875D02*
X623438D01*
X631250Y246004D02*
X686250D01*
X631250Y332500D02*
X686250D01*
Y246004D02*
Y332500D01*
X631250Y246004D02*
Y332500D01*
M02*
