M48
;Layer_Color=9474304
;FILE_FORMAT=2:5
INCH,LZ
;TYPE=PLATED
T1F00S00C0.03000
T2F00S00C0.04000
T3F00S00C0.09000
%
T01
X0624375Y04625
X063625
X064Y0445
X065
X066125Y04425
X065875Y04525
X066625Y045125
X06975
X0695Y043375
Y042375
X069875Y038875
Y037625
X063875Y0380625
Y0360625
X063375Y047875
X0615Y048
X0618125Y048875
Y049875
T02
X064475Y03275
X065475
X066275
X067275
X0675Y0415
X0665
X0655
X0685
X0695
X068625Y046625
X067625
X066625
X065625
X064625
Y047625
X065625
X066625
X067625
X068625
T03
X063275Y03165
X068475
M30
