%FSLAX25Y25*%
%MOIN*%
G70*
G01*
G75*
G04 Layer_Physical_Order=1*
G04 Layer_Color=255*
%ADD10C,0.01000*%
%ADD11R,0.03937X0.03347*%
%ADD12R,0.03937X0.03347*%
%ADD13R,0.07000X0.05000*%
%ADD14R,0.05000X0.07000*%
%ADD15R,0.10000X0.05500*%
%ADD16R,0.10000X0.07500*%
%ADD17R,0.06500X0.05000*%
%ADD18R,0.03347X0.03937*%
%ADD19R,0.03347X0.03937*%
%ADD20R,0.05000X0.06500*%
%ADD21R,0.08465X0.02362*%
%ADD22C,0.01250*%
%ADD23C,0.01500*%
%ADD24C,0.02000*%
%ADD25C,0.06500*%
%ADD26O,0.05500X0.08000*%
%ADD27O,0.06250X0.07500*%
%ADD28C,0.07500*%
%ADD29O,0.06500X0.06250*%
%ADD30O,0.06250X0.06500*%
%ADD31O,0.07500X0.07000*%
%ADD32O,0.06500X0.06250*%
%ADD33O,0.06000X0.06500*%
%ADD34O,0.07500X0.10000*%
%ADD35C,0.16000*%
%ADD36O,0.07000X0.10000*%
D10*
X613375Y333000D02*
G03*
X614071Y331321I2375J0D01*
G01*
X613375Y333000D02*
G03*
X614071Y331321I2375J0D01*
G01*
X616821Y328571D02*
G03*
X618500Y327875I1679J1679D01*
G01*
X616821Y328571D02*
G03*
X618500Y327875I1679J1679D01*
G01*
X629750Y325777D02*
G03*
X625899Y309562I3000J-9277D01*
G01*
D02*
G03*
X625000Y309750I-899J-2063D01*
G01*
X638499Y308625D02*
G03*
X642500Y316500I-5749J7875D01*
G01*
D02*
G03*
X637946Y324750I-9750J0D01*
G01*
X639459D02*
G03*
X645853Y320862I5291J1500D01*
G01*
X649835Y330846D02*
G03*
X640250Y331912I-5085J-2096D01*
G01*
X640000Y333750D02*
G03*
X641768Y334482I0J2500D01*
G01*
X640000Y333750D02*
G03*
X641768Y334482I0J2500D01*
G01*
X657321Y309571D02*
G03*
X659000Y308875I1679J1679D01*
G01*
X657321Y309571D02*
G03*
X659000Y308875I1679J1679D01*
G01*
X656747Y333856D02*
G03*
X649835Y330846I-1997J-4856D01*
G01*
X657000Y321257D02*
G03*
X658856Y322729I-2250J4743D01*
G01*
D02*
G03*
X660500Y321507I3894J3521D01*
G01*
X641171Y365000D02*
G03*
X634659Y357750I-2421J-4375D01*
G01*
X644482Y365732D02*
G03*
X646250Y365000I1768J1768D01*
G01*
X644482Y365732D02*
G03*
X646250Y365000I1768J1768D01*
G01*
X644268Y373018D02*
G03*
X642750Y373738I-1768J-1768D01*
G01*
X643750Y380625D02*
G03*
X635924Y376500I-5000J0D01*
G01*
X641576D02*
G03*
X643750Y380625I-2826J4125D01*
G01*
X644268Y373018D02*
G03*
X642750Y373738I-1768J-1768D01*
G01*
X657500Y336250D02*
G03*
X659731Y337623I0J2500D01*
G01*
X660518Y354268D02*
G03*
X659024Y354985I-1768J-1768D01*
G01*
X660518Y354268D02*
G03*
X659024Y354985I-1768J-1768D01*
G01*
X659024Y375141D02*
G03*
X660429Y375821I-274J2359D01*
G01*
X659024Y375141D02*
G03*
X660429Y375821I-274J2359D01*
G01*
X620821Y384571D02*
G03*
X622250Y383888I1679J1679D01*
G01*
X620821Y384571D02*
G03*
X622250Y383888I1679J1679D01*
G01*
X614071Y468679D02*
G03*
X613375Y467000I1679J-1679D01*
G01*
X614071Y468679D02*
G03*
X613375Y467000I1679J-1679D01*
G01*
X614182Y485675D02*
G03*
X612375Y484905I818J-4425D01*
G01*
Y475095D02*
G03*
X617625Y475095I2625J3655D01*
G01*
X618125Y493750D02*
G03*
X614182Y485675I0J-5000D01*
G01*
X615244Y502837D02*
G03*
X618125Y493750I2881J-4087D01*
G01*
X621260Y492645D02*
G03*
X618125Y493750I-3135J-3895D01*
G01*
D02*
G03*
X621260Y494855I0J5000D01*
G01*
X623028Y515508D02*
G03*
X621494Y516229I-1768J-1768D01*
G01*
X623028Y515508D02*
G03*
X621494Y516229I-1768J-1768D01*
G01*
X624823Y513423D02*
G03*
X624268Y514268I-2323J-923D01*
G01*
X624823Y513423D02*
G03*
X624268Y514268I-2323J-923D01*
G01*
X625000Y517750D02*
G03*
X626414Y518250I0J2250D01*
G01*
X635142Y445533D02*
G03*
X635125Y445125I4858J-408D01*
G01*
Y444875D02*
G03*
X642831Y440906I4875J0D01*
G01*
X643083Y448902D02*
G03*
X642750Y449150I-3083J-3777D01*
G01*
X642831Y440906D02*
G03*
X643321Y440196I2169J969D01*
G01*
X644571Y385821D02*
G03*
X646250Y385125I1679J1679D01*
G01*
X642831Y440906D02*
G03*
X643321Y440196I2169J969D01*
G01*
Y449179D02*
G03*
X643083Y448902I1679J-1679D01*
G01*
X643321Y449179D02*
G03*
X643083Y448902I1679J-1679D01*
G01*
X644571Y385821D02*
G03*
X646250Y385125I1679J1679D01*
G01*
X648125Y457625D02*
G03*
X649804Y458321I0J2375D01*
G01*
X648125Y457625D02*
G03*
X649804Y458321I0J2375D01*
G01*
X655125Y460000D02*
G03*
X653446Y459304I0J-2375D01*
G01*
X655125Y460000D02*
G03*
X653446Y459304I0J-2375D01*
G01*
X651250Y478541D02*
G03*
X642500Y480273I-5000J-2291D01*
G01*
X643018Y485107D02*
G03*
X643750Y486875I-1768J1768D01*
G01*
X643018Y485107D02*
G03*
X643750Y486875I-1768J1768D01*
G01*
X650982Y488232D02*
G03*
X652750Y487500I1768J1768D01*
G01*
X653174Y461690D02*
G03*
X661250Y463959I3076J4560D01*
G01*
Y478541D02*
G03*
X651250Y478541I-5000J-2291D01*
G01*
X650982Y488232D02*
G03*
X652750Y487500I1768J1768D01*
G01*
X655732Y513018D02*
G03*
X655013Y511500I1768J-1768D01*
G01*
X655732Y513018D02*
G03*
X655013Y511500I1768J-1768D01*
G01*
X668750Y308875D02*
G03*
X670429Y309571I0J2375D01*
G01*
X668750Y308875D02*
G03*
X670429Y309571I0J2375D01*
G01*
X666663Y322750D02*
G03*
X667761Y324685I-3913J3500D01*
G01*
Y330315D02*
G03*
X667338Y331302I-5011J-1565D01*
G01*
X667761Y324685D02*
G03*
X671957Y321557I4989J2316D01*
G01*
D02*
G03*
X671375Y320000I1793J-1558D01*
G01*
X671957Y321557D02*
G03*
X671375Y320000I1793J-1558D01*
G01*
X678250Y328000D02*
G03*
X667761Y330315I-5500J0D01*
G01*
X692500Y309750D02*
G03*
X691601Y309562I0J-2250D01*
G01*
X675234Y314375D02*
G03*
X679001Y308625I9516J2125D01*
G01*
X691601Y309562D02*
G03*
X693500Y312199I-6851J6938D01*
G01*
X694342Y318250D02*
G03*
X689526Y325000I-9592J-1750D01*
G01*
X681250Y330000D02*
G03*
X679019Y328627I0J-2500D01*
G01*
X661127Y339019D02*
G03*
X662500Y341250I-1127J2231D01*
G01*
X668750Y345000D02*
G03*
X666519Y343627I0J-2500D01*
G01*
X662500Y351250D02*
G03*
X661768Y353018I-2500J0D01*
G01*
X662500Y351250D02*
G03*
X661768Y353018I-2500J0D01*
G01*
X661679Y377071D02*
G03*
X662375Y378750I-1679J1679D01*
G01*
X661679Y377071D02*
G03*
X662375Y378750I-1679J1679D01*
G01*
X662500Y382500D02*
G03*
X663232Y380732I2500J0D01*
G01*
X662500Y382500D02*
G03*
X663232Y380732I2500J0D01*
G01*
X677625Y398750D02*
G03*
X677700Y398159I2375J0D01*
G01*
X677625Y398750D02*
G03*
X677700Y398159I2375J0D01*
G01*
X678232Y365732D02*
G03*
X680000Y365000I1768J1768D01*
G01*
X678232Y365732D02*
G03*
X680000Y365000I1768J1768D01*
G01*
X697071Y331679D02*
G03*
X696388Y330250I1679J-1679D01*
G01*
X697071Y331679D02*
G03*
X696388Y330250I1679J-1679D01*
G01*
X695000Y335000D02*
G03*
X696768Y335732I0J2500D01*
G01*
X695000Y335000D02*
G03*
X696768Y335732I0J2500D01*
G01*
X698018Y349268D02*
G03*
X696250Y350000I-1768J-1768D01*
G01*
X698018Y349268D02*
G03*
X696250Y350000I-1768J-1768D01*
G01*
X699268Y338232D02*
G03*
X700000Y340000I-1768J1768D01*
G01*
X699268Y338232D02*
G03*
X700000Y340000I-1768J1768D01*
G01*
Y346250D02*
G03*
X699268Y348018I-2500J0D01*
G01*
X700000Y346250D02*
G03*
X699268Y348018I-2500J0D01*
G01*
X704179Y332071D02*
G03*
X704875Y333750I-1679J1679D01*
G01*
X704179Y332071D02*
G03*
X704875Y333750I-1679J1679D01*
G01*
X695441Y372592D02*
G03*
X703500Y376000I3309J3408D01*
G01*
X695000Y400000D02*
G03*
X695441Y400039I0J2500D01*
G01*
X695000Y400000D02*
G03*
X695441Y400039I0J2500D01*
G01*
D02*
G03*
X696768Y400732I-441J2461D01*
G01*
X695441Y400039D02*
G03*
X696768Y400732I-441J2461D01*
G01*
X702500Y391915D02*
G03*
X695441Y392408I-3750J-2915D01*
G01*
X700429Y369179D02*
G03*
X698750Y369875I-1679J-1679D01*
G01*
X700429Y369179D02*
G03*
X698750Y369875I-1679J-1679D01*
G01*
X704875Y363750D02*
G03*
X704179Y365429I-2375J0D01*
G01*
X704875Y363750D02*
G03*
X704179Y365429I-2375J0D01*
G01*
X699268Y403232D02*
G03*
X700000Y405000I-1768J1768D01*
G01*
X699268Y403232D02*
G03*
X700000Y405000I-1768J1768D01*
G01*
X703500Y376500D02*
G03*
X701961Y380000I-4750J0D01*
G01*
X702500D02*
G03*
X704268Y380732I0J2500D01*
G01*
X702500Y380000D02*
G03*
X704268Y380732I0J2500D01*
G01*
X661875Y462375D02*
G03*
X660196Y461679I0J-2375D01*
G01*
X661875Y462375D02*
G03*
X660196Y461679I0J-2375D01*
G01*
X661250Y463959D02*
G03*
X662347Y462375I5000J2291D01*
G01*
X672375Y410267D02*
G03*
X677625Y410267I2625J4108D01*
G01*
X671250Y478541D02*
G03*
X661250Y478541I-5000J-2291D01*
G01*
X681250D02*
G03*
X671250Y478541I-5000J-2291D01*
G01*
X661526Y487500D02*
G03*
X663293Y488232I0J2500D01*
G01*
X661526Y487500D02*
G03*
X663293Y488232I0J2500D01*
G01*
X677791Y419622D02*
G03*
X676684Y420200I-2791J-3997D01*
G01*
D02*
G03*
X677375Y421875I-1684J1675D01*
G01*
X676684Y420200D02*
G03*
X677375Y421875I-1684J1675D01*
G01*
X678321Y420429D02*
G03*
X677791Y419622I1679J-1679D01*
G01*
X678321Y420429D02*
G03*
X677791Y419622I1679J-1679D01*
G01*
X679760Y487510D02*
G03*
X681528Y488242I0J2500D01*
G01*
X679760Y487510D02*
G03*
X681528Y488242I0J2500D01*
G01*
X662750Y498763D02*
G03*
X664268Y499482I-250J2488D01*
G01*
X662750Y498763D02*
G03*
X664268Y499482I-250J2488D01*
G01*
X665518Y500732D02*
G03*
X666250Y502500I-1768J1768D01*
G01*
X665518Y500732D02*
G03*
X666250Y502500I-1768J1768D01*
G01*
X661250Y517500D02*
G03*
X659482Y516768I0J-2500D01*
G01*
X661250Y517500D02*
G03*
X659482Y516768I0J-2500D01*
G01*
X671482D02*
G03*
X669714Y517500I-1768J-1768D01*
G01*
X671482Y516768D02*
G03*
X669714Y517500I-1768J-1768D01*
G01*
X689761Y416674D02*
G03*
X684568Y420481I-4761J-1049D01*
G01*
D02*
G03*
X684625Y421000I-2317J519D01*
G01*
X684568Y420481D02*
G03*
X684625Y421000I-2317J519D01*
G01*
X700500Y415000D02*
G03*
X697897Y419675I-5500J0D01*
G01*
X692103D02*
G03*
X689761Y416674I2897J-4675D01*
G01*
X695000Y428750D02*
G03*
X692103Y419675I0J-5000D01*
G01*
X697897D02*
G03*
X700000Y423750I-2897J4075D01*
G01*
D02*
G03*
X695000Y428750I-5000J0D01*
G01*
X690159Y432500D02*
G03*
X695000Y428750I4841J1250D01*
G01*
D02*
G03*
X700000Y433750I0J5000D01*
G01*
D02*
G03*
X698000Y437750I-5000J0D01*
G01*
X700000Y412709D02*
G03*
X700500Y415000I-5000J2291D01*
G01*
X698000Y446389D02*
G03*
X702500Y451250I-375J4861D01*
G01*
X691149Y478750D02*
G03*
X681250Y478541I-4899J-2500D01*
G01*
X691250Y483474D02*
G03*
X691982Y481707I2500J0D01*
G01*
X691250Y483474D02*
G03*
X691982Y481707I2500J0D01*
G01*
X687750Y513750D02*
G03*
X685982Y513018I0J-2500D01*
G01*
X687750Y513750D02*
G03*
X685982Y513018I0J-2500D01*
G01*
X691086Y518250D02*
G03*
X692500Y517750I1414J1750D01*
G01*
X700500Y462500D02*
G03*
X699804Y464179I-2375J0D01*
G01*
X702500Y451250D02*
G03*
X700500Y455187I-4875J0D01*
G01*
Y462500D02*
G03*
X699804Y464179I-2375J0D01*
G01*
X700518Y513018D02*
G03*
X698750Y513750I-1768J-1768D01*
G01*
X700518Y513018D02*
G03*
X698750Y513750I-1768J-1768D01*
G01*
X610000Y520000D02*
X625000D01*
X610000Y505000D02*
Y520000D01*
X707500Y505000D02*
Y520000D01*
X692500D02*
X707500D01*
X692500Y307500D02*
X707500D01*
Y322500D01*
X610000Y307500D02*
Y322500D01*
Y307500D02*
X625000D01*
X612375Y314000D02*
X623326D01*
X612375Y316000D02*
X623013D01*
X612375Y315000D02*
X623116D01*
X612375Y317000D02*
X623013D01*
X612375Y326000D02*
X619750D01*
X612375Y327000D02*
X619750D01*
X612375Y328000D02*
X617740D01*
X612375Y330000D02*
X615391D01*
X612375Y329000D02*
X616391D01*
X614000Y309750D02*
Y331394D01*
X615000Y309750D02*
Y330391D01*
X616000Y309750D02*
Y329391D01*
X614071Y331321D02*
X616821Y328571D01*
X612375Y309750D02*
X625000D01*
X612375Y311000D02*
X624699D01*
X612375Y310000D02*
X625483D01*
X612375Y312000D02*
X624101D01*
X612375Y318000D02*
X623116D01*
X612375Y313000D02*
X623650D01*
X612375Y319000D02*
X623326D01*
X612375Y320000D02*
X623650D01*
X612375Y321000D02*
X624101D01*
X612375Y322000D02*
X624699D01*
X612375Y323000D02*
X625483D01*
X612375Y324000D02*
X626520D01*
X612375Y325000D02*
X627974D01*
X612375Y333000D02*
X613375D01*
X612375Y334000D02*
X613375D01*
X612375Y335000D02*
X613375D01*
X612375Y336000D02*
X613375D01*
X612375Y337000D02*
X613375D01*
X612375Y338000D02*
X613375D01*
X612375Y339000D02*
X613375D01*
X612375Y340000D02*
X613375D01*
X612375Y341000D02*
X613375D01*
X612375Y342000D02*
X613375D01*
X612375Y343000D02*
X613375D01*
X612375Y344000D02*
X613375D01*
X612375Y345000D02*
X613375D01*
X612375Y331000D02*
X614391D01*
X612375Y346000D02*
X613375D01*
X612375Y332000D02*
X613596D01*
X612375Y347000D02*
X613375D01*
X612375Y348000D02*
X613375D01*
X612375Y349000D02*
X613375D01*
X612375Y350000D02*
X613375D01*
X612375Y351000D02*
X613375D01*
X612375Y352000D02*
X613375D01*
X612375Y353000D02*
X613375D01*
X612375Y354000D02*
X613375D01*
X620000Y309750D02*
Y326000D01*
X621000Y309750D02*
Y326000D01*
X622000Y309750D02*
Y326000D01*
X623000Y309750D02*
Y316500D01*
Y326000D01*
X624000Y309750D02*
Y312199D01*
X617000Y309750D02*
Y328409D01*
X618000Y309750D02*
Y327928D01*
X619000Y309750D02*
Y327875D01*
X619750Y326000D02*
Y327875D01*
X618500D02*
X619750D01*
X624000Y320801D02*
Y326000D01*
X625000Y309750D02*
Y310584D01*
Y322416D02*
Y326000D01*
X626000Y323536D02*
Y326000D01*
X627000Y324374D02*
Y326000D01*
X619750D02*
X629750D01*
X628000Y325015D02*
Y326000D01*
X629000Y325500D02*
Y326000D01*
X630250Y333250D02*
Y333750D01*
X631000Y333250D02*
Y333750D01*
X620750Y346500D02*
X626965D01*
X623000D02*
Y347250D01*
X624000Y346500D02*
Y347250D01*
X625000Y346500D02*
Y347250D01*
X626000Y346500D02*
Y347250D01*
X627000Y346535D02*
Y347250D01*
X620750Y348000D02*
X622250D01*
X620750Y349000D02*
X622250D01*
X620750Y350000D02*
X622250D01*
X620750Y351000D02*
X622250D01*
X620750Y352000D02*
X622250D01*
X620750Y353000D02*
X622250D01*
X626965Y346500D02*
X627714Y347250D01*
X620750Y347000D02*
X627464D01*
X622250Y347250D02*
X627714D01*
X632000Y333250D02*
Y333750D01*
X633000Y333250D02*
Y333750D01*
X634000Y333250D02*
Y333750D01*
X630750Y348750D02*
X634250D01*
X630750Y349000D02*
X634250D01*
X630750Y350000D02*
X634250D01*
X630750Y351000D02*
X634250D01*
X630750Y352000D02*
X634250D01*
X630750Y353000D02*
X634250D01*
X612375Y355000D02*
X613375D01*
X612375Y356000D02*
X613375D01*
X612375Y357000D02*
X613375D01*
X612375Y358000D02*
X613375D01*
X612375Y359000D02*
X613375D01*
X612375Y360000D02*
X613375D01*
X612375Y361000D02*
X613375D01*
X612375Y362000D02*
X613375D01*
X612375Y363000D02*
X613375D01*
X612375Y309750D02*
Y475095D01*
X613000Y309750D02*
Y474719D01*
X613375Y333000D02*
Y467000D01*
X612375Y364000D02*
X613375D01*
X620750Y354000D02*
X622250D01*
X620750Y355000D02*
X622250D01*
X620750Y356000D02*
X622250D01*
X620750Y357000D02*
X622250D01*
X620750Y359000D02*
X634021D01*
X620750Y358000D02*
X634494D01*
X620750Y360000D02*
X633789D01*
X612375Y365000D02*
X613375D01*
X612375Y366000D02*
X613375D01*
X620750Y361000D02*
X633764D01*
X620750Y362000D02*
X633943D01*
X620750Y366000D02*
X622250D01*
X620750Y363000D02*
X634350D01*
X612375Y367000D02*
X613375D01*
X612375Y368000D02*
X613375D01*
X612375Y369000D02*
X613375D01*
X612375Y370000D02*
X613375D01*
X612375Y371000D02*
X613375D01*
X612375Y372000D02*
X613375D01*
X612375Y373000D02*
X613375D01*
X612375Y374000D02*
X613375D01*
X612375Y375000D02*
X613375D01*
X612375Y376000D02*
X613375D01*
X612375Y377000D02*
X613375D01*
X612375Y378000D02*
X613375D01*
X612375Y379000D02*
X613375D01*
X620750Y367000D02*
X622250D01*
X620750Y368000D02*
X622250D01*
X620750Y369000D02*
X622250D01*
X620750Y370000D02*
X622250D01*
X620750Y371000D02*
X622250D01*
X620750Y372000D02*
X622250D01*
X620750Y373000D02*
X622250D01*
X612375Y380000D02*
X613375D01*
X620750Y374000D02*
X622250D01*
X620750Y375000D02*
X622250D01*
X620750Y376000D02*
X622250D01*
X620750Y377000D02*
X622250D01*
X620750Y378000D02*
X622250D01*
Y347250D02*
Y357750D01*
X623000D02*
Y366000D01*
X624000Y357750D02*
Y366000D01*
X625000Y357750D02*
Y366000D01*
X626000Y357750D02*
Y366000D01*
X620750Y346500D02*
Y384641D01*
X621000Y346500D02*
Y384409D01*
X622000Y346500D02*
Y383928D01*
X627000Y357750D02*
Y366000D01*
X628000Y357750D02*
Y366000D01*
X629000Y357750D02*
Y366000D01*
X630000Y357750D02*
Y366000D01*
X630750Y354000D02*
X634250D01*
X622250Y357750D02*
X630750D01*
Y355000D02*
X634250D01*
X630750Y348750D02*
Y357750D01*
Y356000D02*
X634250D01*
X630750Y357000D02*
X634250D01*
X631000Y348750D02*
Y376000D01*
X622250Y366000D02*
X630750D01*
X632000Y348750D02*
Y376000D01*
X633000Y348750D02*
Y382141D01*
X634000Y348750D02*
Y359064D01*
Y362186D02*
Y379064D01*
X634250Y348750D02*
Y357750D01*
X622250Y366000D02*
X630750D01*
X622250D02*
Y376000D01*
X630750Y366000D02*
Y376000D01*
X622250D02*
Y376500D01*
Y376000D02*
Y376500D01*
X620750Y379000D02*
X622250D01*
X630750Y376000D02*
X632750D01*
X630750D02*
X632750D01*
X622250Y376500D02*
Y383888D01*
X632750Y376000D02*
Y381891D01*
X630750Y366000D02*
X634250D01*
X630750Y367000D02*
X634250D01*
X630750Y368000D02*
X634250D01*
X630750Y369000D02*
X634250D01*
X630750Y370000D02*
X634250D01*
X630750Y371000D02*
X634250D01*
X630750Y372000D02*
X634250D01*
X630750Y373000D02*
X634250D01*
X630750Y374000D02*
X634250D01*
X630750Y375000D02*
X634250D01*
Y366000D02*
Y376500D01*
X632750Y376000D02*
X634250D01*
X632750Y379000D02*
X634021D01*
X632750Y378000D02*
X634494D01*
X639000Y308625D02*
Y309017D01*
X640000Y308625D02*
Y309981D01*
X641000Y308625D02*
Y311304D01*
X642000Y308625D02*
Y313418D01*
X641000Y321696D02*
Y322227D01*
X643000Y308625D02*
Y321036D01*
X644000Y308625D02*
Y320801D01*
X642000Y319582D02*
Y321487D01*
X641399Y321000D02*
X643111D01*
X638499Y308625D02*
X679001D01*
X640017Y310000D02*
X656891D01*
X638980Y309000D02*
X658240D01*
X640801Y311000D02*
X655891D01*
X641850Y313000D02*
X648500D01*
X641399Y312000D02*
X654891D01*
X642174Y314000D02*
X648500D01*
X641850Y320000D02*
X646714D01*
X642384Y315000D02*
X648500D01*
X642487Y316000D02*
X648500D01*
X642487Y317000D02*
X648500D01*
X642174Y319000D02*
X647715D01*
X642384Y318000D02*
X648500D01*
X638980Y324000D02*
X639731D01*
X637946Y324750D02*
X639459D01*
X640000Y323019D02*
Y323477D01*
X639000Y323983D02*
Y324750D01*
X640250Y331912D02*
Y333250D01*
X635000D02*
Y333750D01*
X636000Y333250D02*
Y333750D01*
X630250D02*
X640000D01*
X637000Y333250D02*
Y333750D01*
X638000Y333250D02*
Y333750D01*
X639000Y333250D02*
Y333750D01*
X640000Y333250D02*
Y333750D01*
X630250Y333250D02*
X640250D01*
Y333000D02*
X641259D01*
X640801Y322000D02*
X641259D01*
X641000Y332773D02*
Y333959D01*
X641090Y334000D02*
X643111D01*
X641768Y334482D02*
X643536Y336250D01*
X642000Y333513D02*
Y334715D01*
X643000Y333964D02*
Y335715D01*
X642285Y335000D02*
X657891D01*
X643286Y336000D02*
X658891D01*
X649000Y308625D02*
Y312250D01*
X650000Y308625D02*
Y312250D01*
X651000Y308625D02*
Y312250D01*
X652000Y308625D02*
Y312250D01*
X653000Y308625D02*
Y312250D01*
X655000Y308625D02*
Y311891D01*
X645000Y308625D02*
Y320756D01*
X646000Y308625D02*
Y320714D01*
X647000Y308625D02*
Y319714D01*
X648000Y308625D02*
Y318714D01*
X654000Y308625D02*
Y312250D01*
X648500D02*
Y318215D01*
Y312250D02*
X654641D01*
X656000Y308625D02*
Y310891D01*
X657000Y308625D02*
Y309891D01*
X658000Y308625D02*
Y309096D01*
X659000Y308875D02*
X668750D01*
X654641Y312250D02*
X657321Y309571D01*
X657000Y316609D02*
Y321257D01*
Y316609D02*
X659984Y313625D01*
X659000Y314609D02*
Y322576D01*
X658609Y315000D02*
X660500D01*
X658000Y315609D02*
Y321877D01*
X657609Y316000D02*
X660500D01*
X645853Y320862D02*
X648500Y318215D01*
X644000Y334199D02*
Y336250D01*
X645000Y334244D02*
Y336250D01*
X649187Y332000D02*
X650442D01*
X648241Y333000D02*
X651350D01*
X646389Y334000D02*
X653149D01*
X648000Y333187D02*
Y336250D01*
X646000Y334106D02*
Y336250D01*
X647000Y333769D02*
Y336250D01*
X649000Y332241D02*
Y336250D01*
X650000Y331236D02*
Y336250D01*
X651000Y332674D02*
Y336250D01*
X652000Y333472D02*
Y336250D01*
X657000Y317000D02*
X660500D01*
X657000Y318000D02*
X660500D01*
X657000Y319000D02*
X660500D01*
X657000Y316609D02*
Y321257D01*
Y320000D02*
X660500D01*
X658150Y322000D02*
X659668D01*
X657000Y321000D02*
X660500D01*
X653000Y333950D02*
Y336250D01*
X654000Y334196D02*
Y336250D01*
X655000Y334244D02*
Y336250D01*
X656351Y334000D02*
X656891D01*
X620750Y364000D02*
X635061D01*
X620750Y365000D02*
X636329D01*
X634250Y357750D02*
X634659D01*
X635000Y363932D02*
Y366000D01*
X636000Y364801D02*
Y366000D01*
X637000Y365309D02*
Y366000D01*
X638000Y365568D02*
Y366000D01*
X639000Y365619D02*
Y366000D01*
X641000Y365090D02*
Y366000D01*
X642000Y365000D02*
Y366000D01*
X640000Y365466D02*
Y366000D01*
X643000Y365000D02*
Y367214D01*
X643536Y336250D02*
X657500D01*
X641171Y365000D02*
X646250D01*
X641171D02*
X646250D01*
X645000D02*
Y365335D01*
X646250Y365000D02*
X647059D01*
X646250D02*
X647059D01*
X634250Y366000D02*
X642750D01*
X634250D02*
X642750D01*
X644214D01*
X644000Y365000D02*
Y366214D01*
X642750Y367464D02*
X644482Y365732D01*
X642750Y367000D02*
X643215D01*
X634250Y376500D02*
X635924D01*
X641576D02*
X642750D01*
Y366000D02*
Y367464D01*
Y373738D02*
Y376500D01*
X635000D02*
Y377318D01*
X632750Y377000D02*
X635306D01*
X643000Y373699D02*
Y377991D01*
X644000Y373250D02*
Y386391D01*
X642000Y376500D02*
Y376825D01*
X642750Y374000D02*
X647059D01*
X642750Y375000D02*
X647059D01*
X644268Y373018D02*
X647059Y370227D01*
X646285Y371000D02*
X647059D01*
X645286Y372000D02*
X647059D01*
X644285Y373000D02*
X647059D01*
X642750Y376000D02*
X647059D01*
X642194Y377000D02*
X647059D01*
X643006Y378000D02*
X647059D01*
X646000Y371286D02*
Y385138D01*
X647000Y370286D02*
Y385125D01*
X645000Y372286D02*
Y385481D01*
X643479Y379000D02*
X647059D01*
X656000Y334099D02*
Y336250D01*
X657000Y334109D02*
Y336250D01*
X658000Y335109D02*
Y336300D01*
X659000Y336109D02*
Y336750D01*
X659024Y354985D02*
Y355431D01*
Y354985D02*
Y355431D01*
Y360431D01*
X659024Y359569D02*
Y360431D01*
Y364569D01*
Y365431D01*
Y364569D02*
Y365431D01*
X656747Y333856D02*
X666519Y343627D01*
X659024Y355000D02*
X683476D01*
X659024Y356000D02*
X683476D01*
X659024Y357000D02*
X683476D01*
X659024Y358000D02*
X683476D01*
X659024Y359000D02*
X683476D01*
X659024Y360000D02*
X683476D01*
X659024Y361000D02*
X683476D01*
X659024Y362000D02*
X683476D01*
X659024Y363000D02*
X683476D01*
X659024Y365000D02*
X680000D01*
X659024Y364000D02*
X683476D01*
X647059Y370227D02*
X647286Y370000D01*
X659024Y365431D02*
Y369569D01*
Y370431D01*
Y369569D02*
Y370431D01*
X647059D02*
Y374569D01*
Y375431D01*
Y374569D02*
Y375431D01*
Y379569D01*
X659024Y370431D02*
Y374569D01*
X647059Y379569D02*
Y380431D01*
Y379569D02*
Y380431D01*
X659024Y366000D02*
X677964D01*
X659024Y368000D02*
X675964D01*
X659024Y367000D02*
X676965D01*
X659024Y370000D02*
X673965D01*
X659024Y369000D02*
X674965D01*
X659024Y372000D02*
X671965D01*
X659024Y371000D02*
X672964D01*
X659024Y373000D02*
X670964D01*
X659024Y375000D02*
X668964D01*
X659024Y374000D02*
X669965D01*
X659024Y374569D02*
Y375141D01*
Y374569D02*
Y375141D01*
X612375Y381000D02*
X613375D01*
X612375Y382000D02*
X613375D01*
X612375Y383000D02*
X613375D01*
X612375Y384000D02*
X613375D01*
X612375Y385000D02*
X613375D01*
X612375Y386000D02*
X613375D01*
X612375Y387000D02*
X613375D01*
X612375Y388000D02*
X613375D01*
X612375Y389000D02*
X613375D01*
X612375Y390000D02*
X613375D01*
X612375Y391000D02*
X613375D01*
X612375Y392000D02*
X613375D01*
X612375Y393000D02*
X613375D01*
X612375Y394000D02*
X613375D01*
X612375Y395000D02*
X613375D01*
X612375Y396000D02*
X613375D01*
X612375Y397000D02*
X613375D01*
X612375Y398000D02*
X613375D01*
X612375Y399000D02*
X613375D01*
X612375Y400000D02*
X613375D01*
X612375Y401000D02*
X613375D01*
X612375Y402000D02*
X613375D01*
X612375Y403000D02*
X613375D01*
X612375Y404000D02*
X613375D01*
X612375Y405000D02*
X613375D01*
X612375Y406000D02*
X613375D01*
X612375Y407000D02*
X613375D01*
X612375Y408000D02*
X613375D01*
X612375Y409000D02*
X613375D01*
X612375Y410000D02*
X613375D01*
X612375Y411000D02*
X613375D01*
X612375Y412000D02*
X613375D01*
X612375Y413000D02*
X613375D01*
X612375Y414000D02*
X613375D01*
X612375Y415000D02*
X613375D01*
X612375Y416000D02*
X613375D01*
X612375Y417000D02*
X613375D01*
X612375Y418000D02*
X613375D01*
X612375Y419000D02*
X613375D01*
X612375Y420000D02*
X613375D01*
X612375Y421000D02*
X613375D01*
X612375Y422000D02*
X613375D01*
X612375Y423000D02*
X613375D01*
X612375Y424000D02*
X613375D01*
X612375Y425000D02*
X613375D01*
X612375Y426000D02*
X613375D01*
X612375Y427000D02*
X613375D01*
X612375Y428000D02*
X613375D01*
X612375Y429000D02*
X613375D01*
X612375Y430000D02*
X613375D01*
X612375Y431000D02*
X613375D01*
X612375Y432000D02*
X613375D01*
X612375Y433000D02*
X613375D01*
X612375Y434000D02*
X613375D01*
X612375Y435000D02*
X613375D01*
X612375Y436000D02*
X613375D01*
X612375Y437000D02*
X613375D01*
X612375Y438000D02*
X613375D01*
X612375Y439000D02*
X613375D01*
X612375Y440000D02*
X613375D01*
X612375Y441000D02*
X613375D01*
X612375Y442000D02*
X613375D01*
X612375Y443000D02*
X613375D01*
X612375Y444000D02*
X613375D01*
X612375Y445000D02*
X613375D01*
X620750Y380000D02*
X622250D01*
X620750Y381000D02*
X622250D01*
X620750Y382000D02*
X622250D01*
X632750Y380000D02*
X633789D01*
X632750Y381000D02*
X633764D01*
X632859Y382000D02*
X633943D01*
X620750Y383000D02*
X622250D01*
X620750Y384000D02*
X621740D01*
X631125Y436500D02*
Y441516D01*
X632000Y436500D02*
Y442391D01*
X633000Y436500D02*
Y443391D01*
X612375Y446000D02*
X613375D01*
X612375Y447000D02*
X613375D01*
X612375Y448000D02*
X613375D01*
X612375Y449000D02*
X613375D01*
X612375Y450000D02*
X613375D01*
X612375Y451000D02*
X613375D01*
X612375Y452000D02*
X613375D01*
X612375Y453000D02*
X613375D01*
X612375Y454000D02*
X613375D01*
X612375Y455000D02*
X613375D01*
X612375Y456000D02*
X613375D01*
X612375Y457000D02*
X613375D01*
X612375Y458000D02*
X613375D01*
X612375Y459000D02*
X613375D01*
X612375Y460000D02*
X613375D01*
X612375Y461000D02*
X613375D01*
X612375Y462000D02*
X613375D01*
X612375Y463000D02*
X613375D01*
X612375Y464000D02*
X613375D01*
X612375Y465000D02*
X613375D01*
X612375Y466000D02*
X613375D01*
X612375Y467000D02*
X613375D01*
X612375Y468000D02*
X613596D01*
X612375Y469000D02*
X614391D01*
X612375Y470000D02*
X615391D01*
X612375Y487000D02*
X613441D01*
X612375Y486000D02*
X613949D01*
X614000Y468606D02*
Y474363D01*
X612375Y488000D02*
X613182D01*
X612375Y489000D02*
X613131D01*
X612375Y490000D02*
X613284D01*
X612375Y497000D02*
X613441D01*
X612375Y491000D02*
X613660D01*
X612375Y484905D02*
Y517750D01*
X613000Y485281D02*
Y517750D01*
X612375Y498000D02*
X613182D01*
X614000Y491576D02*
Y495924D01*
X612375Y471000D02*
X616391D01*
X612375Y472000D02*
X617391D01*
X612375Y473000D02*
X617625D01*
X614071Y468679D02*
X617625Y472234D01*
X612375Y474000D02*
X617625D01*
X612375Y492000D02*
X614325D01*
X612375Y493000D02*
X615491D01*
X612375Y494000D02*
X616564D01*
X612375Y496000D02*
X613949D01*
X612375Y495000D02*
X614818D01*
X612375Y499000D02*
X613131D01*
X612375Y500000D02*
X613284D01*
X612375Y501000D02*
X613660D01*
X612375Y503000D02*
X614057D01*
X612375Y504000D02*
X614057D01*
X612375Y505000D02*
X614057D01*
X612375Y506000D02*
X614057D01*
X612375Y507000D02*
X614057D01*
X612375Y508000D02*
X614057D01*
Y502837D02*
Y509683D01*
X612375Y509000D02*
X614057D01*
X614057Y510317D02*
Y517163D01*
X612375Y511000D02*
X614057D01*
X612375Y502000D02*
X614325D01*
X612375Y510000D02*
X620000D01*
X614057Y502837D02*
X615244D01*
X614057Y509683D02*
X620000D01*
X614057Y510317D02*
X620000D01*
X612375Y512000D02*
X614057D01*
X612375Y513000D02*
X614057D01*
X612375Y514000D02*
X614057D01*
X612375Y515000D02*
X614057D01*
X612375Y516000D02*
X614057D01*
X612375Y517000D02*
X614057D01*
X612375Y517750D02*
X625000D01*
X615000Y469609D02*
Y474250D01*
X616000Y470609D02*
Y474363D01*
X617000Y471609D02*
Y474719D01*
X616000Y493276D02*
Y494224D01*
X617625Y472234D02*
Y475095D01*
X615000Y492653D02*
Y494847D01*
X614000Y501576D02*
Y517750D01*
X615000Y509683D02*
Y510317D01*
X616000Y509683D02*
Y510317D01*
X617000Y509683D02*
Y510317D01*
X618000Y509683D02*
Y510317D01*
X620000Y493385D02*
Y494115D01*
X619686Y494000D02*
X621260D01*
Y492645D02*
Y494855D01*
X621000Y492841D02*
Y494659D01*
X620759Y493000D02*
X621260D01*
X619000Y509683D02*
Y510317D01*
X620000Y509683D02*
Y510317D01*
Y509683D02*
Y510317D01*
X630943Y513000D02*
Y513423D01*
X631000Y513000D02*
Y518250D01*
X614057Y517163D02*
X621494D01*
X615000D02*
Y517750D01*
X616000Y517163D02*
Y517750D01*
X621494Y516229D02*
Y517163D01*
X617000D02*
Y517750D01*
X618000Y517163D02*
Y517750D01*
X619000Y517163D02*
Y517750D01*
X622000Y516128D02*
Y517750D01*
X623000Y515535D02*
Y517750D01*
X620000Y517163D02*
Y517750D01*
X621000Y517163D02*
Y517750D01*
X624000Y514536D02*
Y517750D01*
X623028Y515508D02*
X624268Y514268D01*
X624823Y513423D02*
X630943D01*
X625000D02*
Y517750D01*
X626000Y513423D02*
Y517984D01*
X627000Y513423D02*
Y518250D01*
X628000Y513423D02*
Y518250D01*
X632000Y513000D02*
Y518250D01*
X633000Y513000D02*
Y518250D01*
X629000Y513423D02*
Y518250D01*
X630000Y513423D02*
Y518250D01*
X634000Y382186D02*
Y383141D01*
X633859Y383000D02*
X634350D01*
X635859Y385000D02*
X636329D01*
X636000Y384801D02*
Y385141D01*
X637000Y385309D02*
Y386141D01*
X638000Y385568D02*
Y387141D01*
X632750Y381891D02*
X638359Y387500D01*
X634000Y436500D02*
Y444391D01*
X635000Y436500D02*
Y445391D01*
X636000Y436500D02*
Y442088D01*
X639000Y385619D02*
Y387500D01*
X637000Y436500D02*
Y441032D01*
X638000Y436500D02*
Y440429D01*
X640000Y385466D02*
Y387500D01*
X637859Y387000D02*
X643391D01*
X636859Y386000D02*
X644391D01*
X643000Y383259D02*
Y387391D01*
X642439Y384000D02*
X647059D01*
X641171Y385000D02*
X647059D01*
X638359Y387500D02*
X642891D01*
X631125Y436500D02*
X639750D01*
X631125Y437000D02*
X639750D01*
X641000Y385090D02*
Y387500D01*
X642000Y384425D02*
Y387500D01*
X639000Y436500D02*
Y440104D01*
X639750Y436500D02*
Y439000D01*
X631125Y438000D02*
X639750D01*
X631125Y439000D02*
X639750D01*
X631125Y440000D02*
X640000D01*
Y439000D02*
Y440000D01*
X631125Y441000D02*
X637042D01*
X641000Y439000D02*
Y440104D01*
X631125Y441516D02*
X635142Y445533D01*
X632609Y443000D02*
X635500D01*
X631609Y442000D02*
X636063D01*
X633609Y444000D02*
X635204D01*
X639750Y439000D02*
X644516D01*
X639750D02*
X644516D01*
X642000D02*
Y440429D01*
X640000Y440000D02*
X643516D01*
X642750Y450000D02*
X644141D01*
X642750Y451000D02*
X645141D01*
X642750Y452000D02*
X646141D01*
X642750Y449150D02*
Y454641D01*
Y453000D02*
X647141D01*
X642750Y454641D02*
X645734Y457625D01*
X642750Y454000D02*
X648141D01*
X642891Y387500D02*
X644571Y385821D01*
X643000Y439000D02*
Y440594D01*
X644000Y439000D02*
Y439516D01*
X643321Y440196D02*
X644516Y439000D01*
X643000Y448968D02*
Y454891D01*
X644000Y449859D02*
Y455891D01*
X645000Y450859D02*
Y456891D01*
X646000Y451859D02*
Y457625D01*
X643711Y380000D02*
X647059D01*
X643557Y382000D02*
X647059D01*
X643150Y383000D02*
X647059D01*
Y380431D02*
Y384569D01*
X643736Y381000D02*
X647059D01*
Y384569D02*
Y385125D01*
X646250D02*
X647059D01*
X643321Y449179D02*
X653446Y459304D01*
X647059Y384569D02*
Y385125D01*
X647000Y452859D02*
Y457625D01*
X648000Y453859D02*
Y457625D01*
X649000Y454859D02*
Y457792D01*
X643109Y455000D02*
X649141D01*
X644109Y456000D02*
X650141D01*
X645109Y457000D02*
X651141D01*
X645734Y457625D02*
X648125D01*
X649406Y458000D02*
X652141D01*
X650000Y455859D02*
Y458516D01*
X649804Y458321D02*
X653174Y461690D01*
X651000Y456859D02*
Y459516D01*
X652000Y457859D02*
Y460516D01*
X653000Y458859D02*
Y461516D01*
X650484Y459000D02*
X653141D01*
X651484Y460000D02*
X655125D01*
X658516D01*
X655125D02*
X658516D01*
X656000D02*
Y460756D01*
X657000Y460000D02*
Y460801D01*
X654000Y459717D02*
Y461231D01*
X652484Y461000D02*
X654611D01*
X655000Y459997D02*
Y460894D01*
X658000Y460000D02*
Y461036D01*
X658516Y460000D02*
X660196Y461679D01*
X659000Y460484D02*
Y461487D01*
X657889Y461000D02*
X659516D01*
X637500Y503750D02*
X641250D01*
X637500D02*
Y504500D01*
Y504000D02*
X642250D01*
X642500Y480273D02*
Y484589D01*
X638000Y503750D02*
Y504500D01*
X641250Y503750D02*
X642250D01*
X639000D02*
Y504500D01*
X640000Y503750D02*
Y504500D01*
X637500D02*
X640000D01*
X641000Y503750D02*
Y518250D01*
X642000Y503750D02*
Y518250D01*
X640000Y504500D02*
Y513000D01*
X642250Y503750D02*
Y511500D01*
X642500Y481000D02*
X643477D01*
X642500Y482000D02*
X691731D01*
X643000Y480687D02*
Y485089D01*
X642500Y483000D02*
X691295D01*
X642500Y484000D02*
X691250D01*
X642500Y484589D02*
X643018Y485107D01*
X642910Y485000D02*
X691250D01*
X643592Y486000D02*
X691250D01*
X643750Y488000D02*
X651250D01*
X643750Y487000D02*
X671006D01*
X640000Y505000D02*
X642250D01*
X630943Y513000D02*
X640000D01*
X630943D02*
X640000D01*
Y504500D02*
Y513000D01*
Y506000D02*
X642250D01*
X640000Y507000D02*
X642250D01*
X634000Y513000D02*
Y518250D01*
X635000Y513000D02*
Y518250D01*
X636000Y513000D02*
Y518250D01*
X637000Y513000D02*
Y518250D01*
X638000Y513000D02*
Y518250D01*
X639000Y513000D02*
Y518250D01*
X640000Y513000D02*
Y518250D01*
Y508000D02*
X642250D01*
X640000Y509000D02*
X642250D01*
X640000Y510000D02*
X642250D01*
X640000Y511000D02*
X642250D01*
Y511500D02*
X652250D01*
X640000Y512000D02*
X655115D01*
X640000Y513000D02*
X655715D01*
X623535Y515000D02*
X657715D01*
X622329Y516000D02*
X658714D01*
X621494Y517000D02*
X659750D01*
X643000Y511500D02*
Y518250D01*
X624500Y514000D02*
X656714D01*
X626414Y518250D02*
X691086D01*
X626031Y518000D02*
X691469D01*
X651013Y479000D02*
X651487D01*
X650000Y480273D02*
Y489215D01*
X650273Y480000D02*
X652227D01*
X651000Y479023D02*
Y488215D01*
X652000Y479741D02*
Y487615D01*
X644000Y481269D02*
Y491000D01*
X643750Y486875D02*
Y491000D01*
X645000Y481606D02*
Y491000D01*
X648000Y481464D02*
Y491000D01*
X649000Y481013D02*
Y490214D01*
X646000Y481744D02*
Y491000D01*
X647000Y481699D02*
Y491000D01*
X649023Y481000D02*
X653477D01*
X653000Y480687D02*
Y487500D01*
X654000Y481269D02*
Y487500D01*
X659023Y481000D02*
X663477D01*
X655000Y481606D02*
Y487500D01*
X652750D02*
X661526D01*
X658000Y481464D02*
Y487500D01*
X659000Y481013D02*
Y487500D01*
X656000Y481744D02*
Y487500D01*
X657000Y481699D02*
Y487500D01*
X643750Y489000D02*
X650214D01*
X643750Y491000D02*
X648214D01*
X643750Y490000D02*
X649215D01*
X648214Y491000D02*
X650982Y488232D01*
X644000Y511500D02*
Y518250D01*
X643750Y491000D02*
X648214D01*
X645000Y511500D02*
Y518250D01*
X646000Y511500D02*
Y518250D01*
X647000Y511500D02*
Y518250D01*
X648000Y511500D02*
Y518250D01*
X649000Y511500D02*
Y518250D01*
X650000Y511500D02*
Y518250D01*
X651000Y511500D02*
Y518250D01*
X652250Y511500D02*
X652750D01*
X652000D02*
Y518250D01*
X652250Y511500D02*
X652750D01*
X655013D01*
X655732Y513018D02*
X659482Y516768D01*
X653000Y511500D02*
Y518250D01*
X654000Y511500D02*
Y518250D01*
X655000Y511500D02*
Y518250D01*
X656000Y513285D02*
Y518250D01*
X657000Y514286D02*
Y518250D01*
X658000Y515285D02*
Y518250D01*
X659000Y516286D02*
Y518250D01*
X659984Y313625D02*
X660500D01*
X659609Y314000D02*
X660500D01*
X670000Y308625D02*
Y309231D01*
X669000Y316000D02*
X670141D01*
X660000Y313625D02*
Y321778D01*
X660500Y313625D02*
Y321507D01*
X669000Y314859D02*
Y322750D01*
Y314859D02*
Y322750D01*
X670000Y315859D02*
Y322237D01*
X671000Y308625D02*
Y310141D01*
X670859Y310000D02*
X677483D01*
X669510Y309000D02*
X678520D01*
X672000Y308625D02*
Y311141D01*
X672859Y312000D02*
X676101D01*
X671859Y311000D02*
X676699D01*
X669000Y314859D02*
X671375Y317234D01*
X669000Y317000D02*
X671141D01*
X669000Y318000D02*
X671375D01*
X673000Y308625D02*
Y312141D01*
X670429Y309571D02*
X675234Y314375D01*
X671000Y316859D02*
Y321786D01*
X671375Y317234D02*
Y320000D01*
X666663Y322750D02*
X669000D01*
X667000D02*
Y323168D01*
X666873Y323000D02*
X668975D01*
X669000Y322000D02*
X670459D01*
X668000Y322750D02*
Y324227D01*
X667493Y324000D02*
X668140D01*
X667493Y331000D02*
X668140D01*
X668000Y330773D02*
Y331964D01*
X668036Y332000D02*
X668975D01*
X669000Y332023D02*
Y332964D01*
X670000Y332763D02*
Y333964D01*
X669000Y319000D02*
X671375D01*
X669000Y320000D02*
X671375D01*
X669000Y321000D02*
X671596D01*
X669035Y333000D02*
X670459D01*
X667338Y331302D02*
X671035Y335000D01*
X671000Y333214D02*
Y334964D01*
X672000Y333449D02*
Y335000D01*
X673000Y333494D02*
Y335000D01*
X676000Y308625D02*
Y312199D01*
X673859Y313000D02*
X675650D01*
X677000Y308625D02*
Y310584D01*
X678000Y308625D02*
Y309464D01*
X693000Y309750D02*
Y311304D01*
X674000Y308625D02*
Y313141D01*
X675000Y308625D02*
Y314141D01*
X674859Y314000D02*
X675326D01*
X693000Y321696D02*
Y325000D01*
X691000Y323983D02*
Y325000D01*
X692000Y323019D02*
Y325000D01*
X692500Y309750D02*
X693500D01*
X692017Y310000D02*
X693500D01*
Y309750D02*
Y312199D01*
X692801Y311000D02*
X693500D01*
X694000Y319582D02*
Y321750D01*
X690980Y324000D02*
X693500D01*
X689526Y325000D02*
X693500D01*
Y321750D02*
Y325000D01*
X695000Y318250D02*
Y321750D01*
X692801Y322000D02*
X693500D01*
X692017Y323000D02*
X693500D01*
X677874Y330000D02*
X681250D01*
X674000Y333356D02*
Y335000D01*
X675000Y333019D02*
Y335000D01*
X678250Y327859D02*
X679019Y328627D01*
X678158Y329000D02*
X679250D01*
X678000Y329639D02*
Y335000D01*
X676000Y332437D02*
Y335000D01*
X677000Y331491D02*
Y335000D01*
X679000Y328609D02*
Y335000D01*
X680000Y329665D02*
Y335000D01*
X681000Y329988D02*
Y335000D01*
X682000Y330000D02*
Y335000D01*
X681250Y330000D02*
X693500D01*
X683000D02*
Y335000D01*
X684000Y330000D02*
Y335000D01*
X685000Y330000D02*
Y335000D01*
X689526Y325000D02*
X693500D01*
X686000Y330000D02*
Y335000D01*
X687000Y330000D02*
Y335000D01*
X688000Y330000D02*
Y335000D01*
X689000Y330000D02*
Y335000D01*
X690000Y330000D02*
Y335000D01*
X691000Y330000D02*
Y335000D01*
X692000Y330000D02*
Y335000D01*
X693000Y330000D02*
Y335000D01*
X694000Y330250D02*
Y335000D01*
X659285Y337000D02*
X659891D01*
X660000Y337109D02*
Y337891D01*
X659731Y337623D02*
X661127Y339019D01*
X660109Y338000D02*
X660891D01*
X661000Y338109D02*
Y338891D01*
X661109Y339000D02*
X661891D01*
X662000Y339109D02*
Y339750D01*
X662165Y340000D02*
X662891D01*
X663000Y340109D02*
Y381000D01*
X662488Y341000D02*
X663891D01*
X662500Y341250D02*
Y351250D01*
X664000Y341109D02*
Y379964D01*
X662500Y342000D02*
X664891D01*
X662500Y343000D02*
X665891D01*
X662500Y344000D02*
X666750D01*
X662500Y345000D02*
X668750D01*
X683476D01*
X665000Y342109D02*
Y378964D01*
X662500Y346000D02*
X683476D01*
X662500Y347000D02*
X683476D01*
X666000Y343109D02*
Y377964D01*
X667000Y344285D02*
Y376964D01*
X668000Y344885D02*
Y375964D01*
X668750Y345000D02*
X683476D01*
X660518Y354268D02*
X661768Y353018D01*
X660000Y354665D02*
Y375481D01*
X660429Y375821D02*
X661679Y377071D01*
X661000Y353785D02*
Y376391D01*
X662000Y352750D02*
Y377469D01*
X662375Y378750D02*
Y410267D01*
X662500Y382500D02*
Y410190D01*
X662375Y381000D02*
X663000D01*
X662385Y352000D02*
X683476D01*
X661785Y353000D02*
X683476D01*
X660785Y354000D02*
X683476D01*
X662500Y348000D02*
X683476D01*
X662500Y349000D02*
X683476D01*
X662500Y350000D02*
X683476D01*
X662500Y351000D02*
X683476D01*
X660609Y376000D02*
X667965D01*
X662254Y378000D02*
X665965D01*
X661609Y377000D02*
X666964D01*
X662375Y379000D02*
X664964D01*
X663232Y380732D02*
X678232Y365732D01*
X662375Y380000D02*
X663965D01*
X676000Y345000D02*
Y367965D01*
X677000Y345000D02*
Y366965D01*
X678000Y345000D02*
Y365965D01*
X679000Y345000D02*
Y365209D01*
X680000Y345000D02*
Y365000D01*
X681000Y345000D02*
Y365000D01*
X669000Y345000D02*
Y374964D01*
X670000Y345000D02*
Y373965D01*
X671000Y345000D02*
Y372965D01*
X672000Y345000D02*
Y371965D01*
X673000Y345000D02*
Y370965D01*
X674000Y345000D02*
Y369965D01*
X675000Y345000D02*
Y368965D01*
X683476Y345000D02*
Y345431D01*
Y345000D02*
Y345431D01*
Y349569D01*
X695000Y330250D02*
Y335000D01*
X683476Y349569D02*
Y350431D01*
Y349569D02*
Y350431D01*
X682000Y345000D02*
Y365000D01*
X683000Y345000D02*
Y365000D01*
X683476Y350431D02*
Y354569D01*
Y355431D01*
Y354569D02*
Y355431D01*
Y359569D01*
Y360431D01*
X672375Y403484D02*
X677700Y398159D01*
X675859Y400000D02*
X677625D01*
X674859Y401000D02*
X677625D01*
X676859Y399000D02*
X677625D01*
X674000Y401859D02*
Y409604D01*
X672375Y403484D02*
Y410267D01*
X673000Y402859D02*
Y409929D01*
X677000Y398859D02*
Y409929D01*
X677625Y398750D02*
Y410267D01*
X675000Y400859D02*
Y409500D01*
X676000Y399859D02*
Y409604D01*
X683476Y359569D02*
Y360431D01*
X680000Y365000D02*
X683476D01*
X680000D02*
X683476D01*
Y360431D02*
Y364569D01*
Y365000D01*
Y364569D02*
Y365000D01*
X672375Y404000D02*
X677625D01*
X672375Y405000D02*
X677625D01*
X672375Y406000D02*
X677625D01*
X673859Y402000D02*
X677625D01*
X672859Y403000D02*
X677625D01*
X696000Y318250D02*
Y321750D01*
X693500Y330250D02*
X696388D01*
X677360Y331000D02*
X696596D01*
X697000Y318250D02*
Y321750D01*
X676525Y332000D02*
X697391D01*
X671035Y335000D02*
X695000D01*
X671035D02*
X695000D01*
X696000Y330250D02*
Y335209D01*
X697000Y331606D02*
Y335964D01*
X693500Y309750D02*
X704000D01*
X693500D02*
X704000D01*
X693399Y321000D02*
X705125D01*
X694342Y318250D02*
X704000D01*
X694174Y319000D02*
X705125D01*
X693850Y320000D02*
X705125D01*
X693500Y321750D02*
X704000D01*
X675041Y333000D02*
X698391D01*
X670036Y334000D02*
X699391D01*
X698000Y318250D02*
Y321750D01*
X697071Y331679D02*
X700125Y334734D01*
X698000Y332609D02*
Y336965D01*
X695000Y335000D02*
X700125D01*
X695441Y350000D02*
X696250D01*
X695441D02*
Y350431D01*
Y350000D02*
X696250D01*
X696768Y335732D02*
X699268Y338232D01*
X695441Y350000D02*
Y350431D01*
Y354569D01*
Y355431D01*
Y354569D02*
Y355431D01*
Y359569D01*
Y360431D01*
Y359569D02*
Y360431D01*
Y351000D02*
X700125D01*
X695441Y352000D02*
X700125D01*
X695441Y353000D02*
X700125D01*
X697036Y336000D02*
X700125D01*
X698035Y337000D02*
X700125D01*
X696250Y350000D02*
X700125D01*
X695441Y354000D02*
X700125D01*
X695441Y355000D02*
X700125D01*
X695441Y356000D02*
X700125D01*
X695441Y357000D02*
X700125D01*
X695441Y358000D02*
X700125D01*
X695441Y359000D02*
X700125D01*
X695441Y360000D02*
X700125D01*
X704000Y309750D02*
Y318250D01*
X699000D02*
Y321750D01*
X704000Y309750D02*
Y318250D01*
X700000D02*
Y321750D01*
X701000Y318250D02*
Y321750D01*
X702000Y318250D02*
Y321750D01*
X703000Y318250D02*
Y321750D01*
X704000Y318250D02*
Y321750D01*
Y330250D01*
Y321750D02*
Y330250D01*
Y309750D02*
X705125D01*
X704000Y310000D02*
X705125D01*
X704000Y311000D02*
X705125D01*
X704000Y312000D02*
X705125D01*
X704000Y313000D02*
X705125D01*
X704000Y314000D02*
X705125D01*
X704000Y315000D02*
X705125D01*
X704000Y316000D02*
X705125D01*
X704000Y317000D02*
X705125D01*
X704000Y318000D02*
X705125D01*
X704000Y322000D02*
X705125D01*
X704000Y323000D02*
X705125D01*
X704000Y324000D02*
X705125D01*
X699000Y333609D02*
Y337965D01*
X699036Y338000D02*
X700125D01*
X703000Y330250D02*
Y330891D01*
X699791Y339000D02*
X700125D01*
X698018Y349268D02*
X699268Y348018D01*
X698285Y349000D02*
X700125D01*
X700000Y334609D02*
Y346250D01*
Y340000D02*
Y346250D01*
X699285Y348000D02*
X700125D01*
X704000Y325000D02*
X705125D01*
X702359Y330250D02*
X704000D01*
Y326000D02*
X705125D01*
X704000Y327000D02*
X705125D01*
X704000Y328000D02*
X705125D01*
X704000Y329000D02*
X705125D01*
X704000Y330000D02*
X705125D01*
X702359Y330250D02*
X704179Y332071D01*
X704000Y330250D02*
Y331891D01*
X703109Y331000D02*
X705125D01*
X704109Y332000D02*
X705125D01*
X704753Y333000D02*
X705125D01*
X695441Y360431D02*
Y364569D01*
Y365125D01*
X696000Y350000D02*
Y365125D01*
X695441Y364569D02*
Y365125D01*
X697000Y349885D02*
Y365125D01*
X695441D02*
X697766D01*
X695441Y369875D02*
Y370431D01*
Y369875D02*
Y370431D01*
X696000Y369875D02*
Y372127D01*
X697000Y369875D02*
Y371584D01*
X695441Y370431D02*
Y372592D01*
Y372000D02*
X696188D01*
X695441Y361000D02*
X700125D01*
X695441Y363000D02*
X699891D01*
X695441Y362000D02*
X700125D01*
X698000Y349285D02*
Y364891D01*
X695441Y365000D02*
X697891D01*
X695441Y364000D02*
X698891D01*
X695441Y369875D02*
X698750D01*
X695441Y370000D02*
X705125D01*
X695441Y371000D02*
X705125D01*
X698000Y369875D02*
Y371310D01*
X697766Y365125D02*
X700125Y362766D01*
X695441Y392408D02*
Y394569D01*
Y395431D01*
Y393000D02*
X696188D01*
X695441Y394569D02*
Y395431D01*
Y399569D01*
Y400039D01*
X695000Y400000D02*
X695441D01*
Y399569D02*
Y400039D01*
X696000Y392873D02*
Y400209D01*
X695441Y394000D02*
X702500D01*
X695441Y395000D02*
X702500D01*
X695441Y396000D02*
X702500D01*
X695441Y397000D02*
X702500D01*
X695441Y398000D02*
X702500D01*
X695441Y399000D02*
X702500D01*
X696768Y400732D02*
X699268Y403232D01*
X695441Y400000D02*
X702500D01*
X697000Y393416D02*
Y400964D01*
X698000Y393690D02*
Y401965D01*
X697036Y401000D02*
X702500D01*
X698035Y402000D02*
X702500D01*
X700000Y346250D02*
Y362891D01*
X699000Y348286D02*
Y363891D01*
X704875Y333750D02*
Y363750D01*
X700125Y334734D02*
Y362766D01*
X700429Y369179D02*
X704179Y365429D01*
X699000Y369862D02*
Y371257D01*
X700000Y369519D02*
Y371417D01*
X703000Y366609D02*
Y373879D01*
X704000Y365609D02*
Y380500D01*
X701000Y368609D02*
Y371817D01*
X702000Y367609D02*
Y372536D01*
X703609Y366000D02*
X705125D01*
X702609Y367000D02*
X705125D01*
X701609Y368000D02*
X705125D01*
X704519Y365000D02*
X705125D01*
X700609Y369000D02*
X705125D01*
X701312Y372000D02*
X705125D01*
X702433Y373000D02*
X705125D01*
X705000Y309750D02*
Y381465D01*
X705125Y309750D02*
Y381590D01*
X703058Y374000D02*
X705125D01*
X703394Y375000D02*
X705125D01*
X699000Y393743D02*
Y402964D01*
X699036Y403000D02*
X702500D01*
X701961Y380000D02*
X702500D01*
X701961D02*
X702500D01*
X701312Y393000D02*
X702500D01*
X700000Y393583D02*
Y412709D01*
X702000Y392464D02*
Y449099D01*
X702500Y391915D02*
Y451250D01*
X700000Y405000D02*
Y412709D01*
X701000Y393183D02*
Y447732D01*
X703000Y378621D02*
Y380050D01*
X702789Y379000D02*
X705125D01*
X703500Y376000D02*
Y376500D01*
Y376000D02*
X705125D01*
X703474Y377000D02*
X705125D01*
X703257Y378000D02*
X705125D01*
X702500Y380000D02*
X705125D01*
X699791Y404000D02*
X702500D01*
X700000Y405000D02*
X702500D01*
X704268Y380732D02*
X705125Y381590D01*
X704535Y381000D02*
X705125D01*
X660000Y461484D02*
Y462227D01*
X659741Y462000D02*
X660594D01*
X662000Y462375D02*
Y462759D01*
X661875Y462375D02*
X662347D01*
X661000Y462208D02*
Y463477D01*
X660000Y480273D02*
Y487500D01*
X660687Y463000D02*
X661813D01*
X661013Y479000D02*
X661487D01*
X661000Y479023D02*
Y487500D01*
X662000Y479741D02*
Y487545D01*
X672375Y407000D02*
X677625D01*
X672375Y408000D02*
X677625D01*
X672375Y409000D02*
X677625D01*
X672375Y410000D02*
X672849D01*
X660273Y480000D02*
X662227D01*
X671013Y479000D02*
X671487D01*
X672000Y479741D02*
Y486587D01*
X670273Y480000D02*
X672227D01*
X663000Y480687D02*
Y487981D01*
X664000Y481269D02*
Y488939D01*
X663026Y488000D02*
X671006D01*
X664061Y489000D02*
X671006D01*
X665000Y481606D02*
Y489939D01*
X663293Y488232D02*
X665388Y490327D01*
X668994D01*
X666000Y481744D02*
Y490327D01*
X668000Y481464D02*
Y490327D01*
X667000Y481699D02*
Y490327D01*
X671006Y486587D02*
Y493433D01*
X669023Y481000D02*
X673477D01*
X665061Y490000D02*
X671006D01*
Y486587D02*
X678443D01*
X673000Y480687D02*
Y486587D01*
X674000Y481269D02*
Y486587D01*
X675000Y481606D02*
Y486587D01*
X668994Y491000D02*
X671006D01*
X668994Y492000D02*
X671006D01*
X668994Y493000D02*
X671006D01*
X672000Y493433D02*
Y494067D01*
X671006Y493433D02*
X678443D01*
X673000D02*
Y494067D01*
X674000Y493433D02*
Y494067D01*
X677151Y410000D02*
X677625D01*
X677151Y420000D02*
X677981D01*
X677000Y420071D02*
Y420594D01*
X678000Y420031D02*
Y421000D01*
X677208D02*
X678000D01*
X677375Y422000D02*
X678000D01*
Y421000D02*
Y431500D01*
Y421000D02*
Y431500D01*
X677375Y421875D02*
Y432141D01*
Y423000D02*
X678000D01*
X677375Y424000D02*
X678000D01*
X678321Y420429D02*
X678891Y421000D01*
X678000D02*
X678891D01*
X678000D02*
X678891D01*
X677375Y425000D02*
X678000D01*
X677375Y426000D02*
X678000D01*
X677375Y427000D02*
X678000D01*
X677375Y428000D02*
X678000D01*
X677375Y429000D02*
X678000D01*
X677375Y430000D02*
X678000D01*
X677375Y431000D02*
X678000D01*
Y431500D02*
Y432250D01*
X676000Y481744D02*
Y486587D01*
X677375Y432141D02*
X677929Y432696D01*
X679000Y431500D02*
Y432250D01*
X678000D02*
Y432769D01*
X680000Y431500D02*
Y432250D01*
X678000Y481464D02*
Y486587D01*
X677000Y481699D02*
Y486587D01*
X678443D02*
Y487510D01*
X679000Y481013D02*
Y487510D01*
X680000Y480273D02*
Y487521D01*
X678443Y492510D02*
Y493433D01*
Y487510D02*
X679760D01*
X681000Y431500D02*
Y432250D01*
X680273Y480000D02*
X682227D01*
X679023Y481000D02*
X683477D01*
X682000Y431500D02*
Y432250D01*
X683000Y431500D02*
Y432250D01*
X681013Y479000D02*
X681487D01*
X684000Y431500D02*
Y432250D01*
X681000Y479023D02*
Y487839D01*
X682000Y479741D02*
Y488715D01*
X683000Y480687D02*
Y489714D01*
X681528Y488242D02*
X683036Y489750D01*
X684000Y481269D02*
Y489750D01*
X662750Y497173D02*
Y498763D01*
X663000Y497173D02*
Y498801D01*
X662750Y498000D02*
X666577D01*
X664000Y497173D02*
Y499250D01*
X663590Y499000D02*
X666577D01*
X665000Y497173D02*
Y500214D01*
X664268Y499482D02*
X665518Y500732D01*
X666000Y497173D02*
Y501410D01*
X666577Y497807D02*
Y505244D01*
X668994Y494000D02*
X678500D01*
X662750Y497173D02*
X668994D01*
Y495000D02*
X671006D01*
X668994Y490327D02*
Y497173D01*
Y496000D02*
X671006D01*
X668994Y497000D02*
X671006D01*
X664785Y500000D02*
X666577D01*
X665750Y501000D02*
X666577D01*
X666199Y502000D02*
X666577D01*
X667000Y497173D02*
Y497807D01*
X669000Y481013D02*
Y497807D01*
X668000Y497173D02*
Y497807D01*
X666577D02*
X671006D01*
X666250Y503000D02*
X666577D01*
X666250Y502500D02*
Y507256D01*
Y504000D02*
X666577D01*
X666250Y505000D02*
X666577D01*
X660000Y517165D02*
Y518250D01*
X661000Y517487D02*
Y518250D01*
X662000Y517500D02*
Y518250D01*
X663000Y517500D02*
Y518250D01*
X664000Y517500D02*
Y518250D01*
X665000Y517500D02*
Y518250D01*
X666000Y517500D02*
Y518250D01*
X666250Y506000D02*
X678500D01*
X666250Y507256D02*
X669683D01*
X666250Y507000D02*
X678500D01*
X667000Y505244D02*
Y507256D01*
X666577Y505244D02*
X673423D01*
X668000D02*
Y507256D01*
X669000Y505244D02*
Y507256D01*
X661250Y517500D02*
X669714D01*
X667000D02*
Y518250D01*
X668000Y517500D02*
Y518250D01*
X669683Y508000D02*
X670317D01*
X669683Y509000D02*
X670317D01*
X669000Y517500D02*
Y518250D01*
X669683Y510000D02*
X670317D01*
X671000Y479023D02*
Y497807D01*
X670000Y480273D02*
Y497807D01*
X671006Y494067D02*
Y497807D01*
X675000Y493433D02*
Y494067D01*
X673423Y504026D02*
Y505244D01*
X670000D02*
Y511179D01*
X669683Y507256D02*
Y511496D01*
X671000Y505244D02*
Y507256D01*
X674000Y504026D02*
Y507256D01*
X675000Y504026D02*
Y507256D01*
X672000Y505244D02*
Y507256D01*
X673000Y505244D02*
Y507256D01*
X676000Y493433D02*
Y494067D01*
X671006D02*
X678443D01*
X677000Y493433D02*
Y494067D01*
X678000Y493433D02*
Y494067D01*
X678443D02*
Y498044D01*
X673423Y504026D02*
X678474D01*
X676000D02*
Y507256D01*
X673423Y505000D02*
X678500D01*
X677000Y504026D02*
Y507256D01*
X678500Y492510D02*
Y498000D01*
X678000Y504026D02*
Y518250D01*
X678500Y504026D02*
Y510250D01*
X669683Y511000D02*
X670179D01*
X669683Y511496D02*
X670317Y510862D01*
Y507256D02*
Y510862D01*
X671482Y516768D02*
X673557Y514693D01*
X672000Y516250D02*
Y518250D01*
X670000Y517484D02*
Y518250D01*
X671000Y517144D02*
Y518250D01*
X674000Y514693D02*
Y518250D01*
X675000Y514693D02*
Y518250D01*
X673000Y515250D02*
Y518250D01*
X676000Y514693D02*
Y518250D01*
X670317Y507256D02*
X677163D01*
Y508000D02*
X678500D01*
X677163Y509000D02*
X678500D01*
X677163Y507256D02*
Y514693D01*
Y510000D02*
X678500D01*
Y510250D02*
X683215D01*
X677163Y511000D02*
X683964D01*
X679000Y510250D02*
Y518250D01*
X677000Y514693D02*
Y518250D01*
X673557Y514693D02*
X677163D01*
X680000Y510250D02*
Y518250D01*
X681000Y510250D02*
Y518250D01*
X682000Y510250D02*
Y518250D01*
X683000Y510250D02*
Y518250D01*
X685000Y420500D02*
Y421000D01*
X686000Y420396D02*
Y421000D01*
X684625D02*
X686500D01*
X687000Y420071D02*
Y432500D01*
X686500Y421000D02*
Y431500D01*
Y423000D02*
X690057D01*
X689000Y418412D02*
Y432500D01*
X690000Y417291D02*
Y423750D01*
X688000Y419468D02*
Y432500D01*
X690000Y423750D02*
Y432500D01*
X689257Y418000D02*
X690390D01*
X688518Y419000D02*
X691225D01*
X687151Y420000D02*
X691693D01*
X691000Y418775D02*
Y420750D01*
X686500Y421000D02*
X690824D01*
X686500Y422000D02*
X690316D01*
X686500Y424000D02*
X690006D01*
X686500Y425000D02*
X690159D01*
X686500Y426000D02*
X690535D01*
X686500Y427000D02*
X691200D01*
X686500Y431000D02*
X690824D01*
X686500Y430000D02*
X691693D01*
X678000Y431500D02*
X686500D01*
X678000Y432250D02*
X686500D01*
X677375Y432000D02*
X690316D01*
X685000Y431500D02*
Y432250D01*
X691000Y426750D02*
Y430750D01*
X686000Y431500D02*
Y432250D01*
X686500Y432500D02*
X690159D01*
X686500Y428000D02*
X692366D01*
X693000Y428333D02*
Y429167D01*
X686500Y429000D02*
X693439D01*
X697634Y428000D02*
X702500D01*
X696561Y429000D02*
X702500D01*
X692000Y427750D02*
Y429750D01*
X697000Y428333D02*
Y429167D01*
X698000Y427750D02*
Y429750D01*
Y438000D02*
X702500D01*
X700000Y406000D02*
X702500D01*
X700000Y407000D02*
X702500D01*
X700000Y408000D02*
X702500D01*
X700000Y409000D02*
X702500D01*
X700000Y410000D02*
X702500D01*
X700000Y411000D02*
X702500D01*
X700000Y412000D02*
X702500D01*
X699000Y418775D02*
Y420750D01*
Y426750D02*
Y430750D01*
X700124Y413000D02*
X702500D01*
X700000Y417291D02*
Y423750D01*
Y433750D01*
X700408Y414000D02*
X702500D01*
X699610Y418000D02*
X702500D01*
X698775Y419000D02*
X702500D01*
X700500Y415000D02*
X702500D01*
X700408Y416000D02*
X702500D01*
X700124Y417000D02*
X702500D01*
X698307Y420000D02*
X702500D01*
X699176Y421000D02*
X702500D01*
X699684Y422000D02*
X702500D01*
X699943Y423000D02*
X702500D01*
X699994Y424000D02*
X702500D01*
X699841Y425000D02*
X702500D01*
X699465Y426000D02*
X702500D01*
X698800Y427000D02*
X702500D01*
X698307Y430000D02*
X702500D01*
X699176Y431000D02*
X702500D01*
X699684Y432000D02*
X702500D01*
X699943Y433000D02*
X702500D01*
X699994Y434000D02*
X702500D01*
X698800Y437000D02*
X702500D01*
X698000Y437750D02*
Y446389D01*
Y437750D02*
Y446389D01*
X700000Y433750D02*
Y446993D01*
X699841Y435000D02*
X702500D01*
X699000Y436750D02*
Y446573D01*
X699465Y436000D02*
X702500D01*
X698000Y439000D02*
X702500D01*
X698000Y440000D02*
X702500D01*
X698000Y441000D02*
X702500D01*
X698000Y442000D02*
X702500D01*
X698000Y443000D02*
X702500D01*
X698000Y444000D02*
X702500D01*
X698000Y445000D02*
X702500D01*
X698000Y446000D02*
X702500D01*
X700013Y447000D02*
X702500D01*
X701259Y448000D02*
X702500D01*
X701950Y449000D02*
X702500D01*
X702175Y453000D02*
X702500D01*
X701650Y454000D02*
X702500D01*
X678443Y487000D02*
X691250D01*
X681247Y488000D02*
X691250D01*
X685000Y481606D02*
Y489750D01*
X686000Y481744D02*
Y489750D01*
X682285Y489000D02*
X691250D01*
X688000Y481464D02*
Y489750D01*
X687000Y481699D02*
Y489750D01*
X683036D02*
X688500D01*
X690000Y480273D02*
Y489750D01*
X691000Y479023D02*
Y489750D01*
X689000Y481013D02*
Y489750D01*
X691250Y483474D02*
Y489750D01*
X695984Y468000D02*
X696567D01*
X691149Y478750D02*
X692827D01*
X691013Y479000D02*
X692827D01*
X695933Y468051D02*
X699804Y464179D01*
X695933Y469000D02*
X696567D01*
X695933Y470000D02*
X696567D01*
X690273Y480000D02*
X692827D01*
X689023Y481000D02*
X692689D01*
X692000Y478750D02*
Y481689D01*
X692827Y478750D02*
Y480862D01*
X691982Y481707D02*
X692827Y480862D01*
X683215Y510250D02*
X685982Y513018D01*
X677163Y512000D02*
X684965D01*
X677163Y513000D02*
X685964D01*
X688500Y489750D02*
X689000D01*
X688500D02*
X689000D01*
X684000Y511035D02*
Y518250D01*
X685000Y512036D02*
Y518250D01*
X686000Y513035D02*
Y518250D01*
X687000Y513635D02*
Y518250D01*
X688000Y513750D02*
Y518250D01*
X689000Y513750D02*
Y518250D01*
X673250Y515000D02*
X705125D01*
X672250Y516000D02*
X705125D01*
X671214Y517000D02*
X705125D01*
X689000Y489750D02*
X691250D01*
X687750Y513750D02*
X698750D01*
X692000D02*
Y517806D01*
X677163Y514000D02*
X705125D01*
X690000Y513750D02*
Y518250D01*
X691000Y513750D02*
Y518250D01*
X693000Y513750D02*
Y517750D01*
X694000Y513750D02*
Y517750D01*
X695000Y513750D02*
Y517750D01*
X692500D02*
X705125D01*
X697000Y466984D02*
Y467807D01*
X698000Y465984D02*
Y467807D01*
X700500Y455187D02*
Y462500D01*
X699000Y464984D02*
Y467807D01*
X695933Y468051D02*
Y473750D01*
X696000Y467984D02*
Y473750D01*
X702000Y453401D02*
Y467807D01*
X702500Y451250D02*
Y467807D01*
X700000Y463958D02*
Y467807D01*
X701000Y454768D02*
Y467807D01*
X700740Y455000D02*
X702500D01*
X700500Y456000D02*
X702500D01*
X700500Y457000D02*
X702500D01*
X700500Y458000D02*
X702500D01*
X700500Y459000D02*
X702500D01*
X700500Y460000D02*
X702500D01*
X698984Y465000D02*
X702500D01*
X697984Y466000D02*
X702500D01*
X696984Y467000D02*
X702500D01*
X700500Y461000D02*
X702500D01*
X700500Y462000D02*
X702500D01*
X700447Y463000D02*
X702500D01*
X699966Y464000D02*
X702500D01*
X695933Y471000D02*
X696567D01*
X695933Y472000D02*
X696567D01*
X695933Y473000D02*
X696567D01*
Y467807D02*
Y473750D01*
X695933D02*
X696567D01*
X696000Y513750D02*
Y517750D01*
X697000Y513750D02*
Y517750D01*
X700000Y513415D02*
Y517750D01*
X698000Y513750D02*
Y517750D01*
X699000Y513737D02*
Y517750D01*
X696567Y467807D02*
X702500D01*
X700518Y513018D02*
X705125Y508411D01*
X700535Y513000D02*
X705125D01*
X704535Y509000D02*
X705125D01*
X703536Y510000D02*
X705125D01*
X702535Y511000D02*
X705125D01*
X701536Y512000D02*
X705125D01*
X702000Y511536D02*
Y517750D01*
X701000Y512535D02*
Y517750D01*
X705000Y508535D02*
Y517750D01*
X705125Y508411D02*
Y517750D01*
X703000Y510535D02*
Y517750D01*
X704000Y509536D02*
Y517750D01*
D11*
X674026Y452490D02*
D03*
X683474Y448750D02*
D03*
X617776Y513740D02*
D03*
X627224Y510000D02*
D03*
X665276Y493750D02*
D03*
X674724Y490010D02*
D03*
D12*
X674026Y445010D02*
D03*
X617776Y506260D02*
D03*
X674724Y497490D02*
D03*
D13*
X698750Y326000D02*
D03*
Y314000D02*
D03*
X635000Y329000D02*
D03*
Y341000D02*
D03*
Y432250D02*
D03*
Y420250D02*
D03*
X627500Y380250D02*
D03*
X625000Y330250D02*
D03*
Y342250D02*
D03*
X626250Y474000D02*
D03*
Y486000D02*
D03*
X657500Y495250D02*
D03*
Y507250D02*
D03*
X647500D02*
D03*
Y495250D02*
D03*
X645000Y422750D02*
D03*
Y434750D02*
D03*
X683750Y506000D02*
D03*
Y494000D02*
D03*
X693750Y506000D02*
D03*
Y494000D02*
D03*
X658750Y422750D02*
D03*
Y434750D02*
D03*
D14*
X638500Y352500D02*
D03*
X626500D02*
D03*
Y371250D02*
D03*
X638500D02*
D03*
X652750Y317500D02*
D03*
X664750D02*
D03*
X682250Y437500D02*
D03*
X670250D02*
D03*
X638500Y453750D02*
D03*
X626500D02*
D03*
X682250Y426250D02*
D03*
X670250D02*
D03*
X638500Y403750D02*
D03*
D15*
X691250Y458750D02*
D03*
D16*
Y442500D02*
D03*
D17*
X635000Y493750D02*
D03*
Y508750D02*
D03*
X627500Y392250D02*
D03*
D18*
X673740Y510974D02*
D03*
X670000Y501526D02*
D03*
X696250Y480974D02*
D03*
X692510Y471526D02*
D03*
D19*
X666260Y510974D02*
D03*
X699990Y471526D02*
D03*
D20*
X626500Y403750D02*
D03*
D21*
X653041Y407500D02*
D03*
Y402500D02*
D03*
Y397500D02*
D03*
Y382500D02*
D03*
Y372500D02*
D03*
Y367500D02*
D03*
Y362500D02*
D03*
X689459Y407500D02*
D03*
Y402500D02*
D03*
Y397500D02*
D03*
Y387500D02*
D03*
Y382500D02*
D03*
Y377500D02*
D03*
Y372500D02*
D03*
Y367500D02*
D03*
Y362500D02*
D03*
X653041Y357500D02*
D03*
Y352500D02*
D03*
Y347500D02*
D03*
Y342500D02*
D03*
X689459Y357500D02*
D03*
Y352500D02*
D03*
Y347500D02*
D03*
Y342500D02*
D03*
X653041Y387500D02*
D03*
Y392500D02*
D03*
X689459D02*
D03*
X653041Y377500D02*
D03*
D22*
X682224Y448750D02*
X686250D01*
X687500Y447500D01*
Y445000D02*
Y447500D01*
X658750Y377500D02*
X660000Y378750D01*
X623750Y415000D02*
X631250Y407500D01*
Y398750D02*
Y407500D01*
X630000Y397500D02*
X631250Y398750D01*
X657500Y338750D02*
X660000Y341250D01*
X628500Y392250D02*
X633750Y397500D01*
X626250Y416250D02*
X633750Y408750D01*
Y397500D02*
Y408750D01*
X698750Y367500D02*
X702500Y363750D01*
X654750Y328500D02*
X668750Y342500D01*
X698750Y330000D02*
X702500Y333750D01*
Y363750D01*
X653041Y377500D02*
X658750D01*
X683500Y438750D02*
X683750D01*
X687500Y425000D02*
X688750Y423750D01*
X675000Y417500D02*
X677500Y420000D01*
X675000Y415000D02*
Y417500D01*
X660000Y378750D02*
Y422500D01*
X650625Y431250D02*
Y438125D01*
X649375Y439375D02*
X650625Y438125D01*
X649375Y430000D02*
X650625Y431250D01*
X615750Y333000D02*
X618500Y330250D01*
X645000Y441875D02*
X647500Y439375D01*
X649375D01*
X664375Y466250D02*
X666250D01*
X638500Y453750D02*
X644750Y460000D01*
X648125D02*
X654375Y466250D01*
X656250D01*
X644750Y460000D02*
X648125D01*
X640000Y445000D02*
Y446250D01*
X658125Y451875D02*
X658750Y450000D01*
X656875Y435625D02*
X657750Y434750D01*
X655625Y440625D02*
X656875Y439375D01*
X657750Y434750D02*
X658750D01*
X656875Y435625D02*
Y439375D01*
X661250Y447500D02*
X666250Y452500D01*
X655625Y440625D02*
Y445000D01*
X658125Y447500D01*
X661250D01*
X680000Y398750D02*
X681250Y397500D01*
X680000Y398750D02*
Y418750D01*
X682250Y421000D01*
Y427500D01*
X681250Y397500D02*
X689459D01*
X670000Y402500D02*
X680000Y392500D01*
X698750Y326000D02*
Y330000D01*
X670000Y427250D02*
X670250Y427500D01*
X689459Y367500D02*
X698750D01*
X641250Y425000D02*
X643500Y422750D01*
X628750Y423750D02*
X630000Y425000D01*
X628750Y417500D02*
Y423750D01*
X630000Y425000D02*
X641250D01*
X637500Y404750D02*
X638500Y403750D01*
X637500Y404750D02*
Y408750D01*
X628750Y417500D02*
X637500Y408750D01*
X639375Y431250D02*
X640625Y430000D01*
X635000Y432250D02*
X636000Y431250D01*
X640625Y430000D02*
X649375D01*
X636000Y431250D02*
X639375D01*
X630000Y460000D02*
X631250Y458750D01*
X618375Y337875D02*
Y464625D01*
X624375Y473375D02*
X625000Y474000D01*
X626250D01*
X618375Y464625D02*
X624375Y470625D01*
Y473375D01*
X615750Y467000D02*
X620000Y471250D01*
Y486875D01*
X618500Y330250D02*
X625000D01*
X618125Y488750D02*
X620000Y486875D01*
X615750Y333000D02*
Y467000D01*
X630000Y463750D02*
X634375Y468125D01*
X645625D01*
X630000Y460000D02*
Y463750D01*
X645625Y468125D02*
X646250Y468750D01*
X628750Y428750D02*
Y442500D01*
Y428750D02*
X630000Y427500D01*
X653125D02*
Y439375D01*
X630000Y427500D02*
X670000D01*
X628750Y442500D02*
X633750Y447500D01*
X647500Y445000D02*
X653125Y439375D01*
X633750Y447500D02*
Y462500D01*
X626250Y416250D02*
Y443750D01*
X631250Y448750D01*
Y458750D01*
X621250Y459375D02*
X624375Y462500D01*
X621250Y409000D02*
X626500Y403750D01*
X621250Y409000D02*
Y459375D01*
Y396250D02*
X622500Y397500D01*
X630000D01*
X643875Y389875D02*
X646250Y387500D01*
X627750Y380250D02*
X637375Y389875D01*
X646250Y387500D02*
X653041D01*
X627500Y380250D02*
X627750D01*
X637375Y389875D02*
X643875D01*
X621250Y387500D02*
X622500Y386250D01*
X630000D02*
X636250Y392500D01*
X621250Y387500D02*
Y396250D01*
X622500Y386250D02*
X630000D01*
X673750Y420625D02*
X675000Y421875D01*
X670000Y420000D02*
X670625Y420625D01*
X673750D01*
X670000Y402500D02*
Y420000D01*
X677500Y431875D02*
X685625D01*
X688750Y423750D02*
X695000D01*
X685625Y431875D02*
X687500Y430000D01*
X677500Y420000D02*
Y431875D01*
X687500Y425000D02*
Y430000D01*
X693375Y435375D02*
X695000Y433750D01*
X665000Y442500D02*
X671250Y448750D01*
X663125Y456875D02*
X669641D01*
X674026Y452490D01*
X658125Y451875D02*
X663125Y456875D01*
X645000Y441875D02*
Y447500D01*
X676250Y460625D02*
Y466250D01*
X661875Y460000D02*
X690000D01*
X655125Y457625D02*
X659500D01*
X661875Y460000D01*
X645000Y447500D02*
X655125Y457625D01*
X692510Y468115D02*
Y471526D01*
Y471240D02*
Y471526D01*
Y468115D02*
X698125Y462500D01*
Y451875D02*
Y462500D01*
X699990Y466260D02*
X701125Y465125D01*
X699990Y466260D02*
Y471526D01*
X654375Y460625D02*
X658750D01*
X664375Y466250D01*
X640000Y446250D02*
X654375Y460625D01*
X636250Y392500D02*
X653041D01*
X623750Y445625D02*
X626500Y448375D01*
Y453750D01*
X623750Y415000D02*
Y445625D01*
X640000Y438750D02*
X644000Y434750D01*
X645000D01*
X678750Y443125D02*
Y448125D01*
X678125Y448750D02*
X678750Y448125D01*
X661250Y442500D02*
X665000D01*
X675000Y421875D02*
Y433125D01*
X676250Y434375D01*
Y440625D01*
X680000Y392500D02*
X689459D01*
X676250Y440625D02*
X678750Y443125D01*
X671250Y448750D02*
X678125D01*
X673750Y316250D02*
Y320000D01*
X668750Y311250D02*
X673750Y316250D01*
X659000Y311250D02*
X668750D01*
X652750Y317500D02*
X659000Y311250D01*
X673750Y320000D02*
X681250Y327500D01*
D23*
X672750Y326500D02*
Y327500D01*
X668750Y322500D02*
X672750Y326500D01*
X623760Y487240D02*
X625000Y486000D01*
X705000Y385000D02*
Y505000D01*
X698750Y511250D02*
X705000Y505000D01*
X682500Y506000D02*
X687750Y511250D01*
X689459Y382500D02*
X702500D01*
X705000Y385000D01*
X687750Y511250D02*
X698750D01*
X635000Y342500D02*
X653041D01*
X645000Y357500D02*
X653041D01*
X643750Y347500D02*
Y356250D01*
X625000Y341000D02*
X630250Y346250D01*
X643750Y356250D02*
X645000Y357500D01*
X642500Y346250D02*
X643750Y347500D01*
X630250Y346250D02*
X642500D01*
X660000Y341250D02*
Y351250D01*
X658750Y352500D02*
X660000Y351250D01*
X653041Y413041D02*
X655000Y415000D01*
X653041Y407500D02*
Y413041D01*
X695000Y402500D02*
X697500Y405000D01*
X695000Y415000D02*
X696250D01*
X689459Y402500D02*
X695000D01*
X696250Y415000D02*
X697500Y413750D01*
Y405000D02*
Y413750D01*
X689459Y407500D02*
Y410541D01*
X685000Y415000D02*
X689459Y410541D01*
X638500Y351250D02*
Y361000D01*
X640000Y362500D02*
X653041D01*
X646250Y367500D02*
X653041D01*
X638750Y370250D02*
Y381250D01*
X637250Y371250D02*
X642500D01*
X637250D02*
X638750Y370250D01*
X642500Y371250D02*
X646250Y367500D01*
X674724Y490010D02*
X679760D01*
X683750Y494000D01*
X640000Y336250D02*
X642500Y338750D01*
X657500D01*
Y511250D02*
X661250Y515000D01*
X669714D01*
X647500Y507250D02*
X657500D01*
Y511250D01*
X669714Y515000D02*
X673740Y510974D01*
X652750Y490000D02*
X661526D01*
X647500Y495250D02*
X652750Y490000D01*
X661526D02*
X665276Y493750D01*
X698750Y476250D02*
X700000Y477500D01*
X686250Y466250D02*
Y476250D01*
X693750Y483474D02*
X696250Y480974D01*
X693750Y483474D02*
Y494000D01*
X654750Y327500D02*
Y328500D01*
X668750Y342500D02*
X689459D01*
X662750Y330250D02*
X670000Y337500D01*
X695000D01*
X697500Y340000D01*
Y346250D01*
X696250Y347500D02*
X697500Y346250D01*
X662750Y327500D02*
Y330250D01*
X689459Y347500D02*
X696250D01*
X681250Y327500D02*
X698500D01*
X613000Y485281D02*
X615000Y483281D01*
X627224Y501526D02*
X635000Y493750D01*
X627224Y501526D02*
Y510000D01*
X633750Y478750D02*
Y492500D01*
X635000Y493750D01*
Y502500D02*
X636250Y501250D01*
X622500Y503750D02*
X623760Y502490D01*
X621260Y513740D02*
X622500Y512500D01*
X617776Y513740D02*
X621260D01*
X622500Y503750D02*
Y512500D01*
X623760Y487240D02*
Y502490D01*
X615000Y480000D02*
Y483281D01*
X613125Y312500D02*
Y473750D01*
X620000Y336250D02*
X640000D01*
X618375Y337875D02*
X620000Y336250D01*
X666250Y466250D02*
Y476250D01*
X656250Y422500D02*
X660000D01*
X656250Y466250D02*
Y476250D01*
X665000Y382500D02*
X680000Y367500D01*
X665000Y421000D02*
X670250Y426250D01*
Y427500D01*
X680000Y367500D02*
X689459D01*
X665000Y382500D02*
Y421000D01*
X653041Y352500D02*
X658750D01*
X637500Y472500D02*
X640000Y475000D01*
X634375Y472500D02*
X637500D01*
X640000Y485625D02*
X641250Y486875D01*
X640000Y475000D02*
Y485625D01*
X646250Y468750D02*
Y476250D01*
X643125Y400625D02*
X646250Y397500D01*
X643125Y400625D02*
Y412125D01*
X635000Y420250D02*
X643125Y412125D01*
X646250Y397500D02*
X653041D01*
X646250Y403750D02*
X647500Y402500D01*
X646250Y403750D02*
Y421500D01*
X645000Y422750D02*
X646250Y421500D01*
X647500Y402500D02*
X653041D01*
X676250Y466250D02*
Y476250D01*
X683125Y435000D02*
X693750D01*
X682250Y435875D02*
X683125Y435000D01*
X682250Y435875D02*
Y437500D01*
X693750Y435000D02*
X695000Y433750D01*
X670250Y437500D02*
Y442125D01*
X673135Y445010D01*
X674026D01*
X670000Y427250D02*
Y438750D01*
X690000Y460000D02*
X691250Y458750D01*
X678474Y501526D02*
X680000Y500000D01*
X698750D02*
X700000Y498750D01*
X686250Y476250D02*
X698750D01*
X670000Y501526D02*
X678474D01*
X680000Y500000D02*
X698750D01*
X700000Y477500D02*
Y498750D01*
X693750Y500000D02*
Y506000D01*
X662500Y501250D02*
X663750Y502500D01*
X624375Y462500D02*
X634375Y472500D01*
X635000Y502500D02*
Y508750D01*
X641250Y486875D02*
Y501250D01*
X657500Y495250D02*
Y501250D01*
X663750Y502500D02*
Y508464D01*
X636250Y501250D02*
X662500D01*
X663750Y508464D02*
X666260Y510974D01*
X644750Y325500D02*
Y327500D01*
Y325500D02*
X652750Y317500D01*
D24*
X635000D02*
Y329000D01*
X690000Y320000D02*
X695000D01*
X687750Y314000D02*
X698750D01*
X623500Y316500D02*
X632750D01*
X626500Y347750D02*
Y352500D01*
X622750D02*
X626500D01*
X630250D01*
X626500D02*
Y357250D01*
X622750Y371250D02*
X626500D01*
Y366500D02*
Y371250D01*
X630250D01*
X632750Y316500D02*
X642000D01*
X635000Y329000D02*
Y332750D01*
X647559Y372500D02*
X653041D01*
X658524D01*
X613625Y498750D02*
X618125D01*
X614557Y506260D02*
X617776D01*
X615000Y474750D02*
Y480000D01*
X617776Y506260D02*
Y509183D01*
X618125Y494250D02*
Y498750D01*
X640000Y440500D02*
Y445000D01*
X635625D02*
X640000D01*
X661000Y317500D02*
X664750D01*
X668500D01*
X672750Y327500D02*
Y333000D01*
X683976Y362500D02*
X689459D01*
X698750Y310250D02*
Y314000D01*
Y317750D01*
Y314000D02*
X703500D01*
X689459Y362500D02*
X694941D01*
X698750Y371750D02*
Y376250D01*
X703000D01*
X698750Y388750D02*
Y393250D01*
X675000Y410000D02*
Y415000D01*
X666250Y476250D02*
Y481250D01*
X674724Y494567D02*
Y497490D01*
X677943D01*
X690500Y423750D02*
X695000D01*
Y428250D01*
Y423750D02*
X699500D01*
X699990Y468307D02*
Y471526D01*
X697067D02*
X699990D01*
X676250Y310000D02*
X682125Y315875D01*
D25*
X624375Y462500D02*
D03*
X695000Y433750D02*
D03*
Y423750D02*
D03*
X638750Y380625D02*
D03*
Y360625D02*
D03*
X666250Y451250D02*
D03*
X636250Y462500D02*
D03*
X633750Y478750D02*
D03*
X618125Y498750D02*
D03*
Y488750D02*
D03*
D26*
X615000Y480000D02*
D03*
D27*
X675000Y415000D02*
D03*
X665000D02*
D03*
X655000D02*
D03*
X685000D02*
D03*
D28*
X695000D02*
D03*
X656250Y476250D02*
D03*
Y466250D02*
D03*
X676250Y476250D02*
D03*
Y466250D02*
D03*
X686250Y476250D02*
D03*
X646250D02*
D03*
Y466250D02*
D03*
X666250D02*
D03*
Y476250D02*
D03*
D29*
X661250Y442500D02*
D03*
X658750Y452500D02*
D03*
D30*
X640000Y445000D02*
D03*
X650000D02*
D03*
D31*
X686250Y466250D02*
D03*
D32*
X697500Y451250D02*
D03*
D33*
X698750Y388750D02*
D03*
Y376250D02*
D03*
D34*
X644750Y327500D02*
D03*
X672750D02*
D03*
D35*
X632750Y316500D02*
D03*
X684750D02*
D03*
D36*
X654750Y327500D02*
D03*
X662750D02*
D03*
M02*
