%FSLAX25Y25*%
%MOIN*%
G70*
G01*
G75*
G04 Layer_Color=32896*
%ADD10C,0.01000*%
%ADD11R,0.05000X0.07000*%
%ADD12C,0.01500*%
%ADD13C,0.03000*%
%ADD14C,0.02000*%
%ADD15O,0.08500X0.06500*%
%ADD16O,0.09500X0.07000*%
%ADD17C,0.30000*%
%ADD18C,0.07500*%
%ADD19C,0.06500*%
%ADD20C,0.00787*%
%ADD21C,0.00600*%
%ADD22R,0.02500X0.02500*%
D10*
X288750Y201250D02*
Y207500D01*
X296250Y193750D02*
X302500D01*
X288750Y180000D02*
Y186250D01*
X275000Y193750D02*
X281250D01*
X288750Y397500D02*
Y403750D01*
X296250Y411250D02*
X302500D01*
X288750Y418750D02*
Y425000D01*
X275000Y411250D02*
X281250D01*
X161250Y201250D02*
Y207500D01*
X147500Y193750D02*
X153750D01*
X161250Y180000D02*
Y186250D01*
X168750Y193750D02*
X175000D01*
X168750Y411250D02*
X175000D01*
X161250Y418750D02*
Y425000D01*
X147500Y411250D02*
X153750D01*
X161250Y397500D02*
Y403750D01*
X223376Y225000D02*
X226875D01*
X225709Y223834D01*
X226875Y222667D01*
X223376D01*
X226292Y221501D02*
X226875Y220918D01*
Y219752D01*
X226292Y219169D01*
X223959D01*
X223376Y219752D01*
Y220918D01*
X223959Y221501D01*
X224542D01*
X225126Y220918D01*
Y219169D01*
D20*
X288750Y207750D02*
G03*
X274750Y193750I0J-14000D01*
G01*
X288750Y207250D02*
G03*
X275250Y193750I0J-13500D01*
G01*
X288750Y206750D02*
G03*
X275750Y193750I0J-13000D01*
G01*
X288750Y206250D02*
G03*
X276250Y193750I0J-12500D01*
G01*
X288750Y205750D02*
G03*
X276750Y193750I0J-12000D01*
G01*
X288750Y205250D02*
G03*
X277250Y193750I0J-11500D01*
G01*
X288750Y204750D02*
G03*
X277750Y193750I0J-11000D01*
G01*
X288750Y204250D02*
G03*
X278250Y193750I0J-10500D01*
G01*
X288750Y203750D02*
G03*
X278750Y193750I0J-10000D01*
G01*
X288750Y203250D02*
G03*
X279250Y193750I0J-9500D01*
G01*
X288750Y202250D02*
G03*
X280250Y193750I0J-8500D01*
G01*
X288750Y202750D02*
G03*
X279750Y193750I0J-9000D01*
G01*
X288750Y201750D02*
G03*
X280750Y193750I0J-8000D01*
G01*
X288750Y201250D02*
G03*
X281250Y193750I0J-7500D01*
G01*
X295750D02*
G03*
X295750Y193750I-7000J0D01*
G01*
X288750Y179750D02*
G03*
X302750Y193750I0J14000D01*
G01*
X288750Y180250D02*
G03*
X302250Y193750I0J13500D01*
G01*
X288750Y180750D02*
G03*
X301750Y193750I0J13000D01*
G01*
X288750Y181250D02*
G03*
X301250Y193750I0J12500D01*
G01*
X288750Y181750D02*
G03*
X300750Y193750I0J12000D01*
G01*
X288750Y182250D02*
G03*
X300250Y193750I0J11500D01*
G01*
X288750Y182750D02*
G03*
X299750Y193750I0J11000D01*
G01*
X288750Y183250D02*
G03*
X299250Y193750I0J10500D01*
G01*
X288750Y183750D02*
G03*
X298750Y193750I0J10000D01*
G01*
X288750Y184250D02*
G03*
X298250Y193750I0J9500D01*
G01*
X288750Y185250D02*
G03*
X297250Y193750I0J8500D01*
G01*
X288750Y184750D02*
G03*
X297750Y193750I0J9000D01*
G01*
X288750Y185750D02*
G03*
X296750Y193750I0J8000D01*
G01*
X302750D02*
G03*
X302750Y193750I-14000J0D01*
G01*
X288750Y186250D02*
G03*
X296250Y193750I0J7500D01*
G01*
Y411250D02*
G03*
X288750Y418750I-7500J0D01*
G01*
X302750Y411250D02*
G03*
X302750Y411250I-14000J0D01*
G01*
X296750D02*
G03*
X288750Y419250I-8000J0D01*
G01*
X297750Y411250D02*
G03*
X288750Y420250I-9000J0D01*
G01*
X297250Y411250D02*
G03*
X288750Y419750I-8500J0D01*
G01*
X298250Y411250D02*
G03*
X288750Y420750I-9500J0D01*
G01*
X298750Y411250D02*
G03*
X288750Y421250I-10000J0D01*
G01*
X299250Y411250D02*
G03*
X288750Y421750I-10500J0D01*
G01*
X299750Y411250D02*
G03*
X288750Y422250I-11000J0D01*
G01*
X300250Y411250D02*
G03*
X288750Y422750I-11500J0D01*
G01*
X300750Y411250D02*
G03*
X288750Y423250I-12000J0D01*
G01*
X301250Y411250D02*
G03*
X288750Y423750I-12500J0D01*
G01*
X301750Y411250D02*
G03*
X288750Y424250I-13000J0D01*
G01*
X302250Y411250D02*
G03*
X288750Y424750I-13500J0D01*
G01*
X302750Y411250D02*
G03*
X288750Y425250I-14000J0D01*
G01*
X295750Y411250D02*
G03*
X295750Y411250I-7000J0D01*
G01*
X281250D02*
G03*
X288750Y403750I7500J0D01*
G01*
X280750Y411250D02*
G03*
X288750Y403250I8000J0D01*
G01*
X279750Y411250D02*
G03*
X288750Y402250I9000J0D01*
G01*
X280250Y411250D02*
G03*
X288750Y402750I8500J0D01*
G01*
X279250Y411250D02*
G03*
X288750Y401750I9500J0D01*
G01*
X278750Y411250D02*
G03*
X288750Y401250I10000J0D01*
G01*
X278250Y411250D02*
G03*
X288750Y400750I10500J0D01*
G01*
X277750Y411250D02*
G03*
X288750Y400250I11000J0D01*
G01*
X277250Y411250D02*
G03*
X288750Y399750I11500J0D01*
G01*
X276750Y411250D02*
G03*
X288750Y399250I12000J0D01*
G01*
X276250Y411250D02*
G03*
X288750Y398750I12500J0D01*
G01*
X275750Y411250D02*
G03*
X288750Y398250I13000J0D01*
G01*
X275250Y411250D02*
G03*
X288750Y397750I13500J0D01*
G01*
X274750Y411250D02*
G03*
X288750Y397250I14000J0D01*
G01*
X153750Y193750D02*
G03*
X161250Y186250I7500J0D01*
G01*
X175250Y193750D02*
G03*
X175250Y193750I-14000J0D01*
G01*
X153250D02*
G03*
X161250Y185750I8000J0D01*
G01*
X152250Y193750D02*
G03*
X161250Y184750I9000J0D01*
G01*
X152750Y193750D02*
G03*
X161250Y185250I8500J0D01*
G01*
X151750Y193750D02*
G03*
X161250Y184250I9500J0D01*
G01*
X151250Y193750D02*
G03*
X161250Y183750I10000J0D01*
G01*
X150750Y193750D02*
G03*
X161250Y183250I10500J0D01*
G01*
X150250Y193750D02*
G03*
X161250Y182750I11000J0D01*
G01*
X149750Y193750D02*
G03*
X161250Y182250I11500J0D01*
G01*
X149250Y193750D02*
G03*
X161250Y181750I12000J0D01*
G01*
X148750Y193750D02*
G03*
X161250Y181250I12500J0D01*
G01*
X148250Y193750D02*
G03*
X161250Y180750I13000J0D01*
G01*
X147750Y193750D02*
G03*
X161250Y180250I13500J0D01*
G01*
X147250Y193750D02*
G03*
X161250Y179750I14000J0D01*
G01*
X168250Y193750D02*
G03*
X168250Y193750I-7000J0D01*
G01*
X168750D02*
G03*
X161250Y201250I-7500J0D01*
G01*
X169250Y193750D02*
G03*
X161250Y201750I-8000J0D01*
G01*
X170250Y193750D02*
G03*
X161250Y202750I-9000J0D01*
G01*
X169750Y193750D02*
G03*
X161250Y202250I-8500J0D01*
G01*
X170750Y193750D02*
G03*
X161250Y203250I-9500J0D01*
G01*
X171250Y193750D02*
G03*
X161250Y203750I-10000J0D01*
G01*
X171750Y193750D02*
G03*
X161250Y204250I-10500J0D01*
G01*
X172250Y193750D02*
G03*
X161250Y204750I-11000J0D01*
G01*
X172750Y193750D02*
G03*
X161250Y205250I-11500J0D01*
G01*
X173250Y193750D02*
G03*
X161250Y205750I-12000J0D01*
G01*
X173750Y193750D02*
G03*
X161250Y206250I-12500J0D01*
G01*
X174250Y193750D02*
G03*
X161250Y206750I-13000J0D01*
G01*
X174750Y193750D02*
G03*
X161250Y207250I-13500J0D01*
G01*
X175250Y193750D02*
G03*
X161250Y207750I-14000J0D01*
G01*
Y418750D02*
G03*
X153750Y411250I0J-7500D01*
G01*
X175250D02*
G03*
X175250Y411250I-14000J0D01*
G01*
X161250Y419250D02*
G03*
X153250Y411250I0J-8000D01*
G01*
X161250Y420250D02*
G03*
X152250Y411250I0J-9000D01*
G01*
X161250Y419750D02*
G03*
X152750Y411250I0J-8500D01*
G01*
X161250Y420750D02*
G03*
X151750Y411250I0J-9500D01*
G01*
X161250Y421250D02*
G03*
X151250Y411250I0J-10000D01*
G01*
X161250Y421750D02*
G03*
X150750Y411250I0J-10500D01*
G01*
X161250Y422250D02*
G03*
X150250Y411250I0J-11000D01*
G01*
X161250Y422750D02*
G03*
X149750Y411250I0J-11500D01*
G01*
X161250Y423250D02*
G03*
X149250Y411250I0J-12000D01*
G01*
X161250Y423750D02*
G03*
X148750Y411250I0J-12500D01*
G01*
X161250Y424250D02*
G03*
X148250Y411250I0J-13000D01*
G01*
X161250Y424750D02*
G03*
X147750Y411250I0J-13500D01*
G01*
X161250Y425250D02*
G03*
X147250Y411250I0J-14000D01*
G01*
X168250D02*
G03*
X168250Y411250I-7000J0D01*
G01*
X161250Y403750D02*
G03*
X168750Y411250I0J7500D01*
G01*
X161250Y403250D02*
G03*
X169250Y411250I0J8000D01*
G01*
X161250Y402250D02*
G03*
X170250Y411250I0J9000D01*
G01*
X161250Y402750D02*
G03*
X169750Y411250I0J8500D01*
G01*
X161250Y401750D02*
G03*
X170750Y411250I0J9500D01*
G01*
X161250Y401250D02*
G03*
X171250Y411250I0J10000D01*
G01*
X161250Y400750D02*
G03*
X171750Y411250I0J10500D01*
G01*
X161250Y400250D02*
G03*
X172250Y411250I0J11000D01*
G01*
X161250Y399750D02*
G03*
X172750Y411250I0J11500D01*
G01*
X161250Y399250D02*
G03*
X173250Y411250I0J12000D01*
G01*
X161250Y398750D02*
G03*
X173750Y411250I0J12500D01*
G01*
X161250Y398250D02*
G03*
X174250Y411250I0J13000D01*
G01*
X161250Y397750D02*
G03*
X174750Y411250I0J13500D01*
G01*
X161250Y397250D02*
G03*
X175250Y411250I0J14000D01*
G01*
X235000Y217500D02*
Y227500D01*
X215000Y217500D02*
Y227500D01*
X228000D02*
X235000D01*
X215000D02*
X222000D01*
X228000Y217500D02*
X235000D01*
X215000D02*
X222000D01*
X301250Y176250D02*
X306250D01*
Y181250D01*
X301250Y428750D02*
X306250D01*
Y423750D02*
Y428750D01*
X143750Y176250D02*
X148750D01*
X143750D02*
Y181250D01*
Y423750D02*
Y428750D01*
X148750D01*
M02*
