%FSLAX25Y25*%
%MOIN*%
G70*
G01*
G75*
G04 Layer_Color=65535*
%ADD10C,0.01000*%
%ADD11R,0.05000X0.07000*%
%ADD12C,0.01500*%
%ADD13C,0.03000*%
%ADD14C,0.02000*%
%ADD15O,0.08500X0.06500*%
%ADD16O,0.09500X0.07000*%
%ADD17C,0.30000*%
%ADD18C,0.07500*%
%ADD19C,0.06500*%
%ADD20C,0.00787*%
%ADD21C,0.00600*%
%ADD22R,0.02500X0.02500*%
D10*
X136500Y428750D02*
X142750D01*
X136500Y176250D02*
X142750D01*
X137500Y309623D02*
Y428750D01*
Y176250D02*
Y292177D01*
X135500Y422750D02*
X137500Y428750D01*
X139500Y422750D01*
X137500Y176250D02*
X139500Y182250D01*
X135500D02*
X137500Y176250D01*
X143750Y169000D02*
Y175250D01*
X306250Y169000D02*
Y175250D01*
X143750Y170000D02*
X214302D01*
X232498D02*
X306250D01*
X143750D02*
X149750Y168000D01*
X143750Y170000D02*
X149750Y172000D01*
X300250D02*
X306250Y170000D01*
X300250Y168000D02*
X306250Y170000D01*
X146250Y325000D02*
Y335000D01*
Y345000D02*
Y355000D01*
Y335000D02*
X155000D01*
X148750Y332500D02*
X155000Y335000D01*
X148750Y337500D02*
X155000Y335000D01*
X148750Y332500D02*
Y337500D01*
X149375Y333125D02*
Y336875D01*
X150000Y333750D02*
Y336250D01*
X150625Y333750D02*
Y336250D01*
X151250Y333750D02*
Y336250D01*
X151875Y334375D02*
Y335625D01*
X152500Y334375D02*
Y335625D01*
X146250Y345000D02*
X155000D01*
X148750Y342500D02*
X155000Y345000D01*
X148750Y347500D02*
X155000Y345000D01*
X148750Y342500D02*
Y347500D01*
X149375Y343125D02*
Y346875D01*
X150000Y343750D02*
Y346250D01*
X150625Y343750D02*
Y346250D01*
X151250Y343750D02*
Y346250D01*
X151875Y344375D02*
Y345625D01*
X152500Y344375D02*
Y345625D01*
X162500Y288750D02*
X180000D01*
X173750Y286250D02*
X180000Y288750D01*
X173750Y291250D02*
X180000Y288750D01*
X173750Y286250D02*
Y291250D01*
X174375Y286875D02*
Y290625D01*
X175000Y287500D02*
Y290000D01*
X175625Y287500D02*
Y290000D01*
X176250Y287500D02*
Y290000D01*
X176875Y288125D02*
Y289375D01*
X177500Y288125D02*
Y289375D01*
Y388125D02*
Y389375D01*
X176875Y388125D02*
Y389375D01*
X176250Y387500D02*
Y390000D01*
X175625Y387500D02*
Y390000D01*
X175000Y387500D02*
Y390000D01*
X174375Y386875D02*
Y390625D01*
X173750Y386250D02*
Y391250D01*
X180000Y388750D01*
X173750Y386250D02*
X180000Y388750D01*
X162500D02*
X180000D01*
X275000Y193750D02*
X281250D01*
X288750Y180000D02*
Y186250D01*
X296250Y193750D02*
X302500D01*
X288750Y201250D02*
Y207500D01*
X275000Y411250D02*
X281250D01*
X288750Y418750D02*
Y425000D01*
X296250Y411250D02*
X302500D01*
X288750Y397500D02*
Y403750D01*
X168750Y193750D02*
X175000D01*
X161250Y180000D02*
Y186250D01*
X147500Y193750D02*
X153750D01*
X161250Y201250D02*
Y207500D01*
Y397500D02*
Y403750D01*
X147500Y411250D02*
X153750D01*
X161250Y418750D02*
Y425000D01*
X168750Y411250D02*
X175000D01*
X143750Y176250D02*
X306250D01*
X143750D02*
Y428750D01*
X306250D01*
Y176250D02*
Y428750D01*
X286083Y382249D02*
X284916D01*
X285499D01*
Y379333D01*
X284916Y378750D01*
X284333D01*
X283750Y379333D01*
X287249Y378750D02*
Y382249D01*
X288998D01*
X289581Y381666D01*
Y380499D01*
X288998Y379916D01*
X287249D01*
X293080Y378750D02*
X290748D01*
X293080Y381083D01*
Y381666D01*
X292497Y382249D01*
X291331D01*
X290748Y381666D01*
X182500Y425999D02*
Y423083D01*
X183083Y422500D01*
X184249D01*
X184833Y423083D01*
Y425999D01*
X188331Y422500D02*
X185999D01*
X188331Y424833D01*
Y425416D01*
X187748Y425999D01*
X186582D01*
X185999Y425416D01*
X171083Y341624D02*
X169916D01*
X170499D01*
Y338708D01*
X169916Y338125D01*
X169333D01*
X168750Y338708D01*
X172249Y338125D02*
Y341624D01*
X173998D01*
X174581Y341041D01*
Y339874D01*
X173998Y339291D01*
X172249D01*
X175748Y338125D02*
X176914D01*
X176331D01*
Y341624D01*
X175748Y341041D01*
X146250Y321624D02*
Y318125D01*
X147999D01*
X148583Y318708D01*
Y321041D01*
X147999Y321624D01*
X146250D01*
X149749D02*
X150915D01*
X150332D01*
Y318125D01*
X149749D01*
X150915D01*
X152665D02*
Y321624D01*
X154414D01*
X154997Y321041D01*
Y319874D01*
X154414Y319291D01*
X152665D01*
X156164Y321041D02*
X156747Y321624D01*
X157913D01*
X158496Y321041D01*
Y320458D01*
X157913Y319874D01*
X158496Y319291D01*
Y318708D01*
X157913Y318125D01*
X156747D01*
X156164Y318708D01*
Y319291D01*
X156747Y319874D01*
X156164Y320458D01*
Y321041D01*
X156747Y319874D02*
X157913D01*
X159662Y318125D02*
Y318708D01*
X160246D01*
Y318125D01*
X159662D01*
X162578D02*
Y318708D01*
X163161D01*
Y318125D01*
X162578D01*
X165494D02*
X166660D01*
X166077D01*
Y321624D01*
X165494Y321041D01*
X168410D02*
X168993Y321624D01*
X170159D01*
X170742Y321041D01*
Y320458D01*
X170159Y319874D01*
X170742Y319291D01*
Y318708D01*
X170159Y318125D01*
X168993D01*
X168410Y318708D01*
Y319291D01*
X168993Y319874D01*
X168410Y320458D01*
Y321041D01*
X168993Y319874D02*
X170159D01*
X146250Y361624D02*
Y358125D01*
X147999D01*
X148583Y358708D01*
Y361041D01*
X147999Y361624D01*
X146250D01*
X149749D02*
X150915D01*
X150332D01*
Y358125D01*
X149749D01*
X150915D01*
X152665D02*
Y361624D01*
X154414D01*
X154997Y361041D01*
Y359874D01*
X154414Y359291D01*
X152665D01*
X157913Y358125D02*
Y361624D01*
X156164Y359874D01*
X158496D01*
X159662Y361041D02*
X160246Y361624D01*
X161412D01*
X161995Y361041D01*
Y358708D01*
X161412Y358125D01*
X160246D01*
X159662Y358708D01*
Y361041D01*
X163161Y358125D02*
Y358708D01*
X163744D01*
Y358125D01*
X163161D01*
X166077D02*
Y358708D01*
X166660D01*
Y358125D01*
X166077D01*
X171325D02*
X168993D01*
X171325Y360458D01*
Y361041D01*
X170742Y361624D01*
X169576D01*
X168993Y361041D01*
X172492D02*
X173075Y361624D01*
X174241D01*
X174824Y361041D01*
Y360458D01*
X174241Y359874D01*
X174824Y359291D01*
Y358708D01*
X174241Y358125D01*
X173075D01*
X172492Y358708D01*
Y359291D01*
X173075Y359874D01*
X172492Y360458D01*
Y361041D01*
X173075Y359874D02*
X174241D01*
X148125Y283499D02*
Y280000D01*
X149874D01*
X150458Y280583D01*
Y282916D01*
X149874Y283499D01*
X148125D01*
X151624D02*
X152790D01*
X152207D01*
Y280000D01*
X151624D01*
X152790D01*
X154540D02*
Y283499D01*
X156289D01*
X156872Y282916D01*
Y281749D01*
X156289Y281166D01*
X154540D01*
X148125Y276041D02*
X148708Y276624D01*
X149874D01*
X150458Y276041D01*
Y275458D01*
X149874Y274874D01*
X150458Y274291D01*
Y273708D01*
X149874Y273125D01*
X148708D01*
X148125Y273708D01*
Y274291D01*
X148708Y274874D01*
X148125Y275458D01*
Y276041D01*
X148708Y274874D02*
X149874D01*
X151624Y273125D02*
Y273708D01*
X152207D01*
Y273125D01*
X151624D01*
X154540D02*
Y273708D01*
X155123D01*
Y273125D01*
X154540D01*
X157455D02*
X158622D01*
X158038D01*
Y276624D01*
X157455Y276041D01*
X160371D02*
X160954Y276624D01*
X162120D01*
X162704Y276041D01*
Y275458D01*
X162120Y274874D01*
X162704Y274291D01*
Y273708D01*
X162120Y273125D01*
X160954D01*
X160371Y273708D01*
Y274291D01*
X160954Y274874D01*
X160371Y275458D01*
Y276041D01*
X160954Y274874D02*
X162120D01*
X149874Y373125D02*
Y376624D01*
X148125Y374874D01*
X150458D01*
X151624Y376041D02*
X152207Y376624D01*
X153373D01*
X153956Y376041D01*
Y373708D01*
X153373Y373125D01*
X152207D01*
X151624Y373708D01*
Y376041D01*
X155123Y373125D02*
Y373708D01*
X155706D01*
Y373125D01*
X155123D01*
X158038D02*
Y373708D01*
X158622D01*
Y373125D01*
X158038D01*
X163287D02*
X160954D01*
X163287Y375458D01*
Y376041D01*
X162704Y376624D01*
X161537D01*
X160954Y376041D01*
X164453D02*
X165036Y376624D01*
X166202D01*
X166786Y376041D01*
Y375458D01*
X166202Y374874D01*
X166786Y374291D01*
Y373708D01*
X166202Y373125D01*
X165036D01*
X164453Y373708D01*
Y374291D01*
X165036Y374874D01*
X164453Y375458D01*
Y376041D01*
X165036Y374874D02*
X166202D01*
X148125Y286875D02*
Y290374D01*
X149874D01*
X150458Y289791D01*
Y288624D01*
X149874Y288041D01*
X148125D01*
X151624Y290374D02*
X152790D01*
X152207D01*
Y286875D01*
X151624D01*
X152790D01*
X154540D02*
Y290374D01*
X156872Y286875D01*
Y290374D01*
X158038Y286875D02*
X159205D01*
X158622D01*
Y290374D01*
X158038Y289791D01*
X148125Y383499D02*
Y380000D01*
X149874D01*
X150458Y380583D01*
Y382916D01*
X149874Y383499D01*
X148125D01*
X151624D02*
X152790D01*
X152207D01*
Y380000D01*
X151624D01*
X152790D01*
X154540D02*
Y383499D01*
X156289D01*
X156872Y382916D01*
Y381749D01*
X156289Y381166D01*
X154540D01*
X148125Y386875D02*
Y390374D01*
X149874D01*
X150458Y389791D01*
Y388624D01*
X149874Y388041D01*
X148125D01*
X151624Y390374D02*
X152790D01*
X152207D01*
Y386875D01*
X151624D01*
X152790D01*
X154540D02*
Y390374D01*
X156872Y386875D01*
Y390374D01*
X158038Y386875D02*
X159205D01*
X158622D01*
Y390374D01*
X158038Y389791D01*
X279375Y282500D02*
Y285999D01*
X281124D01*
X281708Y285416D01*
Y284249D01*
X281124Y283666D01*
X279375D01*
X282874Y285999D02*
X284040D01*
X283457D01*
Y282500D01*
X282874D01*
X284040D01*
X285790D02*
Y285999D01*
X288122Y282500D01*
Y285999D01*
X291038D02*
X289872D01*
X289288Y285416D01*
Y283083D01*
X289872Y282500D01*
X291038D01*
X291621Y283083D01*
Y285416D01*
X291038Y285999D01*
X292787D02*
Y283083D01*
X293371Y282500D01*
X294537D01*
X295120Y283083D01*
Y285999D01*
X296286D02*
X298619D01*
X297452D01*
Y282500D01*
X287126Y228125D02*
X289459D01*
X290625Y229291D01*
X289459Y230458D01*
X287126D01*
X290625Y231624D02*
X287126D01*
Y233373D01*
X287709Y233956D01*
X288876D01*
X289459Y233373D01*
Y231624D01*
X290625Y235123D02*
X287126D01*
Y236872D01*
X287709Y237455D01*
X288876D01*
X289459Y236872D01*
Y235123D01*
X277751Y238125D02*
X280084D01*
X281250Y239291D01*
X280084Y240458D01*
X277751D01*
Y241624D02*
X281250D01*
Y243373D01*
X280667Y243956D01*
X278334D01*
X277751Y243373D01*
Y241624D01*
Y245123D02*
X281250D01*
Y246872D01*
X280667Y247455D01*
X278334D01*
X277751Y246872D01*
Y245123D01*
X287709Y250458D02*
X287126Y249874D01*
Y248708D01*
X287709Y248125D01*
X290042D01*
X290625Y248708D01*
Y249874D01*
X290042Y250458D01*
X288876D01*
Y249291D01*
X290625Y251624D02*
X287126D01*
X290625Y253956D01*
X287126D01*
Y255123D02*
X290625D01*
Y256872D01*
X290042Y257455D01*
X287709D01*
X287126Y256872D01*
Y255123D01*
X281250Y258125D02*
X277751D01*
Y259874D01*
X278334Y260458D01*
X279501D01*
X280084Y259874D01*
Y258125D01*
X278334Y263956D02*
X277751Y263373D01*
Y262207D01*
X278334Y261624D01*
X280667D01*
X281250Y262207D01*
Y263373D01*
X280667Y263956D01*
X279501D01*
Y262790D01*
X277751Y265123D02*
X281250D01*
Y266872D01*
X280667Y267455D01*
X278334D01*
X277751Y266872D01*
Y265123D01*
X290625Y268125D02*
X287126D01*
Y269874D01*
X287709Y270458D01*
X288876D01*
X289459Y269874D01*
Y268125D01*
X287709Y273956D02*
X287126Y273373D01*
Y272207D01*
X287709Y271624D01*
X290042D01*
X290625Y272207D01*
Y273373D01*
X290042Y273956D01*
X288876D01*
Y272790D01*
X287709Y277455D02*
X287126Y276872D01*
Y275706D01*
X287709Y275123D01*
X290042D01*
X290625Y275706D01*
Y276872D01*
X290042Y277455D01*
D20*
X222500Y428750D02*
G03*
X227500Y428750I2500J0D01*
G01*
X288750Y186250D02*
G03*
X296250Y193750I0J7500D01*
G01*
X302750D02*
G03*
X302750Y193750I-14000J0D01*
G01*
X288750Y185750D02*
G03*
X296750Y193750I0J8000D01*
G01*
X288750Y184750D02*
G03*
X297750Y193750I0J9000D01*
G01*
X288750Y185250D02*
G03*
X297250Y193750I0J8500D01*
G01*
X288750Y184250D02*
G03*
X298250Y193750I0J9500D01*
G01*
X288750Y183750D02*
G03*
X298750Y193750I0J10000D01*
G01*
X288750Y183250D02*
G03*
X299250Y193750I0J10500D01*
G01*
X288750Y182750D02*
G03*
X299750Y193750I0J11000D01*
G01*
X288750Y182250D02*
G03*
X300250Y193750I0J11500D01*
G01*
X288750Y181750D02*
G03*
X300750Y193750I0J12000D01*
G01*
X288750Y181250D02*
G03*
X301250Y193750I0J12500D01*
G01*
X288750Y180750D02*
G03*
X301750Y193750I0J13000D01*
G01*
X288750Y180250D02*
G03*
X302250Y193750I0J13500D01*
G01*
X288750Y179750D02*
G03*
X302750Y193750I0J14000D01*
G01*
X295750D02*
G03*
X295750Y193750I-7000J0D01*
G01*
X288750Y201250D02*
G03*
X281250Y193750I0J-7500D01*
G01*
X288750Y201750D02*
G03*
X280750Y193750I0J-8000D01*
G01*
X288750Y202750D02*
G03*
X279750Y193750I0J-9000D01*
G01*
X288750Y202250D02*
G03*
X280250Y193750I0J-8500D01*
G01*
X288750Y203250D02*
G03*
X279250Y193750I0J-9500D01*
G01*
X288750Y203750D02*
G03*
X278750Y193750I0J-10000D01*
G01*
X288750Y204250D02*
G03*
X278250Y193750I0J-10500D01*
G01*
X288750Y204750D02*
G03*
X277750Y193750I0J-11000D01*
G01*
X288750Y205250D02*
G03*
X277250Y193750I0J-11500D01*
G01*
X288750Y205750D02*
G03*
X276750Y193750I0J-12000D01*
G01*
X288750Y206250D02*
G03*
X276250Y193750I0J-12500D01*
G01*
X288750Y206750D02*
G03*
X275750Y193750I0J-13000D01*
G01*
X288750Y207250D02*
G03*
X275250Y193750I0J-13500D01*
G01*
X288750Y207750D02*
G03*
X274750Y193750I0J-14000D01*
G01*
Y411250D02*
G03*
X288750Y397250I14000J0D01*
G01*
X275250Y411250D02*
G03*
X288750Y397750I13500J0D01*
G01*
X275750Y411250D02*
G03*
X288750Y398250I13000J0D01*
G01*
X276250Y411250D02*
G03*
X288750Y398750I12500J0D01*
G01*
X276750Y411250D02*
G03*
X288750Y399250I12000J0D01*
G01*
X277250Y411250D02*
G03*
X288750Y399750I11500J0D01*
G01*
X277750Y411250D02*
G03*
X288750Y400250I11000J0D01*
G01*
X278250Y411250D02*
G03*
X288750Y400750I10500J0D01*
G01*
X278750Y411250D02*
G03*
X288750Y401250I10000J0D01*
G01*
X279250Y411250D02*
G03*
X288750Y401750I9500J0D01*
G01*
X280250Y411250D02*
G03*
X288750Y402750I8500J0D01*
G01*
X279750Y411250D02*
G03*
X288750Y402250I9000J0D01*
G01*
X280750Y411250D02*
G03*
X288750Y403250I8000J0D01*
G01*
X281250Y411250D02*
G03*
X288750Y403750I7500J0D01*
G01*
X295750Y411250D02*
G03*
X295750Y411250I-7000J0D01*
G01*
X302750D02*
G03*
X288750Y425250I-14000J0D01*
G01*
X302250Y411250D02*
G03*
X288750Y424750I-13500J0D01*
G01*
X301750Y411250D02*
G03*
X288750Y424250I-13000J0D01*
G01*
X301250Y411250D02*
G03*
X288750Y423750I-12500J0D01*
G01*
X300750Y411250D02*
G03*
X288750Y423250I-12000J0D01*
G01*
X300250Y411250D02*
G03*
X288750Y422750I-11500J0D01*
G01*
X299750Y411250D02*
G03*
X288750Y422250I-11000J0D01*
G01*
X299250Y411250D02*
G03*
X288750Y421750I-10500J0D01*
G01*
X298750Y411250D02*
G03*
X288750Y421250I-10000J0D01*
G01*
X298250Y411250D02*
G03*
X288750Y420750I-9500J0D01*
G01*
X297250Y411250D02*
G03*
X288750Y419750I-8500J0D01*
G01*
X297750Y411250D02*
G03*
X288750Y420250I-9000J0D01*
G01*
X296750Y411250D02*
G03*
X288750Y419250I-8000J0D01*
G01*
X302750Y411250D02*
G03*
X302750Y411250I-14000J0D01*
G01*
X296250D02*
G03*
X288750Y418750I-7500J0D01*
G01*
X175250Y193750D02*
G03*
X161250Y207750I-14000J0D01*
G01*
X174750Y193750D02*
G03*
X161250Y207250I-13500J0D01*
G01*
X174250Y193750D02*
G03*
X161250Y206750I-13000J0D01*
G01*
X173750Y193750D02*
G03*
X161250Y206250I-12500J0D01*
G01*
X173250Y193750D02*
G03*
X161250Y205750I-12000J0D01*
G01*
X172750Y193750D02*
G03*
X161250Y205250I-11500J0D01*
G01*
X172250Y193750D02*
G03*
X161250Y204750I-11000J0D01*
G01*
X171750Y193750D02*
G03*
X161250Y204250I-10500J0D01*
G01*
X171250Y193750D02*
G03*
X161250Y203750I-10000J0D01*
G01*
X170750Y193750D02*
G03*
X161250Y203250I-9500J0D01*
G01*
X169750Y193750D02*
G03*
X161250Y202250I-8500J0D01*
G01*
X170250Y193750D02*
G03*
X161250Y202750I-9000J0D01*
G01*
X169250Y193750D02*
G03*
X161250Y201750I-8000J0D01*
G01*
X168750Y193750D02*
G03*
X161250Y201250I-7500J0D01*
G01*
X168250Y193750D02*
G03*
X168250Y193750I-7000J0D01*
G01*
X147250D02*
G03*
X161250Y179750I14000J0D01*
G01*
X147750Y193750D02*
G03*
X161250Y180250I13500J0D01*
G01*
X148250Y193750D02*
G03*
X161250Y180750I13000J0D01*
G01*
X148750Y193750D02*
G03*
X161250Y181250I12500J0D01*
G01*
X149250Y193750D02*
G03*
X161250Y181750I12000J0D01*
G01*
X149750Y193750D02*
G03*
X161250Y182250I11500J0D01*
G01*
X150250Y193750D02*
G03*
X161250Y182750I11000J0D01*
G01*
X150750Y193750D02*
G03*
X161250Y183250I10500J0D01*
G01*
X151250Y193750D02*
G03*
X161250Y183750I10000J0D01*
G01*
X151750Y193750D02*
G03*
X161250Y184250I9500J0D01*
G01*
X152750Y193750D02*
G03*
X161250Y185250I8500J0D01*
G01*
X152250Y193750D02*
G03*
X161250Y184750I9000J0D01*
G01*
X153250Y193750D02*
G03*
X161250Y185750I8000J0D01*
G01*
X175250Y193750D02*
G03*
X175250Y193750I-14000J0D01*
G01*
X153750D02*
G03*
X161250Y186250I7500J0D01*
G01*
Y397250D02*
G03*
X175250Y411250I0J14000D01*
G01*
X161250Y397750D02*
G03*
X174750Y411250I0J13500D01*
G01*
X161250Y398250D02*
G03*
X174250Y411250I0J13000D01*
G01*
X161250Y398750D02*
G03*
X173750Y411250I0J12500D01*
G01*
X161250Y399250D02*
G03*
X173250Y411250I0J12000D01*
G01*
X161250Y399750D02*
G03*
X172750Y411250I0J11500D01*
G01*
X161250Y400250D02*
G03*
X172250Y411250I0J11000D01*
G01*
X161250Y400750D02*
G03*
X171750Y411250I0J10500D01*
G01*
X161250Y401250D02*
G03*
X171250Y411250I0J10000D01*
G01*
X161250Y401750D02*
G03*
X170750Y411250I0J9500D01*
G01*
X161250Y402750D02*
G03*
X169750Y411250I0J8500D01*
G01*
X161250Y402250D02*
G03*
X170250Y411250I0J9000D01*
G01*
X161250Y403250D02*
G03*
X169250Y411250I0J8000D01*
G01*
X161250Y403750D02*
G03*
X168750Y411250I0J7500D01*
G01*
X168250D02*
G03*
X168250Y411250I-7000J0D01*
G01*
X161250Y425250D02*
G03*
X147250Y411250I0J-14000D01*
G01*
X161250Y424750D02*
G03*
X147750Y411250I0J-13500D01*
G01*
X161250Y424250D02*
G03*
X148250Y411250I0J-13000D01*
G01*
X161250Y423750D02*
G03*
X148750Y411250I0J-12500D01*
G01*
X161250Y423250D02*
G03*
X149250Y411250I0J-12000D01*
G01*
X161250Y422750D02*
G03*
X149750Y411250I0J-11500D01*
G01*
X161250Y422250D02*
G03*
X150250Y411250I0J-11000D01*
G01*
X161250Y421750D02*
G03*
X150750Y411250I0J-10500D01*
G01*
X161250Y421250D02*
G03*
X151250Y411250I0J-10000D01*
G01*
X161250Y420750D02*
G03*
X151750Y411250I0J-9500D01*
G01*
X161250Y419750D02*
G03*
X152750Y411250I0J-8500D01*
G01*
X161250Y420250D02*
G03*
X152250Y411250I0J-9000D01*
G01*
X161250Y419250D02*
G03*
X153250Y411250I0J-8000D01*
G01*
X175250D02*
G03*
X175250Y411250I-14000J0D01*
G01*
X161250Y418750D02*
G03*
X153750Y411250I0J-7500D01*
G01*
X180000Y176250D02*
X270000D01*
X180000D02*
Y428750D01*
X270000Y176250D02*
Y428750D01*
X227500D02*
X270000D01*
X180000D02*
X222500D01*
X156250Y325000D02*
Y355000D01*
Y325000D02*
X166250D01*
Y355000D01*
X156250D02*
X166250D01*
X156250Y352500D02*
X158750Y355000D01*
X301550Y217000D02*
Y242700D01*
X275950Y217000D02*
X301550D01*
X275950D02*
Y288000D01*
X301550D01*
Y262300D02*
Y288000D01*
X302950Y213100D02*
X305450Y215600D01*
Y213100D02*
Y291900D01*
X272050Y213100D02*
Y291900D01*
Y213100D02*
X305450D01*
X272050Y291900D02*
X305450D01*
X301550Y242700D02*
X305450D01*
X301550Y262300D02*
X305450D01*
X306250Y176250D02*
Y181250D01*
X301250Y176250D02*
X306250D01*
Y423750D02*
Y428750D01*
X301250D02*
X306250D01*
X143750Y176250D02*
Y181250D01*
Y176250D02*
X148750D01*
X143750Y428750D02*
X148750D01*
X143750Y423750D02*
Y428750D01*
X301550Y300750D02*
Y326450D01*
X275950Y300750D02*
X301550D01*
X275950D02*
Y371750D01*
X301550D01*
Y346050D02*
Y371750D01*
X302950Y296850D02*
X305450Y299350D01*
Y296850D02*
Y375650D01*
X272050Y296850D02*
Y375650D01*
Y296850D02*
X305450D01*
X272050Y375650D02*
X305450D01*
X301550Y326450D02*
X305450D01*
X301550Y346050D02*
X305450D01*
D21*
X135851Y296776D02*
X136600Y295277D01*
X138100Y293777D01*
X139600D01*
X140349Y294527D01*
Y296027D01*
X139600Y296776D01*
X138850D01*
X138100Y296027D01*
Y293777D01*
X140349Y298276D02*
X139600D01*
Y299026D01*
X140349D01*
Y298276D01*
Y304274D02*
X135851D01*
X138100Y302025D01*
Y305024D01*
X140349Y306523D02*
Y308023D01*
Y307273D01*
X135851D01*
X136600Y306523D01*
X218152Y167151D02*
Y171649D01*
X215902Y169400D01*
X218901D01*
X220401Y167151D02*
Y167901D01*
X221151D01*
Y167151D01*
X220401D01*
X224150D02*
X225649D01*
X224900D01*
Y171649D01*
X224150Y170899D01*
X227899D02*
X228648Y171649D01*
X230148D01*
X230898Y170899D01*
Y170150D01*
X230148Y169400D01*
X229398D01*
X230148D01*
X230898Y168650D01*
Y167901D01*
X230148Y167151D01*
X228648D01*
X227899Y167901D01*
D22*
X293750Y232500D02*
D03*
X283750D02*
D03*
X293750Y242500D02*
D03*
X283750D02*
D03*
X293750Y252500D02*
D03*
X283750D02*
D03*
X293750Y262500D02*
D03*
X283750D02*
D03*
Y272500D02*
D03*
X293750D02*
D03*
M02*
