%FSLAX25Y25*%
%MOIN*%
G70*
G01*
G75*
G04 Layer_Physical_Order=2*
G04 Layer_Color=16711680*
%ADD10C,0.01000*%
%ADD11R,0.05000X0.07000*%
%ADD12C,0.01500*%
%ADD13C,0.03000*%
%ADD14C,0.02000*%
%ADD15O,0.08500X0.06500*%
%ADD16O,0.09500X0.07000*%
%ADD17C,0.30000*%
%ADD18C,0.07500*%
%ADD19C,0.06500*%
D10*
X241601Y373750D02*
G03*
X242454Y374109I-1601J5000D01*
G01*
X237546D02*
G03*
X238399Y373750I2454J4641D01*
G01*
X242498Y373368D02*
G03*
X241601Y373750I-2498J-4617D01*
G01*
X237352Y373951D02*
G03*
X237320Y373577I148J-201D01*
G01*
X238399Y373750D02*
G03*
X237502Y373368I1601J-5000D01*
G01*
X212498Y363368D02*
G03*
X211601Y363750I-2498J-4617D01*
G01*
X241601Y343750D02*
G03*
X242498Y344132I-1601J5000D01*
G01*
X242454Y343391D02*
G03*
X241601Y343750I-2454J-4641D01*
G01*
X238399D02*
G03*
X237546Y343391I1601J-5000D01*
G01*
X237502Y344132D02*
G03*
X238399Y343750I2498J4617D01*
G01*
X237320Y343923D02*
G03*
X237352Y343549I180J-173D01*
G01*
X211601Y363750D02*
G03*
X212454Y364109I-1601J5000D01*
G01*
Y373391D02*
G03*
X211601Y373750I-2454J-4641D01*
G01*
Y353750D02*
G03*
X212498Y354133I-1601J5000D01*
G01*
X211601Y383750D02*
G03*
X212454Y384109I-1601J5000D01*
G01*
X207546D02*
G03*
X208399Y383750I2454J4641D01*
G01*
X211601Y373750D02*
G03*
X212454Y374109I-1601J5000D01*
G01*
Y383391D02*
G03*
X211601Y383750I-2454J-4641D01*
G01*
Y343750D02*
G03*
X212498Y344132I-1601J5000D01*
G01*
Y353367D02*
G03*
X211601Y353750I-2498J-4617D01*
G01*
Y333750D02*
G03*
X212498Y334133I-1601J5000D01*
G01*
Y343368D02*
G03*
X211601Y343750I-2498J-4617D01*
G01*
Y323750D02*
G03*
X212498Y324132I-1601J5000D01*
G01*
Y333367D02*
G03*
X211601Y333750I-2498J-4617D01*
G01*
X212498Y323368D02*
G03*
X211601Y323750I-2498J-4617D01*
G01*
Y313750D02*
G03*
X212498Y314132I-1601J5000D01*
G01*
X212454Y313391D02*
G03*
X211601Y313750I-2454J-4641D01*
G01*
X212454Y303391D02*
G03*
X211601Y303750I-2454J-4641D01*
G01*
D02*
G03*
X212454Y304109I-1601J5000D01*
G01*
Y293391D02*
G03*
X211601Y293750I-2454J-4641D01*
G01*
D02*
G03*
X212454Y294109I-1601J5000D01*
G01*
X211601Y213750D02*
G03*
X212454Y214109I-1601J5000D01*
G01*
X211601Y203750D02*
G03*
X212454Y204109I-1601J5000D01*
G01*
Y213391D02*
G03*
X211601Y213750I-2454J-4641D01*
G01*
X212454Y203391D02*
G03*
X211601Y203750I-2454J-4641D01*
G01*
X208399Y313750D02*
G03*
X207546Y313391I1601J-5000D01*
G01*
X208399Y303750D02*
G03*
X207546Y303391I1601J-5000D01*
G01*
Y304109D02*
G03*
X208399Y303750I2454J4641D01*
G01*
Y293750D02*
G03*
X207546Y293391I1601J-5000D01*
G01*
Y294109D02*
G03*
X208399Y293750I2454J4641D01*
G01*
X207546Y214109D02*
G03*
X208399Y213750I2454J4641D01*
G01*
X207546Y204109D02*
G03*
X208399Y203750I2454J4641D01*
G01*
Y213750D02*
G03*
X207546Y213391I1601J-5000D01*
G01*
X208399Y203750D02*
G03*
X207546Y203391I1601J-5000D01*
G01*
Y374109D02*
G03*
X208399Y373750I2454J4641D01*
G01*
Y383750D02*
G03*
X207546Y383391I1601J-5000D01*
G01*
Y364109D02*
G03*
X208399Y363750I2454J4641D01*
G01*
Y373750D02*
G03*
X207546Y373391I1601J-5000D01*
G01*
X207502Y354133D02*
G03*
X208399Y353750I2498J4617D01*
G01*
Y363750D02*
G03*
X207502Y363368I1601J-5000D01*
G01*
Y344132D02*
G03*
X208399Y343750I2498J4617D01*
G01*
Y353750D02*
G03*
X207502Y353367I1601J-5000D01*
G01*
Y334133D02*
G03*
X208399Y333750I2498J4617D01*
G01*
Y343750D02*
G03*
X207502Y343368I1601J-5000D01*
G01*
X208399Y333750D02*
G03*
X207502Y333367I1601J-5000D01*
G01*
X208399Y323750D02*
G03*
X207502Y323368I1601J-5000D01*
G01*
Y324132D02*
G03*
X208399Y323750I2498J4617D01*
G01*
X207502Y314132D02*
G03*
X208399Y313750I2498J4617D01*
G01*
X207352Y383951D02*
G03*
X207352Y383549I148J-201D01*
G01*
Y373951D02*
G03*
X207352Y373549I148J-201D01*
G01*
Y363951D02*
G03*
X207320Y363577I148J-201D01*
G01*
Y353923D02*
G03*
X207320Y353577I180J-173D01*
G01*
Y333923D02*
G03*
X207320Y333577I180J-173D01*
G01*
Y343923D02*
G03*
X207320Y343577I180J-173D01*
G01*
Y323923D02*
G03*
X207320Y323577I180J-173D01*
G01*
Y313923D02*
G03*
X207352Y313549I180J-173D01*
G01*
Y293951D02*
G03*
X207352Y293549I148J-201D01*
G01*
Y303951D02*
G03*
X207352Y303549I148J-201D01*
G01*
X198584Y214180D02*
G03*
X198883Y213961I1767J2107D01*
G01*
X207352Y213951D02*
G03*
X207352Y213549I148J-201D01*
G01*
X198584Y214180D02*
G03*
X198883Y213961I1767J2107D01*
G01*
X198584Y204180D02*
G03*
X198883Y203961I1767J2107D01*
G01*
Y213539D02*
G03*
X198584Y213320I1468J-2325D01*
G01*
X197601Y213750D02*
G03*
X198584Y214180I-1601J5000D01*
G01*
X198883Y213539D02*
G03*
X198584Y213320I1468J-2325D01*
G01*
X198584D02*
G03*
X197601Y213750I-2584J-4570D01*
G01*
X207352Y203951D02*
G03*
X207352Y203549I148J-201D01*
G01*
X198584Y204180D02*
G03*
X198883Y203961I1767J2107D01*
G01*
Y203539D02*
G03*
X198584Y203320I1468J-2325D01*
G01*
X198883Y203539D02*
G03*
X198584Y203320I1468J-2325D01*
G01*
X197601Y203750D02*
G03*
X198584Y204180I-1601J5000D01*
G01*
Y203320D02*
G03*
X197601Y203750I-2584J-4570D01*
G01*
X191416Y214180D02*
G03*
X192399Y213750I2584J4570D01*
G01*
X191117Y213961D02*
G03*
X191416Y214180I-1468J2325D01*
G01*
X192399Y213750D02*
G03*
X191416Y213320I1601J-5000D01*
G01*
X191416Y213320D02*
G03*
X191117Y213539I-1767J-2107D01*
G01*
Y213961D02*
G03*
X191416Y214180I-1468J2325D01*
G01*
Y213320D02*
G03*
X191117Y213539I-1767J-2107D01*
G01*
X191416Y204180D02*
G03*
X192399Y203750I2584J4570D01*
G01*
X191117Y203961D02*
G03*
X191416Y204180I-1468J2325D01*
G01*
X192399Y203750D02*
G03*
X191416Y203320I1601J-5000D01*
G01*
X191416Y203320D02*
G03*
X191117Y203539I-1767J-2107D01*
G01*
Y203961D02*
G03*
X191416Y204180I-1468J2325D01*
G01*
Y203320D02*
G03*
X191117Y203539I-1767J-2107D01*
G01*
X168178Y178500D02*
G03*
X178000Y193750I-6928J15250D01*
G01*
D02*
G03*
X146000Y200678I-16750J0D01*
G01*
X187702Y187702D02*
G03*
X190000Y186750I2298J2298D01*
G01*
X181750Y195000D02*
G03*
X182702Y192702I3250J0D01*
G01*
X181750Y195000D02*
G03*
X182702Y192702I3250J0D01*
G01*
X187702Y187702D02*
G03*
X190000Y186750I2298J2298D01*
G01*
X194000Y203750D02*
G03*
X194000Y193750I0J-5000D01*
G01*
Y213750D02*
G03*
X194000Y203750I0J-5000D01*
G01*
Y223750D02*
G03*
X194000Y213750I0J-5000D01*
G01*
Y233750D02*
G03*
X194000Y223750I0J-5000D01*
G01*
Y243750D02*
G03*
X194000Y233750I0J-5000D01*
G01*
X182702Y251048D02*
G03*
X181750Y248750I2298J-2298D01*
G01*
X182702Y251048D02*
G03*
X181750Y248750I2298J-2298D01*
G01*
X188596Y256681D02*
G03*
X187702Y256048I1404J-2931D01*
G01*
X188232Y256982D02*
G03*
X188596Y256681I1768J1768D01*
G01*
X182500Y263750D02*
G03*
X183232Y261982I2500J0D01*
G01*
X182500Y263750D02*
G03*
X183232Y261982I2500J0D01*
G01*
X188232Y256982D02*
G03*
X188596Y256681I1768J1768D01*
G01*
X189032Y248186D02*
G03*
X194000Y243750I4968J564D01*
G01*
Y263750D02*
G03*
X190240Y262046I0J-5000D01*
G01*
X194000Y273750D02*
G03*
X194000Y263750I0J-5000D01*
G01*
Y283750D02*
G03*
X194000Y273750I0J-5000D01*
G01*
Y293750D02*
G03*
X194000Y283750I0J-5000D01*
G01*
Y303750D02*
G03*
X194000Y293750I0J-5000D01*
G01*
X201000Y198750D02*
G03*
X196000Y203750I-5000J0D01*
G01*
Y193750D02*
G03*
X201000Y198750I0J5000D01*
G01*
X196000Y203750D02*
G03*
X201000Y208750I0J5000D01*
G01*
D02*
G03*
X196000Y213750I-5000J0D01*
G01*
D02*
G03*
X201000Y218750I0J5000D01*
G01*
D02*
G03*
X196000Y223750I-5000J0D01*
G01*
D02*
G03*
X201000Y228750I0J5000D01*
G01*
D02*
G03*
X196000Y233750I-5000J0D01*
G01*
D02*
G03*
X201000Y238750I0J5000D01*
G01*
X215000Y198750D02*
G03*
X210000Y203750I-5000J0D01*
G01*
D02*
G03*
X215000Y198750I0J-5000D01*
G01*
X210000Y213750D02*
G03*
X210000Y203750I0J-5000D01*
G01*
D02*
G03*
X215000Y208750I0J5000D01*
G01*
D02*
G03*
X210000Y213750I-5000J0D01*
G01*
Y233750D02*
G03*
X210000Y223750I0J-5000D01*
G01*
D02*
G03*
X210000Y213750I0J-5000D01*
G01*
D02*
G03*
X214770Y217250I0J5000D01*
G01*
X214750Y220311D02*
G03*
X210000Y223750I-4750J-1561D01*
G01*
D02*
G03*
X214750Y227189I0J5000D01*
G01*
X215000Y228750D02*
G03*
X210000Y233750I-5000J0D01*
G01*
D02*
G03*
X215000Y238750I0J5000D01*
G01*
X201000D02*
G03*
X196000Y243750I-5000J0D01*
G01*
D02*
G03*
X201000Y248750I0J5000D01*
G01*
X200330Y261250D02*
G03*
X196000Y263750I-4330J-2500D01*
G01*
D02*
G03*
X200330Y266250I0J5000D01*
G01*
Y271250D02*
G03*
X196000Y273750I-4330J-2500D01*
G01*
X201000Y248750D02*
G03*
X200330Y251250I-5000J0D01*
G01*
X196000Y273750D02*
G03*
X201000Y278750I0J5000D01*
G01*
D02*
G03*
X196000Y283750I-5000J0D01*
G01*
X200330Y291250D02*
G03*
X196000Y293750I-4330J-2500D01*
G01*
Y283750D02*
G03*
X200330Y286250I0J5000D01*
G01*
X196000Y293750D02*
G03*
X201000Y298750I0J5000D01*
G01*
D02*
G03*
X196000Y303750I-5000J0D01*
G01*
X210000Y243750D02*
G03*
X210000Y233750I0J-5000D01*
G01*
X215000Y238750D02*
G03*
X210000Y243750I-5000J0D01*
G01*
D02*
G03*
X215000Y248750I0J5000D01*
G01*
X205670Y251250D02*
G03*
X210000Y243750I4330J-2500D01*
G01*
Y273750D02*
G03*
X205670Y271250I0J-5000D01*
G01*
X210000Y263750D02*
G03*
X205670Y261250I0J-5000D01*
G01*
Y266250D02*
G03*
X210000Y263750I4330J2500D01*
G01*
X215000Y258750D02*
G03*
X210000Y263750I-5000J0D01*
G01*
D02*
G03*
X214330Y266250I0J5000D01*
G01*
X210000Y283750D02*
G03*
X210000Y273750I0J-5000D01*
G01*
X205670Y286250D02*
G03*
X210000Y283750I4330J2500D01*
G01*
Y293750D02*
G03*
X205670Y291250I0J-5000D01*
G01*
X210000Y303750D02*
G03*
X210000Y293750I0J-5000D01*
G01*
X214330Y271250D02*
G03*
X210000Y273750I-4330J-2500D01*
G01*
D02*
G03*
X215000Y278750I0J5000D01*
G01*
D02*
G03*
X210000Y283750I-5000J0D01*
G01*
D02*
G03*
X214191Y286023I0J5000D01*
G01*
X214330Y291250D02*
G03*
X210000Y293750I-4330J-2500D01*
G01*
D02*
G03*
X215000Y298750I0J5000D01*
G01*
D02*
G03*
X210000Y303750I-5000J0D01*
G01*
X158399Y335000D02*
G03*
X160000Y324750I1601J-5000D01*
G01*
X162500D02*
G03*
X167117Y327500I0J5250D01*
G01*
X158399Y345000D02*
G03*
X158399Y335000I1601J-5000D01*
G01*
X167117Y332500D02*
G03*
X164101Y335000I-4617J-2500D01*
G01*
D02*
G03*
X167117Y337500I-1601J5000D01*
G01*
Y342500D02*
G03*
X164101Y345000I-4617J-2500D01*
G01*
X187500Y327500D02*
G03*
X186768Y329268I-2500J0D01*
G01*
X194000Y333750D02*
G03*
X194000Y323750I0J-5000D01*
G01*
X184268Y331768D02*
G03*
X182500Y332500I-1768J-1768D01*
G01*
X184268Y331768D02*
G03*
X182500Y332500I-1768J-1768D01*
G01*
Y337500D02*
G03*
X184268Y338232I0J2500D01*
G01*
X182500Y337500D02*
G03*
X184268Y338232I0J2500D01*
G01*
X186768Y340732D02*
G03*
X187500Y342500I-1768J1768D01*
G01*
X186768Y340732D02*
G03*
X187500Y342500I-1768J1768D01*
G01*
Y327500D02*
G03*
X186768Y329268I-2500J0D01*
G01*
X194000Y343750D02*
G03*
X194000Y333750I0J-5000D01*
G01*
X160000Y355250D02*
G03*
X158399Y345000I0J-5250D01*
G01*
X164101D02*
G03*
X167750Y350000I-1601J5000D01*
G01*
D02*
G03*
X162500Y355250I-5250J0D01*
G01*
X146000Y404322D02*
G03*
X178000Y411250I15250J6928D01*
G01*
D02*
G03*
X168178Y426500I-16750J0D01*
G01*
X194000Y353750D02*
G03*
X194000Y343750I0J-5000D01*
G01*
Y363750D02*
G03*
X194000Y353750I0J-5000D01*
G01*
X183232Y380518D02*
G03*
X182500Y378750I1768J-1768D01*
G01*
X183232Y380518D02*
G03*
X182500Y378750I1768J-1768D01*
G01*
X189024Y379238D02*
G03*
X194000Y373750I4976J-488D01*
G01*
X193555Y383770D02*
G03*
X194000Y383750I445J4980D01*
G01*
Y393750D02*
G03*
X189432Y386717I0J-5000D01*
G01*
X194000Y313750D02*
G03*
X194000Y303750I0J-5000D01*
G01*
X201000Y308750D02*
G03*
X196000Y313750I-5000J0D01*
G01*
X194000Y323750D02*
G03*
X194000Y313750I0J-5000D01*
G01*
X196000Y303750D02*
G03*
X201000Y308750I0J5000D01*
G01*
X196000Y313750D02*
G03*
X201000Y318750I0J5000D01*
G01*
D02*
G03*
X196000Y323750I-5000J0D01*
G01*
D02*
G03*
X201000Y328750I0J5000D01*
G01*
X196000Y333750D02*
G03*
X201000Y338750I0J5000D01*
G01*
X196000Y343750D02*
G03*
X201000Y348750I0J5000D01*
G01*
Y328750D02*
G03*
X196000Y333750I-5000J0D01*
G01*
X201000Y338750D02*
G03*
X196000Y343750I-5000J0D01*
G01*
X210000Y313750D02*
G03*
X210000Y303750I0J-5000D01*
G01*
D02*
G03*
X215000Y308750I0J5000D01*
G01*
D02*
G03*
X210000Y313750I-5000J0D01*
G01*
D02*
G03*
X215000Y318750I0J5000D01*
G01*
X210000Y323750D02*
G03*
X210000Y313750I0J-5000D01*
G01*
Y333750D02*
G03*
X210000Y323750I0J-5000D01*
G01*
X215000Y318750D02*
G03*
X210000Y323750I-5000J0D01*
G01*
D02*
G03*
X215000Y328750I0J5000D01*
G01*
X210000Y343750D02*
G03*
X210000Y333750I0J-5000D01*
G01*
Y353750D02*
G03*
X210000Y343750I0J-5000D01*
G01*
X215000Y328750D02*
G03*
X210000Y333750I-5000J0D01*
G01*
D02*
G03*
X215000Y338750I0J5000D01*
G01*
D02*
G03*
X210000Y343750I-5000J0D01*
G01*
D02*
G03*
X215000Y348750I0J5000D01*
G01*
D02*
G03*
X210000Y353750I-5000J0D01*
G01*
X194000Y373750D02*
G03*
X194000Y363750I0J-5000D01*
G01*
Y383750D02*
G03*
X193512Y383726I0J-5000D01*
G01*
X196000Y383750D02*
G03*
X200330Y386250I0J5000D01*
G01*
X196000Y353750D02*
G03*
X201000Y358750I0J5000D01*
G01*
Y348750D02*
G03*
X196000Y353750I-5000J0D01*
G01*
Y363750D02*
G03*
X201000Y368750I0J5000D01*
G01*
Y358750D02*
G03*
X196000Y363750I-5000J0D01*
G01*
Y373750D02*
G03*
X201000Y378750I0J5000D01*
G01*
Y368750D02*
G03*
X196000Y373750I-5000J0D01*
G01*
X201000Y378750D02*
G03*
X196000Y383750I-5000J0D01*
G01*
X200330Y391250D02*
G03*
X196000Y393750I-4330J-2500D01*
G01*
X210000Y353750D02*
G03*
X215000Y358750I0J5000D01*
G01*
X210000Y363750D02*
G03*
X210000Y353750I0J-5000D01*
G01*
Y373750D02*
G03*
X210000Y363750I0J-5000D01*
G01*
X215000Y358750D02*
G03*
X210000Y363750I-5000J0D01*
G01*
D02*
G03*
X215000Y368750I0J5000D01*
G01*
D02*
G03*
X210000Y373750I-5000J0D01*
G01*
Y383750D02*
G03*
X210000Y373750I0J-5000D01*
G01*
D02*
G03*
X215000Y378750I0J5000D01*
G01*
D02*
G03*
X210000Y383750I-5000J0D01*
G01*
X205670Y386250D02*
G03*
X210000Y383750I4330J2500D01*
G01*
D02*
G03*
X215000Y388750I0J5000D01*
G01*
X211294Y393580D02*
G03*
X205670Y391250I-1294J-4830D01*
G01*
X214750Y227189D02*
G03*
X214899Y227750I-4750J1561D01*
G01*
X240000Y203750D02*
G03*
X245000Y198750I0J-5000D01*
G01*
D02*
G03*
X240000Y203750I-5000J0D01*
G01*
Y213750D02*
G03*
X240000Y203750I0J-5000D01*
G01*
D02*
G03*
X245000Y208750I0J5000D01*
G01*
X235230Y217250D02*
G03*
X240000Y213750I4770J1500D01*
G01*
X245000Y208750D02*
G03*
X240000Y213750I-5000J0D01*
G01*
D02*
G03*
X245000Y218750I0J5000D01*
G01*
D02*
G03*
X244330Y221250I-5000J0D01*
G01*
X214899Y227750D02*
G03*
X215000Y228750I-4899J1000D01*
G01*
Y248750D02*
G03*
X214330Y251250I-5000J0D01*
G01*
Y256250D02*
G03*
X215000Y258750I-4330J2500D01*
G01*
X227500Y230000D02*
G03*
X228232Y228232I2500J0D01*
G01*
X227500Y230000D02*
G03*
X228232Y228232I2500J0D01*
G01*
Y254268D02*
G03*
X227500Y252500I1768J-1768D01*
G01*
X228232Y254268D02*
G03*
X227500Y252500I1768J-1768D01*
G01*
X231250Y256250D02*
G03*
X229482Y255518I0J-2500D01*
G01*
X231250Y256250D02*
G03*
X229482Y255518I0J-2500D01*
G01*
X244330Y256250D02*
G03*
X245000Y258750I-4330J2500D01*
G01*
X240000Y263750D02*
G03*
X235670Y256250I0J-5000D01*
G01*
X245000Y258750D02*
G03*
X240000Y263750I-5000J0D01*
G01*
X225732Y266982D02*
G03*
X227500Y266250I1768J1768D01*
G01*
X225732Y266982D02*
G03*
X227500Y266250I1768J1768D01*
G01*
X223750Y270000D02*
G03*
X224482Y268232I2500J0D01*
G01*
X223750Y270000D02*
G03*
X224482Y268232I2500J0D01*
G01*
X235670Y266250D02*
G03*
X240000Y263750I4330J2500D01*
G01*
D02*
G03*
X244330Y266250I0J5000D01*
G01*
X256000Y193750D02*
G03*
X256703Y193800I0J5000D01*
G01*
X254000Y203750D02*
G03*
X254000Y193750I0J-5000D01*
G01*
X257500Y186750D02*
G03*
X259798Y187702I0J3250D01*
G01*
X257500Y186750D02*
G03*
X259798Y187702I0J3250D01*
G01*
X260950Y198047D02*
G03*
X261000Y198750I-4950J703D01*
G01*
D02*
G03*
X256000Y203750I-5000J0D01*
G01*
D02*
G03*
X261000Y208750I0J5000D01*
G01*
X254000Y213750D02*
G03*
X254000Y203750I0J-5000D01*
G01*
X261000Y208750D02*
G03*
X256000Y213750I-5000J0D01*
G01*
X249670Y221250D02*
G03*
X254000Y213750I4330J-2500D01*
G01*
X256000D02*
G03*
X261000Y218750I0J5000D01*
G01*
X260318Y221270D02*
G03*
X261768Y221982I-318J2480D01*
G01*
X260318Y221270D02*
G03*
X261768Y221982I-318J2480D01*
G01*
X261000Y218750D02*
G03*
X260318Y221270I-5000J0D01*
G01*
X274276Y202179D02*
G03*
X281822Y178500I14474J-8429D01*
G01*
X304000Y200678D02*
G03*
X279763Y207885I-15250J-6928D01*
G01*
X279763Y207885D02*
G03*
X280125Y209375I-2888J1490D01*
G01*
X279763Y207885D02*
G03*
X280125Y209375I-2888J1490D01*
G01*
X263018Y223232D02*
G03*
X263750Y225000I-1768J1768D01*
G01*
X263018Y223232D02*
G03*
X263750Y225000I-1768J1768D01*
G01*
X261768Y235518D02*
G03*
X260318Y236230I-1768J-1768D01*
G01*
X261768Y235518D02*
G03*
X260318Y236230I-1768J-1768D01*
G01*
X260344Y236274D02*
G03*
X261768Y236982I-344J2476D01*
G01*
X260344Y236274D02*
G03*
X261768Y236982I-344J2476D01*
G01*
X263750Y232500D02*
G03*
X263018Y234268I-2500J0D01*
G01*
X263750Y232500D02*
G03*
X263018Y234268I-2500J0D01*
G01*
X270518Y245732D02*
G03*
X271250Y247500I-1768J1768D01*
G01*
X270518Y245732D02*
G03*
X271250Y247500I-1768J1768D01*
G01*
X254000Y263750D02*
G03*
X249670Y256250I0J-5000D01*
G01*
X258750Y262926D02*
G03*
X256000Y263750I-2750J-4176D01*
G01*
D02*
G03*
X258750Y264574I0J5000D01*
G01*
X249670Y266250D02*
G03*
X254000Y263750I4330J2500D01*
G01*
Y283750D02*
G03*
X249670Y281250I0J-5000D01*
G01*
X269268Y280518D02*
G03*
X267500Y281250I-1768J-1768D01*
G01*
X269268Y280518D02*
G03*
X267500Y281250I-1768J-1768D01*
G01*
X271250Y277500D02*
G03*
X270518Y279268I-2500J0D01*
G01*
X271250Y277500D02*
G03*
X270518Y279268I-2500J0D01*
G01*
X221250Y285000D02*
G03*
X220518Y286768I-2500J0D01*
G01*
X221250Y285000D02*
G03*
X220518Y286768I-2500J0D01*
G01*
X216768Y290518D02*
G03*
X215000Y291250I-1768J-1768D01*
G01*
X216768Y290518D02*
G03*
X215000Y291250I-1768J-1768D01*
G01*
X224482Y339268D02*
G03*
X223750Y337500I1768J-1768D01*
G01*
X224482Y339268D02*
G03*
X223750Y337500I1768J-1768D01*
G01*
X227500Y341250D02*
G03*
X225732Y340518I0J-2500D01*
G01*
X240000Y283750D02*
G03*
X236250Y282057I0J-5000D01*
G01*
Y285443D02*
G03*
X240000Y283750I3750J3307D01*
G01*
X244330Y281250D02*
G03*
X240000Y283750I-4330J-2500D01*
G01*
Y293750D02*
G03*
X236250Y292057I0J-5000D01*
G01*
X240000Y283750D02*
G03*
X245000Y288750I0J5000D01*
G01*
D02*
G03*
X240000Y293750I-5000J0D01*
G01*
D02*
G03*
X245000Y298750I0J5000D01*
G01*
X236250Y295443D02*
G03*
X240000Y293750I3750J3307D01*
G01*
X227500Y341250D02*
G03*
X225732Y340518I0J-2500D01*
G01*
X240000Y343750D02*
G03*
X235670Y341250I0J-5000D01*
G01*
X244330D02*
G03*
X240000Y343750I-4330J-2500D01*
G01*
X245000Y298750D02*
G03*
X244330Y301250I-5000J0D01*
G01*
X240000Y343750D02*
G03*
X245000Y348750I0J5000D01*
G01*
X231250Y355000D02*
G03*
X231982Y353232I2500J0D01*
G01*
Y364268D02*
G03*
X231250Y362500I1768J-1768D01*
G01*
X231982Y364268D02*
G03*
X231250Y362500I1768J-1768D01*
G01*
X215000Y388750D02*
G03*
X214830Y390044I-5000J0D01*
G01*
X220000Y401250D02*
G03*
X218232Y400518I0J-2500D01*
G01*
X220000Y401250D02*
G03*
X218232Y400518I0J-2500D01*
G01*
X231250Y380000D02*
G03*
X231982Y378232I2500J0D01*
G01*
Y395518D02*
G03*
X231250Y393750I1768J-1768D01*
G01*
Y355000D02*
G03*
X231982Y353232I2500J0D01*
G01*
X235670Y351250D02*
G03*
X240000Y343750I4330J-2500D01*
G01*
X233232Y351982D02*
G03*
X235000Y351250I1768J1768D01*
G01*
X233232Y351982D02*
G03*
X235000Y351250I1768J1768D01*
G01*
Y366250D02*
G03*
X233232Y365518I0J-2500D01*
G01*
X235000Y366250D02*
G03*
X233232Y365518I0J-2500D01*
G01*
X240000Y373750D02*
G03*
X235670Y366250I0J-5000D01*
G01*
X245000Y348750D02*
G03*
X244330Y351250I-5000J0D01*
G01*
X245000Y368750D02*
G03*
X240000Y373750I-5000J0D01*
G01*
X244330Y366250D02*
G03*
X245000Y368750I-4330J2500D01*
G01*
X233232Y376982D02*
G03*
X235000Y376250I1768J1768D01*
G01*
X231250Y380000D02*
G03*
X231982Y378232I2500J0D01*
G01*
Y395518D02*
G03*
X231250Y393750I1768J-1768D01*
G01*
X233232Y376982D02*
G03*
X235000Y376250I1768J1768D01*
G01*
X235670D02*
G03*
X240000Y373750I4330J2500D01*
G01*
D02*
G03*
X244330Y376250I0J5000D01*
G01*
X260330Y281250D02*
G03*
X256000Y283750I-4330J-2500D01*
G01*
D02*
G03*
X261000Y288750I0J5000D01*
G01*
X254000Y293750D02*
G03*
X254000Y283750I0J-5000D01*
G01*
X249670Y301250D02*
G03*
X254000Y293750I4330J-2500D01*
G01*
X256000D02*
G03*
X261000Y298750I0J5000D01*
G01*
Y288750D02*
G03*
X256000Y293750I-5000J0D01*
G01*
X261000Y298750D02*
G03*
X260318Y301270I-5000J0D01*
G01*
Y301270D02*
G03*
X261768Y301982I-318J2480D01*
G01*
X260318Y301270D02*
G03*
X261768Y301982I-318J2480D01*
G01*
X270518Y310732D02*
G03*
X271250Y312500I-1768J1768D01*
G01*
X270518Y310732D02*
G03*
X271250Y312500I-1768J1768D01*
G01*
X280125Y312114D02*
G03*
X288649Y313750I3625J4136D01*
G01*
X288851D02*
G03*
X299250Y316250I4899J2500D01*
G01*
D02*
G03*
X298982Y317946I-5500J0D01*
G01*
X274577Y321673D02*
G03*
X273625Y319375I2298J-2298D01*
G01*
X274577Y321673D02*
G03*
X273625Y319375I2298J-2298D01*
G01*
X301768Y320732D02*
G03*
X302500Y322500I-1768J1768D01*
G01*
X301768Y320732D02*
G03*
X302500Y322500I-1768J1768D01*
G01*
X281459Y331250D02*
G03*
X278314Y325411I2291J-5000D01*
G01*
X254000Y343750D02*
G03*
X249670Y341250I0J-5000D01*
G01*
X258750Y342926D02*
G03*
X256000Y343750I-2750J-4176D01*
G01*
D02*
G03*
X258750Y344574I0J5000D01*
G01*
X249670Y351250D02*
G03*
X254000Y343750I4330J-2500D01*
G01*
Y373750D02*
G03*
X249670Y366250I0J-5000D01*
G01*
Y376250D02*
G03*
X254000Y373750I4330J2500D01*
G01*
X258750Y372926D02*
G03*
X256000Y373750I-2750J-4176D01*
G01*
D02*
G03*
X258750Y374574I0J5000D01*
G01*
X263018Y400518D02*
G03*
X261250Y401250I-1768J-1768D01*
G01*
X263018Y400518D02*
G03*
X261250Y401250I-1768J-1768D01*
G01*
X281822Y426500D02*
G03*
X304000Y404322I6928J-15250D01*
G01*
X281459Y341250D02*
G03*
X281459Y331250I2291J-5000D01*
G01*
X278851Y343750D02*
G03*
X281459Y341250I4899J2500D01*
G01*
X302500Y360000D02*
G03*
X301768Y361768I-2500J0D01*
G01*
X302500Y360000D02*
G03*
X301768Y361768I-2500J0D01*
G01*
X237710Y373474D02*
X238094Y373858D01*
X237260Y373680D02*
X237548Y373392D01*
X241843Y343666D02*
X242127Y343950D01*
X237319Y343922D02*
X237749Y343493D01*
X211849Y353836D02*
X212142Y353543D01*
X211922Y343864D02*
X212332Y343454D01*
X207896Y353560D02*
X208167Y353831D01*
X207710Y343474D02*
X208094Y343858D01*
X211915Y323638D02*
X212316Y324038D01*
X211916Y203862D02*
X212318Y203461D01*
X207911Y313933D02*
X208173Y313672D01*
X207726Y324018D02*
X208100Y323644D01*
X211843Y313666D02*
X212127Y313950D01*
X207909Y213565D02*
X208172Y213829D01*
X211844Y213834D02*
X212129Y213549D01*
X207723Y203481D02*
X208099Y203856D01*
X207522Y334122D02*
X208028Y333616D01*
X207277Y383864D02*
X207681Y383460D01*
X207319Y373922D02*
X207749Y373493D01*
X207504Y333369D02*
X208022Y333887D01*
X207315Y293582D02*
X207743Y294010D01*
X198034Y213590D02*
X198606Y214162D01*
X197962Y203619D02*
X198450Y204106D01*
X191971Y213908D02*
X192198Y213681D01*
X197813Y203823D02*
X198056Y203581D01*
X156875Y335000D02*
X165625D01*
X171000Y178500D02*
Y180130D01*
X172000Y178500D02*
Y180905D01*
X169000Y178500D02*
Y178901D01*
X170000Y178500D02*
Y179467D01*
X176000Y178500D02*
Y185813D01*
X177000Y178500D02*
Y188049D01*
X178000Y178500D02*
Y193750D01*
X173000Y178500D02*
Y181813D01*
X174000Y178500D02*
Y182887D01*
X175000Y178500D02*
Y184184D01*
X146000Y202000D02*
X146673D01*
X146000Y203000D02*
X147286D01*
X146000Y204000D02*
X148002D01*
X146000Y205000D02*
X148840D01*
X176350Y201000D02*
X181750D01*
X177848Y196000D02*
X181750D01*
X176790Y200000D02*
X181750D01*
X174498Y204000D02*
X181750D01*
X175827Y202000D02*
X181750D01*
X175214Y203000D02*
X181750D01*
X176982Y188000D02*
X187404D01*
X176580Y187000D02*
X188750D01*
X177773Y191000D02*
X184404D01*
X177312Y189000D02*
X186404D01*
X177575Y190000D02*
X185404D01*
X184000Y178500D02*
Y191404D01*
X186000Y178500D02*
Y189404D01*
X185000Y178500D02*
Y190404D01*
X177908Y192000D02*
X183404D01*
X187000Y178500D02*
Y188404D01*
X177953Y195000D02*
X181750D01*
X177983Y193000D02*
X182438D01*
X177156Y199000D02*
X181750D01*
X177682Y197000D02*
X181750D01*
X177452Y198000D02*
X181750D01*
X182000Y178500D02*
Y193750D01*
X183000Y178500D02*
Y192404D01*
X182702Y192702D02*
X187702Y187702D01*
X177998Y194000D02*
X181908D01*
X146000Y206000D02*
X149826D01*
X146000Y207000D02*
X151003D01*
X146000Y208000D02*
X152447D01*
X146000Y209000D02*
X154322D01*
X146000Y210000D02*
X157188D01*
X171497Y207000D02*
X181750D01*
X173660Y205000D02*
X181750D01*
X172674Y206000D02*
X181750D01*
X165312Y210000D02*
X181750D01*
X170053Y208000D02*
X181750D01*
X168178Y209000D02*
X181750D01*
X146000Y218000D02*
X181750D01*
X146000Y217000D02*
X181750D01*
X146000Y221000D02*
X181750D01*
X146000Y219000D02*
X181750D01*
X146000Y220000D02*
X181750D01*
X146000Y213000D02*
X181750D01*
X146000Y211000D02*
X181750D01*
X146000Y212000D02*
X181750D01*
X146000Y216000D02*
X181750D01*
X146000Y214000D02*
X181750D01*
X146000Y215000D02*
X181750D01*
X146000Y229000D02*
X181750D01*
X146000Y228000D02*
X181750D01*
X146000Y232000D02*
X181750D01*
X146000Y230000D02*
X181750D01*
X146000Y231000D02*
X181750D01*
X146000Y224000D02*
X181750D01*
X146000Y222000D02*
X181750D01*
X146000Y223000D02*
X181750D01*
X146000Y227000D02*
X181750D01*
X146000Y225000D02*
X181750D01*
X146000Y226000D02*
X181750D01*
X146000Y241000D02*
X181750D01*
X146000Y239000D02*
X181750D01*
X146000Y240000D02*
X181750D01*
X146000Y244000D02*
X181750D01*
X146000Y242000D02*
X181750D01*
X146000Y243000D02*
X181750D01*
X146000Y235000D02*
X181750D01*
X146000Y233000D02*
X181750D01*
X146000Y234000D02*
X181750D01*
X146000Y238000D02*
X181750D01*
X146000Y236000D02*
X181750D01*
X146000Y237000D02*
X181750D01*
X188000Y178500D02*
Y187438D01*
X188250Y199000D02*
X189006D01*
X188250Y197000D02*
X189316D01*
X188250Y200000D02*
X189159D01*
X189000Y178500D02*
Y186908D01*
X190000Y178500D02*
Y186750D01*
Y194596D02*
Y195750D01*
X189000Y195596D02*
Y198750D01*
X188596Y196000D02*
X189824D01*
X188250Y198000D02*
X189057D01*
X188250Y207000D02*
X189316D01*
X188250Y201000D02*
X189535D01*
X188250Y209000D02*
X189006D01*
X188250Y208000D02*
X189057D01*
X188250Y210000D02*
X189159D01*
X189000Y198750D02*
Y208750D01*
X190000Y201750D02*
Y205750D01*
X188250Y206000D02*
X189824D01*
X189000Y208750D02*
Y218750D01*
X188250Y211000D02*
X189535D01*
X190000Y211750D02*
Y215750D01*
X191000Y178500D02*
Y186750D01*
X192000Y178500D02*
Y186750D01*
X191000Y193596D02*
Y194750D01*
X190596Y194000D02*
X192439D01*
X192000Y193250D02*
Y194167D01*
X193000Y178500D02*
Y186750D01*
X195000Y178500D02*
Y186750D01*
X194000Y178500D02*
Y186750D01*
X193000Y193250D02*
Y193851D01*
X195000Y193250D02*
Y193750D01*
X194000Y193250D02*
Y193750D01*
X188250Y202000D02*
X190200D01*
X188250Y196346D02*
X191346Y193250D01*
X188250Y205000D02*
X190693D01*
X188250Y203000D02*
X191366D01*
X188250Y204000D02*
X192439D01*
X189596Y195000D02*
X190693D01*
X191000Y202750D02*
Y204750D01*
X188250Y212000D02*
X190200D01*
X192000Y203333D02*
Y204167D01*
X188250Y217000D02*
X189316D01*
X188250Y216000D02*
X189824D01*
X188250Y219000D02*
X189006D01*
X188250Y218000D02*
X189057D01*
X188250Y220000D02*
X189159D01*
X189000Y218750D02*
Y228750D01*
X188250Y221000D02*
X189535D01*
X190000Y221750D02*
Y225750D01*
X188250Y228000D02*
X189057D01*
X188250Y226000D02*
X189824D01*
X188250Y227000D02*
X189316D01*
X188250Y229000D02*
X189006D01*
X188250Y230000D02*
X189159D01*
X188250Y237000D02*
X189316D01*
X188250Y231000D02*
X189535D01*
X188250Y236000D02*
X189824D01*
X189000Y228750D02*
Y238750D01*
X190000Y231750D02*
Y235750D01*
X188250Y238000D02*
X189057D01*
X188250Y239000D02*
X189006D01*
X188250Y240000D02*
X189159D01*
X188250Y241000D02*
X189535D01*
X188250Y213000D02*
X191366D01*
X188250Y214000D02*
X192439D01*
X188250Y222000D02*
X190200D01*
X188250Y215000D02*
X190693D01*
X188250Y223000D02*
X191366D01*
X191000Y212750D02*
Y214750D01*
X192000Y213333D02*
Y214167D01*
X191000Y222750D02*
Y224750D01*
X188250Y224000D02*
X192439D01*
X192000Y223333D02*
Y224167D01*
X188250Y232000D02*
X190200D01*
X188250Y225000D02*
X190693D01*
X188250Y233000D02*
X191366D01*
X188250Y235000D02*
X190693D01*
X188250Y234000D02*
X192439D01*
X188250Y244000D02*
X192439D01*
X191000Y232750D02*
Y234750D01*
X192000Y233333D02*
Y234167D01*
X188250Y242000D02*
X190200D01*
X188250Y243000D02*
X191366D01*
X156000Y209656D02*
Y326600D01*
X157000Y209952D02*
Y325692D01*
X158000Y210182D02*
Y325146D01*
X160000Y210453D02*
Y324750D01*
X159000Y210348D02*
Y324846D01*
X164000Y210273D02*
Y324969D01*
X165000Y210075D02*
Y325383D01*
X166000Y209812D02*
Y326087D01*
X161000Y210498D02*
Y324750D01*
X162000Y210483D02*
Y324750D01*
X163000Y210408D02*
Y324774D01*
X146000Y200678D02*
Y404322D01*
Y200678D02*
Y404322D01*
X147000Y202553D02*
Y402447D01*
X149000Y205174D02*
Y399826D01*
X148000Y203997D02*
Y401003D01*
X150000Y206160D02*
Y398840D01*
X152000Y207714D02*
Y397286D01*
X151000Y206998D02*
Y398002D01*
X153000Y208327D02*
Y396673D01*
X155000Y209290D02*
Y328399D01*
X154000Y208850D02*
Y396150D01*
X146000Y246000D02*
X181750D01*
X146000Y245000D02*
X181750D01*
X146000Y247000D02*
X181750D01*
X146000Y248000D02*
X181750D01*
X146000Y249000D02*
X181760D01*
X167000Y209482D02*
Y327296D01*
X146000Y250000D02*
X182000D01*
X171000Y207370D02*
Y327500D01*
X146000Y251000D02*
X182655D01*
X146000Y252000D02*
X183654D01*
X146000Y253000D02*
X184654D01*
X172000Y206595D02*
Y327500D01*
X173000Y205687D02*
Y327500D01*
X168000Y209080D02*
Y327500D01*
X170000Y208033D02*
Y327500D01*
X169000Y208599D02*
Y327500D01*
X177000Y199451D02*
Y327500D01*
X179000Y178500D02*
Y327500D01*
X178000Y193750D02*
Y327500D01*
X174000Y204613D02*
Y327500D01*
X176000Y201687D02*
Y327500D01*
X175000Y203316D02*
Y327500D01*
X146000Y271000D02*
X182500D01*
X146000Y270000D02*
X182500D01*
X146000Y274000D02*
X182500D01*
X146000Y272000D02*
X182500D01*
X146000Y273000D02*
X182500D01*
X146000Y266000D02*
X182500D01*
X146000Y264000D02*
X182500D01*
X146000Y265000D02*
X182500D01*
X146000Y269000D02*
X182500D01*
X146000Y267000D02*
X182500D01*
X146000Y268000D02*
X182500D01*
X146000Y291000D02*
X182500D01*
X146000Y281000D02*
X182500D01*
X146000Y294000D02*
X182500D01*
X146000Y292000D02*
X182500D01*
X146000Y293000D02*
X182500D01*
X146000Y277000D02*
X182500D01*
X146000Y275000D02*
X182500D01*
X146000Y276000D02*
X182500D01*
X146000Y280000D02*
X182500D01*
X146000Y278000D02*
X182500D01*
X146000Y279000D02*
X182500D01*
X146000Y261000D02*
X184214D01*
X146000Y260000D02*
X185214D01*
X146000Y282000D02*
X182500D01*
X146000Y262000D02*
X183215D01*
X146000Y263000D02*
X182615D01*
X146000Y254000D02*
X185654D01*
X146000Y255000D02*
X186654D01*
X146000Y256000D02*
X187654D01*
X146000Y259000D02*
X186214D01*
X146000Y257000D02*
X188215D01*
X146000Y258000D02*
X187215D01*
X146000Y295000D02*
X182500D01*
X146000Y289000D02*
X182500D01*
X146000Y290000D02*
X182500D01*
X146000Y298000D02*
X182500D01*
X146000Y296000D02*
X182500D01*
X146000Y297000D02*
X182500D01*
X146000Y285000D02*
X182500D01*
X146000Y283000D02*
X182500D01*
X146000Y284000D02*
X182500D01*
X146000Y288000D02*
X182500D01*
X146000Y286000D02*
X182500D01*
X146000Y287000D02*
X182500D01*
X181750Y195000D02*
Y248750D01*
X182702Y251048D02*
X187702Y256048D01*
X185000Y253346D02*
Y260214D01*
X186000Y254346D02*
Y259214D01*
X188250Y196346D02*
Y247404D01*
X187000Y255346D02*
Y258214D01*
X188000Y256312D02*
Y257214D01*
X180000Y178500D02*
Y327500D01*
X181000Y178500D02*
Y327500D01*
X182000Y250000D02*
Y326964D01*
X183000Y251346D02*
Y262250D01*
X184000Y252346D02*
Y261214D01*
X183232Y261982D02*
X188232Y256982D01*
X182500Y263750D02*
Y326465D01*
X187500Y264786D02*
Y327500D01*
X188000Y264285D02*
Y378215D01*
X188250Y246000D02*
X189824D01*
X188250Y245000D02*
X190693D01*
X188250Y247000D02*
X189316D01*
X188250Y247404D02*
X189032Y248186D01*
X189000Y238750D02*
Y248154D01*
X191000Y242750D02*
Y244750D01*
X190000Y241750D02*
Y245750D01*
X189286Y263000D02*
X191366D01*
X192000Y243333D02*
Y244167D01*
X187500Y264786D02*
X190240Y262046D01*
X188286Y264000D02*
X192439D01*
X187500Y265000D02*
X190693D01*
X187500Y268000D02*
X189057D01*
X187500Y266000D02*
X189824D01*
X187500Y267000D02*
X189316D01*
X190000Y262285D02*
Y265750D01*
X191000Y262750D02*
Y264750D01*
X189000Y263285D02*
Y268750D01*
X192000Y263333D02*
Y264167D01*
X187500Y269000D02*
X189006D01*
X187500Y270000D02*
X189159D01*
X187500Y277000D02*
X189316D01*
X187500Y271000D02*
X189535D01*
X187500Y276000D02*
X189824D01*
X189000Y268750D02*
Y278750D01*
X187500Y278000D02*
X189057D01*
X187500Y279000D02*
X189006D01*
X187500Y280000D02*
X189159D01*
X187500Y281000D02*
X189535D01*
X187500Y286000D02*
X189824D01*
X187500Y288000D02*
X189057D01*
X187500Y287000D02*
X189316D01*
X187500Y289000D02*
X189006D01*
X187500Y290000D02*
X189159D01*
X187500Y291000D02*
X189535D01*
X189000Y278750D02*
Y288750D01*
X190000Y291750D02*
Y295750D01*
X189000Y288750D02*
Y298750D01*
X187500Y298000D02*
X189057D01*
X187500Y296000D02*
X189824D01*
X187500Y297000D02*
X189316D01*
X187500Y272000D02*
X190200D01*
X187500Y273000D02*
X191366D01*
X187500Y275000D02*
X190693D01*
X187500Y274000D02*
X192439D01*
X187500Y284000D02*
X192439D01*
X190000Y271750D02*
Y275750D01*
X192000Y273333D02*
Y274167D01*
X191000Y272750D02*
Y274750D01*
X187500Y282000D02*
X190200D01*
X187500Y283000D02*
X191366D01*
X187500Y292000D02*
X190200D01*
X187500Y285000D02*
X190693D01*
X187500Y295000D02*
X190693D01*
X187500Y293000D02*
X191366D01*
X187500Y294000D02*
X192439D01*
X190000Y281750D02*
Y285750D01*
X192000Y283333D02*
Y284167D01*
X191000Y282750D02*
Y284750D01*
Y292750D02*
Y294750D01*
X192000Y293333D02*
Y294167D01*
X196000Y178500D02*
Y186750D01*
X197000Y178500D02*
Y186750D01*
X196000Y193250D02*
Y193750D01*
X194000D02*
X196000D01*
X197000Y193250D02*
Y193851D01*
X198000Y178500D02*
Y186750D01*
X200000Y178500D02*
Y186750D01*
X199000Y178500D02*
Y186750D01*
X198000Y193250D02*
Y194167D01*
X199000Y193250D02*
Y194750D01*
X200000Y193250D02*
Y195750D01*
X194000Y203750D02*
X196000D01*
X194000D02*
X196000D01*
X198000Y203333D02*
Y204167D01*
X199000Y202750D02*
Y204750D01*
X200000Y201750D02*
Y205750D01*
Y211750D02*
Y215750D01*
X200684Y207000D02*
X205316D01*
X169187Y179000D02*
X280813D01*
X168178Y178500D02*
X281822D01*
X173187Y182000D02*
X276813D01*
X170816Y180000D02*
X279184D01*
X172113Y181000D02*
X277887D01*
X175533Y185000D02*
X274467D01*
X174095Y183000D02*
X275905D01*
X174870Y184000D02*
X275130D01*
X191346Y193250D02*
X256154D01*
X176099Y186000D02*
X273901D01*
X190000Y186750D02*
X257500D01*
X199307Y195000D02*
X206693D01*
X197561Y194000D02*
X208439D01*
X199307Y205000D02*
X206693D01*
X198634Y203000D02*
X207366D01*
X197561Y204000D02*
X208439D01*
X200465Y201000D02*
X205535D01*
X200176Y196000D02*
X205824D01*
X199800Y202000D02*
X206200D01*
X200465Y211000D02*
X205535D01*
X200176Y206000D02*
X205824D01*
X199800Y212000D02*
X206200D01*
X194000Y213750D02*
X196000D01*
X194000D02*
X196000D01*
X194000Y223750D02*
X196000D01*
X194000D02*
X196000D01*
X198000Y213333D02*
Y214167D01*
X199000Y212750D02*
Y214750D01*
X198000Y223333D02*
Y224167D01*
X199000Y222750D02*
Y224750D01*
X200000Y221750D02*
Y225750D01*
X194000Y233750D02*
X196000D01*
X194000D02*
X196000D01*
X200000Y231750D02*
Y235750D01*
X198000Y233333D02*
Y234167D01*
X199000Y232750D02*
Y234750D01*
X198634Y213000D02*
X207366D01*
X197561Y214000D02*
X208439D01*
X199307Y225000D02*
X206693D01*
X198634Y223000D02*
X207366D01*
X197561Y224000D02*
X208439D01*
X200684Y217000D02*
X205316D01*
X199307Y215000D02*
X206693D01*
X200176Y216000D02*
X205824D01*
X200465Y221000D02*
X205535D01*
X199800Y222000D02*
X206200D01*
X200176Y226000D02*
X205824D01*
X198634Y233000D02*
X207366D01*
X197561Y234000D02*
X208439D01*
X200684Y227000D02*
X205316D01*
X200465Y231000D02*
X205535D01*
X199800Y232000D02*
X206200D01*
X200684Y237000D02*
X205316D01*
X199307Y235000D02*
X206693D01*
X200176Y236000D02*
X205824D01*
X201000Y178500D02*
Y186750D01*
X202000Y178500D02*
Y186750D01*
X203000Y178500D02*
Y186750D01*
X200684Y197000D02*
X205316D01*
X200943Y198000D02*
X205057D01*
X204000Y178500D02*
Y186750D01*
X206000Y178500D02*
Y186750D01*
X205000Y178500D02*
Y186750D01*
Y193250D02*
Y198750D01*
X207000Y193250D02*
Y194750D01*
X206000Y193250D02*
Y195750D01*
X200994Y199000D02*
X205006D01*
X200841Y200000D02*
X205159D01*
X200994Y209000D02*
X205006D01*
X200943Y208000D02*
X205057D01*
X200841Y210000D02*
X205159D01*
X201000Y193250D02*
Y198750D01*
X205000D02*
Y208750D01*
X201000Y198750D02*
Y208750D01*
Y218750D01*
X206000Y201750D02*
Y205750D01*
X205000Y208750D02*
Y218750D01*
X207000Y178500D02*
Y186750D01*
X208000Y178500D02*
Y186750D01*
Y193250D02*
Y194167D01*
X209000Y178500D02*
Y186750D01*
Y193250D02*
Y193851D01*
X210000Y178500D02*
Y186750D01*
X212000Y178500D02*
Y186750D01*
X211000Y178500D02*
Y186750D01*
X210000Y193250D02*
Y193750D01*
X211000Y193250D02*
Y193851D01*
X211561Y194000D02*
X238439D01*
X207000Y202750D02*
Y204750D01*
X208000Y203333D02*
Y204167D01*
X212000Y193250D02*
Y194167D01*
X212634Y203000D02*
X237366D01*
X212000Y203333D02*
Y204167D01*
X211561Y204000D02*
X238439D01*
X205000Y218750D02*
Y228750D01*
X200943Y218000D02*
X205057D01*
X200994Y219000D02*
X205006D01*
X200841Y220000D02*
X205159D01*
X200943Y228000D02*
X205057D01*
X206000Y211750D02*
Y215750D01*
X208000Y213333D02*
Y214167D01*
X207000Y212750D02*
Y214750D01*
X206000Y221750D02*
Y225750D01*
X208000Y223333D02*
Y224167D01*
X207000Y222750D02*
Y224750D01*
X201000Y228750D02*
Y238750D01*
X200994Y229000D02*
X205006D01*
X200994Y239000D02*
X205006D01*
X200841Y230000D02*
X205159D01*
X200943Y238000D02*
X205057D01*
X201000Y218750D02*
Y228750D01*
X205000D02*
Y238750D01*
X206000Y231750D02*
Y235750D01*
X208000Y233333D02*
Y234167D01*
X207000Y232750D02*
Y234750D01*
X211561Y224000D02*
X214750D01*
X211561Y214000D02*
X238439D01*
X212000Y213333D02*
Y214167D01*
X212634Y213000D02*
X237366D01*
X213000Y212750D02*
Y214750D01*
X212000Y223333D02*
Y224167D01*
X212634Y223000D02*
X214750D01*
X213000Y222750D02*
Y224750D01*
Y232750D02*
Y234750D01*
X212634Y233000D02*
X216250D01*
X212000Y233333D02*
Y234167D01*
X211561Y234000D02*
X216250D01*
X194000Y243750D02*
X196000D01*
X194000D02*
X196000D01*
X199000Y242750D02*
Y244750D01*
X200000Y241750D02*
Y245750D01*
X198000Y243333D02*
Y244167D01*
X200994Y249000D02*
X205006D01*
X194000Y263750D02*
X196000D01*
X194000D02*
X196000D01*
X199000Y262750D02*
Y264750D01*
X200000Y261750D02*
Y265750D01*
X198000Y263333D02*
Y264167D01*
X199000Y272750D02*
Y274750D01*
X200000Y271750D02*
Y275750D01*
X199800Y242000D02*
X206200D01*
X198634Y243000D02*
X207366D01*
X200176Y246000D02*
X205824D01*
X197561Y244000D02*
X208439D01*
X199307Y245000D02*
X206693D01*
X200841Y240000D02*
X205159D01*
X200465Y241000D02*
X205535D01*
X200684Y247000D02*
X205316D01*
X200943Y248000D02*
X205057D01*
X200841Y250000D02*
X205159D01*
X200465Y251000D02*
X205535D01*
X198634Y263000D02*
X207366D01*
X197561Y264000D02*
X208439D01*
X199800Y272000D02*
X206200D01*
X199307Y265000D02*
X206693D01*
X198634Y273000D02*
X207366D01*
X200330Y251250D02*
X205670D01*
X200330Y261250D02*
X205670D01*
X199800Y262000D02*
X206200D01*
X200330Y271250D02*
X205670D01*
X200176Y266000D02*
X205824D01*
X200330Y266250D02*
X205670D01*
X194000Y273750D02*
X196000D01*
X194000D02*
X196000D01*
X194000Y283750D02*
X196000D01*
X194000D02*
X196000D01*
X198000Y273333D02*
Y274167D01*
Y283333D02*
Y284167D01*
X194000Y293750D02*
X196000D01*
X194000D02*
X196000D01*
X199000Y282750D02*
Y284750D01*
X200000Y281750D02*
Y285750D01*
Y291750D02*
Y295750D01*
X198000Y293333D02*
Y294167D01*
X199000Y292750D02*
Y294750D01*
X199307Y275000D02*
X206693D01*
X197561Y274000D02*
X208439D01*
X199800Y282000D02*
X206200D01*
X198634Y283000D02*
X207366D01*
X200943Y278000D02*
X205057D01*
X200176Y276000D02*
X205824D01*
X200684Y277000D02*
X205316D01*
X200994Y279000D02*
X205006D01*
X200841Y280000D02*
X205159D01*
X200465Y281000D02*
X205535D01*
X199800Y292000D02*
X206200D01*
X197561Y284000D02*
X208439D01*
X199307Y285000D02*
X206693D01*
X199307Y295000D02*
X206693D01*
X198634Y293000D02*
X207366D01*
X197561Y294000D02*
X208439D01*
X200330Y291250D02*
X205670D01*
X200176Y286000D02*
X205824D01*
X200330Y286250D02*
X205670D01*
X200943Y298000D02*
X205057D01*
X200176Y296000D02*
X205824D01*
X200684Y297000D02*
X205316D01*
X203000Y193250D02*
Y251250D01*
X204000Y193250D02*
Y251250D01*
X201000Y248750D02*
Y251250D01*
Y238750D02*
Y248750D01*
X202000Y193250D02*
Y251250D01*
X205000Y238750D02*
Y248750D01*
X207000Y242750D02*
Y244750D01*
X206000Y241750D02*
Y245750D01*
X205000Y248750D02*
Y251250D01*
X208000Y243333D02*
Y244167D01*
Y263333D02*
Y264167D01*
X201000Y261250D02*
Y266250D01*
X202000Y261250D02*
Y266250D01*
X201000Y271250D02*
Y278750D01*
X203000Y261250D02*
Y266250D01*
Y271250D02*
Y286250D01*
X204000Y261250D02*
Y266250D01*
X206000Y261750D02*
Y265750D01*
X205000Y261250D02*
Y266250D01*
X204000Y271250D02*
Y286250D01*
X207000Y262750D02*
Y264750D01*
X205000Y271250D02*
Y278750D01*
X213000Y242750D02*
Y244750D01*
X212634Y243000D02*
X216250D01*
X212000Y243333D02*
Y244167D01*
X211561Y244000D02*
X216250D01*
X213000Y262750D02*
Y264750D01*
X212634Y263000D02*
X216250D01*
X212000Y263333D02*
Y264167D01*
X211561Y264000D02*
X216250D01*
X202000Y271250D02*
Y286250D01*
X201000Y278750D02*
Y286250D01*
X205000Y278750D02*
Y286250D01*
X206000Y271750D02*
Y275750D01*
X208000Y273333D02*
Y274167D01*
X207000Y272750D02*
Y274750D01*
X206000Y281750D02*
Y285750D01*
X208000Y283333D02*
Y284167D01*
X207000Y282750D02*
Y284750D01*
X204000Y291250D02*
Y386250D01*
X205000Y291250D02*
Y298750D01*
X201000Y291250D02*
Y298750D01*
X203000Y291250D02*
Y386250D01*
X202000Y291250D02*
Y386250D01*
X206000Y291750D02*
Y295750D01*
X207000Y292750D02*
Y294750D01*
X205000Y298750D02*
Y308750D01*
X208000Y293333D02*
Y294167D01*
X212000Y273333D02*
Y274167D01*
X212634Y273000D02*
X216250D01*
X213000Y272750D02*
Y274750D01*
X211561Y274000D02*
X216250D01*
X212634Y283000D02*
X216250D01*
X211561Y294000D02*
X223750D01*
X212000Y283333D02*
Y284167D01*
X211561Y284000D02*
X216214D01*
X213000Y282750D02*
Y284750D01*
X212000Y293333D02*
Y294167D01*
X212634Y293000D02*
X223750D01*
X213000Y292750D02*
Y294750D01*
X146000Y307000D02*
X182500D01*
X146000Y306000D02*
X182500D01*
X146000Y311000D02*
X182500D01*
X146000Y308000D02*
X182500D01*
X146000Y309000D02*
X182500D01*
X146000Y325000D02*
X158399D01*
X146000Y312000D02*
X182500D01*
X160000Y324750D02*
X162500D01*
X146000Y327000D02*
X155692D01*
X146000Y326000D02*
X156600D01*
X166808Y327000D02*
X181965D01*
X146000Y329000D02*
X154846D01*
X146000Y328000D02*
X155146D01*
X146000Y330000D02*
X154750D01*
X146000Y331000D02*
X154846D01*
X146000Y332000D02*
X155146D01*
X167117Y327500D02*
X181465D01*
X155000Y331601D02*
Y338399D01*
X171000Y332500D02*
Y337500D01*
X170000Y332500D02*
Y337500D01*
X146000Y310000D02*
X182500D01*
X146000Y305000D02*
X182500D01*
X146000Y315000D02*
X182500D01*
X146000Y313000D02*
X182500D01*
X146000Y314000D02*
X182500D01*
X146000Y301000D02*
X182500D01*
X146000Y299000D02*
X182500D01*
X146000Y300000D02*
X182500D01*
X146000Y304000D02*
X182500D01*
X146000Y302000D02*
X182500D01*
X146000Y303000D02*
X182500D01*
X146000Y317000D02*
X182500D01*
X146000Y316000D02*
X182500D01*
X146000Y320000D02*
X182500D01*
X146000Y318000D02*
X182500D01*
X146000Y319000D02*
X182500D01*
X146000Y323000D02*
X182500D01*
X146000Y321000D02*
X182500D01*
X146000Y322000D02*
X182500D01*
X165900Y326000D02*
X182500D01*
X146000Y324000D02*
X182500D01*
X164101Y325000D02*
X182500D01*
X146000Y333000D02*
X155692D01*
X146000Y334000D02*
X156600D01*
X146000Y340000D02*
X154750D01*
X146000Y335000D02*
X158399D01*
X146000Y336000D02*
X156600D01*
X156000Y333400D02*
Y336600D01*
X165000Y334617D02*
Y335383D01*
X157000Y334308D02*
Y335692D01*
X146000Y339000D02*
X154846D01*
X146000Y337000D02*
X155692D01*
X146000Y338000D02*
X155146D01*
X146000Y342000D02*
X155146D01*
X146000Y343000D02*
X155692D01*
X146000Y347000D02*
X155692D01*
X146000Y344000D02*
X156600D01*
X146000Y345000D02*
X158399D01*
X146000Y341000D02*
X154846D01*
X156000Y343400D02*
Y346600D01*
X146000Y346000D02*
X156600D01*
X165000Y344617D02*
Y345383D01*
X157000Y344308D02*
Y345692D01*
X166000Y333913D02*
Y336087D01*
X165900Y336000D02*
X189824D01*
X165900Y334000D02*
X192439D01*
X164101Y335000D02*
X190693D01*
X169000Y332500D02*
Y337500D01*
X167117Y332500D02*
X182500D01*
X173000D02*
Y337500D01*
X167000Y332704D02*
Y337296D01*
X166808Y333000D02*
X191366D01*
X166808Y337000D02*
X189316D01*
X166000Y343913D02*
Y346087D01*
X165900Y346000D02*
X182500D01*
X165900Y344000D02*
X182500D01*
X164101Y345000D02*
X182500D01*
X168000Y332500D02*
Y337500D01*
X174000Y332500D02*
Y337500D01*
X172000Y332500D02*
Y337500D01*
X167117Y342500D02*
X181465D01*
X167117Y337500D02*
X182500D01*
X166808Y343000D02*
X181965D01*
X187500Y299000D02*
X189006D01*
X187500Y300000D02*
X189159D01*
X187500Y307000D02*
X189316D01*
X187500Y301000D02*
X189535D01*
X187500Y306000D02*
X189824D01*
X189000Y298750D02*
Y308750D01*
X187500Y308000D02*
X189057D01*
X187500Y309000D02*
X189006D01*
X187500Y310000D02*
X189159D01*
X187500Y311000D02*
X189535D01*
X187500Y316000D02*
X189824D01*
X187500Y319000D02*
X189006D01*
X187500Y317000D02*
X189316D01*
X181465Y327500D02*
X182500Y326465D01*
X187500Y320000D02*
X189159D01*
X189000Y308750D02*
Y318750D01*
X187500Y318000D02*
X189057D01*
X189000Y318750D02*
Y328750D01*
X187500Y327000D02*
X189316D01*
X187500Y321000D02*
X189535D01*
X187500Y326000D02*
X189824D01*
X187500Y302000D02*
X190200D01*
X187500Y303000D02*
X191366D01*
X187500Y305000D02*
X190693D01*
X187500Y304000D02*
X192439D01*
X187500Y314000D02*
X192439D01*
X190000Y301750D02*
Y305750D01*
X192000Y303333D02*
Y304167D01*
X191000Y302750D02*
Y304750D01*
X187500Y312000D02*
X190200D01*
X187500Y313000D02*
X191366D01*
X192000Y313333D02*
Y314167D01*
X187500Y322000D02*
X190200D01*
X187500Y315000D02*
X190693D01*
X187500Y325000D02*
X190693D01*
X187500Y323000D02*
X191366D01*
X187500Y324000D02*
X192439D01*
X190000Y311750D02*
Y315750D01*
X191000Y312750D02*
Y314750D01*
X190000Y321750D02*
Y325750D01*
X191000Y322750D02*
Y324750D01*
X192000Y323333D02*
Y324167D01*
X178000Y332500D02*
Y337500D01*
X179000Y332500D02*
Y337500D01*
X175000Y332500D02*
Y337500D01*
X177000Y332500D02*
Y337500D01*
X176000Y332500D02*
Y337500D01*
X184268Y331768D02*
X186768Y329268D01*
X180000Y332500D02*
Y337500D01*
X182000Y332500D02*
Y337500D01*
X181000Y332500D02*
Y337500D01*
X183000Y332450D02*
Y337550D01*
X184000Y332000D02*
Y338000D01*
X181465Y342500D02*
X182500Y343535D01*
X185000Y331035D02*
Y338965D01*
X186000Y330035D02*
Y339965D01*
X187000Y329000D02*
Y341000D01*
X184268Y338232D02*
X186768Y340732D01*
X186036Y330000D02*
X189159D01*
X184000Y338000D02*
X189057D01*
X185036Y331000D02*
X189535D01*
X184000Y332000D02*
X190200D01*
X189000Y328750D02*
Y338750D01*
X187450Y328000D02*
X189057D01*
X187000Y329000D02*
X189006D01*
X190000Y331750D02*
Y335750D01*
X192000Y333333D02*
Y334167D01*
X191000Y332750D02*
Y334750D01*
X185036Y339000D02*
X189006D01*
X186036Y340000D02*
X189159D01*
X187000Y341000D02*
X189535D01*
X187450Y342000D02*
X190200D01*
X187500Y343000D02*
X191366D01*
X187500Y344000D02*
X192439D01*
X190000Y341750D02*
Y345750D01*
X191000Y342750D02*
Y344750D01*
X187500Y346000D02*
X189824D01*
X192000Y343333D02*
Y344167D01*
X187500Y345000D02*
X190693D01*
X146000Y349000D02*
X154846D01*
X146000Y348000D02*
X155146D01*
X146000Y350000D02*
X154750D01*
X146000Y351000D02*
X154846D01*
X146000Y352000D02*
X155146D01*
X155000Y341601D02*
Y348399D01*
X146000Y353000D02*
X155692D01*
X146000Y354000D02*
X156600D01*
X146000Y355000D02*
X158399D01*
X160000Y355250D02*
X162500D01*
X155000Y351601D02*
Y395710D01*
X156000Y353400D02*
Y395344D01*
X157000Y354308D02*
Y395048D01*
X159000Y355154D02*
Y394652D01*
X158000Y354854D02*
Y394818D01*
X163000Y355226D02*
Y394592D01*
X164000Y355031D02*
Y394727D01*
X165000Y354617D02*
Y394925D01*
X160000Y355250D02*
Y394547D01*
X161000Y355250D02*
Y394502D01*
X162000Y355250D02*
Y394517D01*
X166808Y347000D02*
X182500D01*
X164101Y355000D02*
X182500D01*
X166808Y353000D02*
X182500D01*
X165900Y354000D02*
X182500D01*
X167000Y342704D02*
Y347296D01*
X167354Y348000D02*
X182500D01*
X167654Y349000D02*
X182500D01*
X167354Y352000D02*
X182500D01*
X167750Y350000D02*
X182500D01*
X167654Y351000D02*
X182500D01*
X146000Y357000D02*
X182500D01*
X146000Y356000D02*
X182500D01*
X146000Y360000D02*
X182500D01*
X146000Y358000D02*
X182500D01*
X146000Y359000D02*
X182500D01*
X168000Y342500D02*
Y395920D01*
X169000Y342500D02*
Y396401D01*
X170000Y342500D02*
Y396967D01*
X166000Y353913D02*
Y395188D01*
X167000Y352704D02*
Y395518D01*
X146000Y376000D02*
X182500D01*
X146000Y375000D02*
X182500D01*
X146000Y395000D02*
X157188D01*
X146000Y377000D02*
X182500D01*
X146000Y378000D02*
X182500D01*
X146000Y371000D02*
X182500D01*
X146000Y364000D02*
X182500D01*
X146000Y370000D02*
X182500D01*
X146000Y374000D02*
X182500D01*
X146000Y372000D02*
X182500D01*
X146000Y373000D02*
X182500D01*
X146000Y397000D02*
X152447D01*
X146000Y396000D02*
X154322D01*
X146000Y400000D02*
X148840D01*
X146000Y398000D02*
X151003D01*
X146000Y399000D02*
X149826D01*
X146000Y402000D02*
X147286D01*
X146000Y401000D02*
X148002D01*
X146000Y403000D02*
X146673D01*
X169000Y426099D02*
Y426500D01*
X146000Y369000D02*
X182500D01*
X146000Y368000D02*
X182500D01*
X146000Y379000D02*
X182512D01*
X146000Y380000D02*
X182835D01*
X146000Y381000D02*
X183714D01*
X146000Y363000D02*
X182500D01*
X146000Y361000D02*
X182500D01*
X146000Y362000D02*
X182500D01*
X146000Y367000D02*
X182500D01*
X146000Y365000D02*
X182500D01*
X146000Y366000D02*
X182500D01*
X146000Y389000D02*
X189006D01*
X146000Y388000D02*
X189057D01*
X146000Y390000D02*
X189159D01*
X146000Y391000D02*
X189535D01*
X146000Y392000D02*
X190200D01*
X146000Y393000D02*
X191366D01*
X146000Y382000D02*
X184714D01*
X146000Y383000D02*
X185714D01*
X146000Y384000D02*
X186714D01*
X146000Y385000D02*
X187715D01*
X146000Y386000D02*
X188715D01*
X146000Y387000D02*
X189316D01*
X171000Y342500D02*
Y397630D01*
X182500Y343535D02*
Y378750D01*
X187500Y349000D02*
X189006D01*
X187500Y348000D02*
X189057D01*
X187500Y358000D02*
X189057D01*
X187500Y342500D02*
Y377714D01*
X189000Y338750D02*
Y348750D01*
Y358750D01*
Y368750D01*
X187500Y359000D02*
X189006D01*
X187500Y360000D02*
X189159D01*
X175000Y342500D02*
Y401684D01*
X176000Y342500D02*
Y403313D01*
X172000Y342500D02*
Y398405D01*
X173000Y342500D02*
Y399313D01*
X174000Y342500D02*
Y400387D01*
X177000Y342500D02*
Y405549D01*
X178000Y342500D02*
Y411250D01*
X179000Y342500D02*
Y426500D01*
X180000Y342500D02*
Y426500D01*
X182000Y343036D02*
Y426500D01*
X181000Y342500D02*
Y426500D01*
X187500Y347000D02*
X189316D01*
X187500Y351000D02*
X189535D01*
X187500Y352000D02*
X190200D01*
X187500Y353000D02*
X191366D01*
X187500Y354000D02*
X192439D01*
X187500Y350000D02*
X189159D01*
X190000Y351750D02*
Y355750D01*
X187500Y355000D02*
X190693D01*
X192000Y353333D02*
Y354167D01*
X191000Y352750D02*
Y354750D01*
X187500Y357000D02*
X189316D01*
X187500Y356000D02*
X189824D01*
X187500Y361000D02*
X189535D01*
X187500Y362000D02*
X190200D01*
X187500Y363000D02*
X191366D01*
X187500Y364000D02*
X192439D01*
X190000Y361750D02*
Y365750D01*
X191000Y362750D02*
Y364750D01*
X187500Y366000D02*
X189824D01*
X192000Y363333D02*
Y364167D01*
X187500Y365000D02*
X190693D01*
X176000Y419187D02*
Y426500D01*
X177000Y416951D02*
Y426500D01*
X171000Y424870D02*
Y426500D01*
X175000Y420816D02*
Y426500D01*
X174000Y422113D02*
Y426500D01*
X187500Y369000D02*
X189006D01*
X189000Y368750D02*
Y378750D01*
Y379215D01*
Y386285D02*
Y388750D01*
X178000Y411250D02*
Y426500D01*
X183000Y380250D02*
Y426500D01*
X170000Y425533D02*
Y426500D01*
X173000Y423187D02*
Y426500D01*
X172000Y424095D02*
Y426500D01*
X184000Y381286D02*
Y426500D01*
X186000Y383285D02*
Y426500D01*
X185000Y382285D02*
Y426500D01*
X187000Y384285D02*
Y426500D01*
X189000Y388750D02*
Y426500D01*
X188000Y385285D02*
Y426500D01*
X187500Y368000D02*
X189057D01*
X187500Y367000D02*
X189316D01*
X187500Y370000D02*
X189159D01*
X187500Y371000D02*
X189535D01*
X187500Y372000D02*
X190200D01*
X190000Y371750D02*
Y375750D01*
X187500Y373000D02*
X191366D01*
X191000Y372750D02*
Y374750D01*
X187500Y375000D02*
X190693D01*
X187500Y374000D02*
X192439D01*
X192000Y373333D02*
Y374167D01*
X187500Y377000D02*
X189316D01*
X187500Y376000D02*
X189824D01*
X187500Y377714D02*
X189024Y379238D01*
X187785Y378000D02*
X189057D01*
X183232Y380518D02*
X189432Y386717D01*
X190000Y391750D02*
Y426500D01*
X191000Y392750D02*
Y426500D01*
X193000Y393649D02*
Y426500D01*
X192000Y393333D02*
Y426500D01*
X194000Y303750D02*
X196000D01*
X194000Y313750D02*
X196000D01*
X194000Y303750D02*
X196000D01*
X194000Y313750D02*
X196000D01*
X198000Y303333D02*
Y304167D01*
X199000Y302750D02*
Y304750D01*
X200000Y301750D02*
Y305750D01*
X198000Y313333D02*
Y314167D01*
X199000Y312750D02*
Y314750D01*
X194000Y323750D02*
X196000D01*
X194000D02*
X196000D01*
X200000Y311750D02*
Y315750D01*
Y321750D02*
Y325750D01*
X198000Y323333D02*
Y324167D01*
X199000Y322750D02*
Y324750D01*
X198634Y303000D02*
X207366D01*
X198634Y313000D02*
X207366D01*
X197561Y304000D02*
X208439D01*
X197561Y314000D02*
X208439D01*
X200465Y301000D02*
X205535D01*
X199800Y302000D02*
X206200D01*
X199307Y305000D02*
X206693D01*
X200465Y311000D02*
X205535D01*
X200176Y306000D02*
X205824D01*
X199800Y312000D02*
X206200D01*
X197561Y324000D02*
X208439D01*
X200684Y317000D02*
X205316D01*
X199307Y315000D02*
X206693D01*
X200176Y316000D02*
X205824D01*
X200465Y321000D02*
X205535D01*
X199800Y322000D02*
X206200D01*
X198634Y323000D02*
X207366D01*
X194000Y333750D02*
X196000D01*
X194000D02*
X196000D01*
X199000Y332750D02*
Y334750D01*
X200000Y331750D02*
Y335750D01*
X198000Y333333D02*
Y334167D01*
X194000Y343750D02*
X196000D01*
X194000D02*
X196000D01*
X194000Y353750D02*
X196000D01*
X199000Y342750D02*
Y344750D01*
X200000Y341750D02*
Y345750D01*
X198000Y343333D02*
Y344167D01*
X199307Y325000D02*
X206693D01*
X198634Y333000D02*
X207366D01*
X197561Y334000D02*
X208439D01*
X200684Y327000D02*
X205316D01*
X200176Y326000D02*
X205824D01*
X200465Y331000D02*
X205535D01*
X200176Y336000D02*
X205824D01*
X199800Y332000D02*
X206200D01*
X199307Y335000D02*
X206693D01*
X198634Y343000D02*
X207366D01*
X197561Y344000D02*
X208439D01*
X199307Y345000D02*
X206693D01*
X198634Y353000D02*
X207366D01*
X200465Y341000D02*
X205535D01*
X199800Y342000D02*
X206200D01*
X200176Y346000D02*
X205824D01*
X200684Y347000D02*
X205316D01*
X200465Y351000D02*
X205535D01*
X199800Y352000D02*
X206200D01*
X200841Y300000D02*
X205159D01*
X200684Y307000D02*
X205316D01*
X200994Y309000D02*
X205006D01*
X200943Y308000D02*
X205057D01*
X200841Y310000D02*
X205159D01*
X201000Y298750D02*
Y308750D01*
X200994Y299000D02*
X205006D01*
X206000Y301750D02*
Y305750D01*
X207000Y302750D02*
Y304750D01*
X208000Y303333D02*
Y304167D01*
Y313333D02*
Y314167D01*
X201000Y308750D02*
Y318750D01*
X200943Y318000D02*
X205057D01*
X201000Y318750D02*
Y328750D01*
X200994Y319000D02*
X205006D01*
X200841Y320000D02*
X205159D01*
X205000Y308750D02*
Y318750D01*
X207000Y312750D02*
Y314750D01*
X206000Y311750D02*
Y315750D01*
X205000Y318750D02*
Y328750D01*
X207000Y322750D02*
Y324750D01*
X206000Y321750D02*
Y325750D01*
X212000Y303333D02*
Y304167D01*
X212634Y303000D02*
X223750D01*
X211561Y304000D02*
X223750D01*
X212000Y313333D02*
Y314167D01*
X212634Y313000D02*
X223750D01*
X211561Y314000D02*
X223750D01*
X208000Y323333D02*
Y324167D01*
X212634Y323000D02*
X223750D01*
X212000Y323333D02*
Y324167D01*
X200994Y329000D02*
X205006D01*
X200943Y328000D02*
X205057D01*
X200943Y338000D02*
X205057D01*
X200841Y330000D02*
X205159D01*
X200684Y337000D02*
X205316D01*
X201000Y328750D02*
Y338750D01*
X206000Y331750D02*
Y335750D01*
X205000Y328750D02*
Y338750D01*
X200994Y339000D02*
X205006D01*
X208000Y333333D02*
Y334167D01*
X207000Y332750D02*
Y334750D01*
X201000Y338750D02*
Y348750D01*
X200841Y340000D02*
X205159D01*
X200994Y349000D02*
X205006D01*
X200943Y348000D02*
X205057D01*
X200841Y350000D02*
X205159D01*
X205000Y338750D02*
Y348750D01*
X206000Y341750D02*
Y345750D01*
X207000Y342750D02*
Y344750D01*
X208000Y343333D02*
Y344167D01*
X211561Y324000D02*
X223750D01*
X212634Y333000D02*
X223750D01*
X212000Y333333D02*
Y334167D01*
X211561Y334000D02*
X223750D01*
X212000Y343333D02*
Y344167D01*
X212634Y343000D02*
X237366D01*
X211561Y344000D02*
X238439D01*
X212634Y353000D02*
X232214D01*
X194000Y353750D02*
X196000D01*
X194000Y363750D02*
X196000D01*
X194000D02*
X196000D01*
X198000Y353333D02*
Y354167D01*
X199000Y352750D02*
Y354750D01*
X198000Y363333D02*
Y364167D01*
X199000Y362750D02*
Y364750D01*
X200000Y361750D02*
Y365750D01*
X194000Y373750D02*
X196000D01*
X194000D02*
X196000D01*
X194000Y383750D02*
X196000D01*
X198000Y373333D02*
Y374167D01*
X199000Y372750D02*
Y374750D01*
Y382750D02*
Y384750D01*
X194000Y383750D02*
X196000D01*
X198000Y383333D02*
Y384167D01*
X199800Y362000D02*
X206200D01*
X197561Y354000D02*
X208439D01*
X199307Y355000D02*
X206693D01*
X199307Y365000D02*
X206693D01*
X198634Y363000D02*
X207366D01*
X197561Y364000D02*
X208439D01*
X197561Y374000D02*
X208439D01*
X197561Y384000D02*
X208439D01*
X199800Y372000D02*
X206200D01*
X198634Y373000D02*
X207366D01*
X199307Y375000D02*
X206693D01*
X199800Y382000D02*
X206200D01*
X198634Y383000D02*
X207366D01*
X199307Y385000D02*
X206693D01*
X146000Y394000D02*
X211715D01*
X165312Y395000D02*
X212715D01*
X168178Y396000D02*
X213715D01*
X170053Y397000D02*
X214715D01*
X171497Y398000D02*
X215715D01*
X199800Y392000D02*
X206200D01*
X198634Y393000D02*
X207366D01*
X194000Y393750D02*
X196000D01*
X172674Y399000D02*
X216715D01*
X173660Y400000D02*
X217715D01*
X194000Y393750D02*
Y426500D01*
X174498Y401000D02*
X218910D01*
X177998Y411000D02*
X272002D01*
X177953Y410000D02*
X272047D01*
X177983Y412000D02*
X272017D01*
X198000Y393333D02*
Y426500D01*
X200000Y391750D02*
Y426500D01*
X199000Y392750D02*
Y426500D01*
X195000Y393750D02*
Y426500D01*
X197000Y393649D02*
Y426500D01*
X196000Y393750D02*
Y426500D01*
X175827Y403000D02*
X274173D01*
X175214Y402000D02*
X274786D01*
X177156Y406000D02*
X272844D01*
X176350Y404000D02*
X273650D01*
X176790Y405000D02*
X273210D01*
X177848Y409000D02*
X272152D01*
X177452Y407000D02*
X272548D01*
X177682Y408000D02*
X272318D01*
X177908Y413000D02*
X272092D01*
X177773Y414000D02*
X272227D01*
X177575Y415000D02*
X272425D01*
X174095Y422000D02*
X275905D01*
X173187Y423000D02*
X276813D01*
X172113Y424000D02*
X277887D01*
X170816Y425000D02*
X279184D01*
X169187Y426000D02*
X280813D01*
X168178Y426500D02*
X281822D01*
X177312Y416000D02*
X272688D01*
X176982Y417000D02*
X273018D01*
X176580Y418000D02*
X273420D01*
X176099Y419000D02*
X273901D01*
X175533Y420000D02*
X274467D01*
X174870Y421000D02*
X275130D01*
X200000Y351750D02*
Y355750D01*
X200176Y356000D02*
X205824D01*
X200684Y357000D02*
X205316D01*
X200465Y361000D02*
X205535D01*
X200176Y366000D02*
X205824D01*
X201000Y348750D02*
Y358750D01*
X206000Y351750D02*
Y355750D01*
X205000Y348750D02*
Y358750D01*
X200994Y359000D02*
X205006D01*
X200943Y358000D02*
X205057D01*
X200841Y360000D02*
X205159D01*
X200943Y368000D02*
X205057D01*
X200684Y367000D02*
X205316D01*
X200000Y371750D02*
Y375750D01*
X200841Y370000D02*
X205159D01*
X200465Y371000D02*
X205535D01*
X201000Y368750D02*
Y378750D01*
X205000Y358750D02*
Y368750D01*
X201000Y358750D02*
Y368750D01*
X205000D02*
Y378750D01*
X200994Y369000D02*
X205006D01*
X206000Y371750D02*
Y375750D01*
X207000Y352750D02*
Y354750D01*
X208000Y353333D02*
Y354167D01*
X212000Y353333D02*
Y354167D01*
X213000Y352750D02*
Y354750D01*
X211561Y354000D02*
X231459D01*
X212634Y363000D02*
X231300D01*
X206000Y361750D02*
Y365750D01*
X207000Y362750D02*
Y364750D01*
X208000Y363333D02*
Y364167D01*
X212000Y363333D02*
Y364167D01*
X213000Y362750D02*
Y364750D01*
X211561Y364000D02*
X231750D01*
X200684Y377000D02*
X205316D01*
X200176Y376000D02*
X205824D01*
X200000Y381750D02*
Y385750D01*
X200465Y381000D02*
X205535D01*
X200176Y386000D02*
X205824D01*
X200994Y379000D02*
X205006D01*
X207000Y372750D02*
Y374750D01*
X200943Y378000D02*
X205057D01*
X200841Y380000D02*
X205159D01*
X207000Y382750D02*
Y384750D01*
X206000Y381750D02*
Y385750D01*
X201000Y378750D02*
Y386250D01*
X200330D02*
X205670D01*
X201000Y391250D02*
Y426500D01*
X200330Y391250D02*
X205670D01*
X202000D02*
Y426500D01*
X203000Y391250D02*
Y426500D01*
X205000Y378750D02*
Y386250D01*
X204000Y391250D02*
Y426500D01*
X205000Y391250D02*
Y426500D01*
X207000Y392750D02*
Y426500D01*
X206000Y391750D02*
Y426500D01*
X208000Y373333D02*
Y374167D01*
X211561Y384000D02*
X231250D01*
X212000Y373333D02*
Y374167D01*
X212634Y373000D02*
X237366D01*
X213000Y372750D02*
Y374750D01*
X212000Y383333D02*
Y384167D01*
X211561Y374000D02*
X238439D01*
X212634Y383000D02*
X231250D01*
X208000Y383333D02*
Y384167D01*
Y393333D02*
Y426500D01*
X209000Y393649D02*
Y426500D01*
X211000Y393649D02*
Y426500D01*
X213000Y382750D02*
Y384750D01*
X211294Y393580D02*
X218232Y400518D01*
X210000Y393750D02*
Y426500D01*
X213000Y395286D02*
Y426500D01*
X212000Y394285D02*
Y426500D01*
X216000Y178500D02*
Y186750D01*
X217000Y178500D02*
Y186750D01*
X213000Y178500D02*
Y186750D01*
X215000Y178500D02*
Y186750D01*
X214000Y178500D02*
Y186750D01*
X221000Y178500D02*
Y186750D01*
X223000Y178500D02*
Y186750D01*
X222000Y178500D02*
Y186750D01*
X218000Y178500D02*
Y186750D01*
X220000Y178500D02*
Y186750D01*
X219000Y178500D02*
Y186750D01*
X213000Y193250D02*
Y194750D01*
X214000Y193250D02*
Y195750D01*
X215000Y198750D02*
Y208750D01*
Y193250D02*
Y198750D01*
X216000Y193250D02*
Y217250D01*
X220000Y193250D02*
Y217250D01*
X222000Y193250D02*
Y217250D01*
X221000Y193250D02*
Y217250D01*
X217000Y193250D02*
Y217250D01*
X219000Y193250D02*
Y217250D01*
X218000Y193250D02*
Y217250D01*
X224000Y178500D02*
Y186750D01*
X225000Y178500D02*
Y186750D01*
X226000Y178500D02*
Y186750D01*
X213307Y195000D02*
X236693D01*
X214176Y196000D02*
X235824D01*
X230000Y178500D02*
Y186750D01*
X232000Y178500D02*
Y186750D01*
X231000Y178500D02*
Y186750D01*
X227000Y178500D02*
Y186750D01*
X229000Y178500D02*
Y186750D01*
X228000Y178500D02*
Y186750D01*
X223000Y193250D02*
Y217250D01*
X214684Y197000D02*
X235316D01*
X214994Y199000D02*
X235006D01*
X214943Y198000D02*
X235057D01*
X214841Y200000D02*
X235159D01*
X230000Y193250D02*
Y217250D01*
X232000Y193250D02*
Y217250D01*
X231000Y193250D02*
Y217250D01*
X227000Y193250D02*
Y217250D01*
X229000Y193250D02*
Y217250D01*
X228000Y193250D02*
Y217250D01*
X213000Y202750D02*
Y204750D01*
X214000Y201750D02*
Y205750D01*
Y211750D02*
Y215750D01*
X213800Y222000D02*
X214750D01*
X213307Y225000D02*
X214750D01*
X215000Y208750D02*
Y217250D01*
X214770D02*
X223250D01*
Y218000D02*
X226750D01*
X223250Y225000D02*
X226750D01*
X223250Y219000D02*
X226750D01*
X223250Y220000D02*
X226750D01*
X214000Y221750D02*
Y225750D01*
X214750Y220311D02*
Y227189D01*
X214176Y226000D02*
X214750D01*
X214899Y227750D02*
X216250D01*
X223250Y217250D02*
Y227750D01*
Y226000D02*
X226750D01*
Y217250D02*
Y227750D01*
X215000D02*
Y228750D01*
X221250Y227750D02*
X223250D01*
X214943Y228000D02*
X216250D01*
X213800Y202000D02*
X236200D01*
X213307Y205000D02*
X236693D01*
X214176Y206000D02*
X235824D01*
X213800Y212000D02*
X236200D01*
X213307Y215000D02*
X236693D01*
X214943Y208000D02*
X235057D01*
X214465Y201000D02*
X235535D01*
X214684Y207000D02*
X235316D01*
X214994Y209000D02*
X235006D01*
X214841Y210000D02*
X235159D01*
X214465Y211000D02*
X235535D01*
X223250Y221000D02*
X226750D01*
X214176Y216000D02*
X235824D01*
X214684Y217000D02*
X235316D01*
X223250Y222000D02*
X226750D01*
X223250Y223000D02*
X226750D01*
X221250Y228000D02*
X228465D01*
X223250Y227000D02*
X226750D01*
Y217250D02*
X235230D01*
X223250Y224000D02*
X226750D01*
X228000Y227750D02*
Y228500D01*
X226750Y227750D02*
X228714D01*
X228232Y228232D02*
X228714Y227750D01*
X236000Y178500D02*
Y186750D01*
X237000Y178500D02*
Y186750D01*
X233000Y178500D02*
Y186750D01*
X235000Y178500D02*
Y186750D01*
X234000Y178500D02*
Y186750D01*
X238000Y178500D02*
Y186750D01*
X240000Y178500D02*
Y186750D01*
X239000Y178500D02*
Y186750D01*
X240000Y193250D02*
Y193750D01*
X242000Y178500D02*
Y186750D01*
X241000Y178500D02*
Y186750D01*
X233000Y193250D02*
Y217250D01*
X234000Y193250D02*
Y217250D01*
X235000Y193250D02*
Y198750D01*
X236000Y193250D02*
Y195750D01*
X235000Y198750D02*
Y208750D01*
X241000Y193250D02*
Y193851D01*
X242000Y193250D02*
Y194167D01*
X243000Y193250D02*
Y194750D01*
X237000Y193250D02*
Y194750D01*
X239000Y193250D02*
Y193851D01*
X238000Y193250D02*
Y194167D01*
X243000Y178500D02*
Y186750D01*
X244000Y178500D02*
Y186750D01*
Y193250D02*
Y195750D01*
X245000Y178500D02*
Y186750D01*
X244176Y196000D02*
X249824D01*
X246000Y178500D02*
Y186750D01*
X248000Y178500D02*
Y186750D01*
X247000Y178500D02*
Y186750D01*
X249000Y178500D02*
Y186750D01*
X250000Y178500D02*
Y186750D01*
Y193250D02*
Y195750D01*
X245000Y193250D02*
Y198750D01*
X244684Y197000D02*
X249316D01*
X244943Y198000D02*
X249057D01*
X246000Y193250D02*
Y221250D01*
X248000Y193250D02*
Y221250D01*
X247000Y193250D02*
Y221250D01*
X245000Y198750D02*
Y208750D01*
X249000Y193250D02*
Y198750D01*
Y208750D01*
X236000Y201750D02*
Y205750D01*
X237000Y202750D02*
Y204750D01*
X238000Y203333D02*
Y204167D01*
X242000Y203333D02*
Y204167D01*
X243000Y202750D02*
Y204750D01*
X244000Y201750D02*
Y205750D01*
X235000Y208750D02*
Y217250D01*
X236000Y211750D02*
Y215750D01*
X237000Y212750D02*
Y214750D01*
X238000Y213333D02*
Y214167D01*
X244000Y211750D02*
Y215750D01*
X245000Y208750D02*
Y218750D01*
X242000Y213333D02*
Y214167D01*
X243000Y212750D02*
Y214750D01*
X244465Y201000D02*
X249535D01*
X244176Y206000D02*
X249824D01*
X244684Y207000D02*
X249316D01*
X244465Y211000D02*
X249535D01*
X244994Y199000D02*
X249006D01*
X244841Y200000D02*
X249159D01*
X250000Y201750D02*
Y205750D01*
X244994Y209000D02*
X249006D01*
X244943Y208000D02*
X249057D01*
X244841Y210000D02*
X249159D01*
X244176Y216000D02*
X249824D01*
X244684Y217000D02*
X249316D01*
X244841Y220000D02*
X249159D01*
X244465Y221000D02*
X249535D01*
X244330Y221250D02*
X249670D01*
X249000Y208750D02*
Y218750D01*
X250000Y211750D02*
Y215750D01*
X244943Y218000D02*
X249057D01*
X245000Y218750D02*
Y221250D01*
X244994Y219000D02*
X249006D01*
X249000Y218750D02*
Y221250D01*
X214000Y231750D02*
Y235750D01*
X214465Y231000D02*
X216250D01*
X214176Y236000D02*
X216250D01*
X213800Y232000D02*
X216250D01*
X213307Y235000D02*
X216250D01*
X214994Y229000D02*
X216250D01*
X215000Y228750D02*
Y238750D01*
X214943Y238000D02*
X216250D01*
X214841Y230000D02*
X216250D01*
X214684Y237000D02*
X216250D01*
X214465Y241000D02*
X216250D01*
X214841Y240000D02*
X216250D01*
X214000Y241750D02*
Y245750D01*
X214943Y248000D02*
X216250D01*
X215000Y238750D02*
Y248750D01*
X216250Y227750D02*
Y251250D01*
X216000Y227750D02*
Y251250D01*
X215000Y248750D02*
Y251250D01*
X214994Y239000D02*
X216250D01*
X214994Y249000D02*
X216250D01*
X221250Y233000D02*
X227500D01*
X221250Y232000D02*
X227500D01*
X214176Y246000D02*
X216250D01*
X213800Y242000D02*
X216250D01*
X213307Y245000D02*
X216250D01*
X221250Y234000D02*
X227500D01*
X221250Y229000D02*
X227709D01*
X221250Y231000D02*
X227500D01*
X221250Y246000D02*
X227500D01*
X221250Y235000D02*
X227500D01*
X221250Y236000D02*
X227500D01*
X214684Y247000D02*
X216250D01*
X221250Y249000D02*
X227500D01*
X214330Y251250D02*
X216250D01*
X214841Y250000D02*
X216250D01*
X214465Y251000D02*
X216250D01*
X221250Y227750D02*
Y253750D01*
Y247000D02*
X227500D01*
X221250Y248000D02*
X227500D01*
X221250Y252000D02*
X227500D01*
X221250Y250000D02*
X227500D01*
X221250Y251000D02*
X227500D01*
X214330Y256250D02*
X216250D01*
X214000Y261750D02*
Y265750D01*
X213800Y262000D02*
X216250D01*
X213307Y265000D02*
X216250D01*
X215000Y256250D02*
Y258750D01*
X214684Y257000D02*
X216250D01*
X214943Y258000D02*
X216250D01*
X214465Y261000D02*
X216250D01*
X214994Y259000D02*
X216250D01*
X214841Y260000D02*
X216250D01*
X214330Y266250D02*
X216250D01*
X214176Y266000D02*
X216250D01*
X214000Y271750D02*
Y275750D01*
X214176Y276000D02*
X216250D01*
X214684Y277000D02*
X216250D01*
X215000Y258750D02*
Y266250D01*
X216250Y256250D02*
Y266250D01*
X216000Y256250D02*
Y266250D01*
X215000Y271250D02*
Y278750D01*
X216000Y271250D02*
Y284214D01*
X215000Y278750D02*
Y285214D01*
X221250Y253750D02*
Y268750D01*
Y267000D02*
X225714D01*
X214330Y271250D02*
X216250D01*
X221250Y268000D02*
X224714D01*
X221250Y269000D02*
X223959D01*
X221250Y253000D02*
X227551D01*
X221250Y254000D02*
X228000D01*
X221250Y255000D02*
X228964D01*
X221250Y256000D02*
X230160D01*
X221250Y257000D02*
X235316D01*
X221250Y258000D02*
X235057D01*
X214943Y278000D02*
X216250D01*
X213800Y272000D02*
X216250D01*
X213307Y275000D02*
X216250D01*
X214465Y281000D02*
X216250D01*
X214994Y279000D02*
X216250D01*
X214841Y280000D02*
X216250D01*
Y271250D02*
Y283964D01*
X221250Y273000D02*
X223750D01*
X221250Y268750D02*
Y285000D01*
Y281000D02*
X223750D01*
X221250Y275000D02*
X223750D01*
X221250Y276000D02*
X223750D01*
X221250Y237000D02*
X227500D01*
X221250Y230000D02*
X227500D01*
X221250Y240000D02*
X227500D01*
X221250Y238000D02*
X227500D01*
X221250Y239000D02*
X227500D01*
X221250Y241000D02*
X227500D01*
X221250Y244000D02*
X227500D01*
X221250Y242000D02*
X227500D01*
X221250Y243000D02*
X227500D01*
X224000Y193250D02*
Y268910D01*
X225000Y193250D02*
Y267715D01*
X222000Y227750D02*
Y396250D01*
X221250Y245000D02*
X227500D01*
X223000Y227750D02*
Y396250D01*
X226000Y193250D02*
Y266750D01*
X227500Y230000D02*
Y252500D01*
X227000Y227750D02*
Y266301D01*
X228000Y254000D02*
Y266250D01*
X228232Y254268D02*
X229482Y255518D01*
X231250Y256250D02*
X235670D01*
X235000D02*
Y258750D01*
X244330Y256250D02*
X249670D01*
X249000D02*
Y258750D01*
X245000Y256250D02*
Y258750D01*
X244684Y257000D02*
X249316D01*
X244943Y258000D02*
X249057D01*
X229000Y255035D02*
Y266250D01*
X231000Y256238D02*
Y266250D01*
X230000Y255915D02*
Y266250D01*
X232000Y256250D02*
Y266250D01*
X234000Y256250D02*
Y266250D01*
X233000Y256250D02*
Y266250D01*
X248000Y256250D02*
Y266250D01*
X246000Y256250D02*
Y266250D01*
X245000Y258750D02*
Y266250D01*
X247000Y256250D02*
Y266250D01*
X221250Y259000D02*
X235006D01*
X221250Y260000D02*
X235159D01*
X221250Y261000D02*
X235535D01*
X221250Y262000D02*
X236200D01*
X221250Y266000D02*
X235824D01*
X236000Y261750D02*
Y265750D01*
X235000Y258750D02*
Y266250D01*
X224482Y268232D02*
X225732Y266982D01*
X227500Y266250D02*
X235670D01*
X221250Y271000D02*
X223750D01*
X221250Y270000D02*
X223750D01*
X221250Y277000D02*
X223750D01*
X221250Y272000D02*
X223750D01*
X221250Y274000D02*
X223750D01*
Y270000D02*
Y337500D01*
X221250Y280000D02*
X223750D01*
X221250Y278000D02*
X223750D01*
X221250Y279000D02*
X223750D01*
X237000Y262750D02*
Y264750D01*
X221250Y263000D02*
X237366D01*
X221250Y265000D02*
X236693D01*
X221250Y264000D02*
X238439D01*
X238000Y263333D02*
Y264167D01*
X244994Y259000D02*
X249006D01*
X244841Y260000D02*
X249159D01*
X244465Y261000D02*
X249535D01*
X242000Y263333D02*
Y264167D01*
X243800Y262000D02*
X250200D01*
X243000Y262750D02*
Y264750D01*
X244000Y261750D02*
Y265750D01*
X244330Y281250D02*
X249670D01*
X244176Y266000D02*
X249824D01*
X244330Y266250D02*
X249670D01*
X247000Y281250D02*
Y301250D01*
X250000Y261750D02*
Y265750D01*
X249000Y258750D02*
Y266250D01*
X245000Y281250D02*
Y288750D01*
X249000Y281250D02*
Y288750D01*
X248000Y281250D02*
Y301250D01*
X251000Y178500D02*
Y186750D01*
X252000Y178500D02*
Y186750D01*
X253000Y178500D02*
Y186750D01*
X254000Y178500D02*
Y186750D01*
Y193750D02*
X256000D01*
X255000Y178500D02*
Y186750D01*
X256000Y178500D02*
Y186750D01*
X255000Y193250D02*
Y193750D01*
X254000Y193250D02*
Y193750D01*
X256000Y193250D02*
Y193750D01*
X241561Y194000D02*
X252439D01*
X243800Y202000D02*
X250200D01*
X243307Y195000D02*
X250693D01*
X242634Y203000D02*
X251366D01*
X251000Y193250D02*
Y194750D01*
X256154Y193250D02*
X256703Y193800D01*
X252000Y193250D02*
Y194167D01*
X251000Y202750D02*
Y204750D01*
X253000Y193250D02*
Y193851D01*
X252000Y203333D02*
Y204167D01*
X257000Y178500D02*
Y186750D01*
X258000Y178500D02*
Y186789D01*
X258750Y187000D02*
X273420D01*
X259000Y178500D02*
Y187117D01*
X260000Y178500D02*
Y187904D01*
X261000Y178500D02*
Y188904D01*
X260096Y188000D02*
X273018D01*
X260994Y199000D02*
X261904D01*
X259000Y202750D02*
Y204750D01*
X258000Y203333D02*
Y204167D01*
X258634Y203000D02*
X265904D01*
X260841Y200000D02*
X262904D01*
X259798Y187702D02*
X274276Y202179D01*
X260950Y198047D02*
X273625Y210721D01*
X260000Y201750D02*
Y205750D01*
X260465Y201000D02*
X263904D01*
X259800Y202000D02*
X264904D01*
X243307Y205000D02*
X250693D01*
X241561Y204000D02*
X252439D01*
X243800Y212000D02*
X250200D01*
X242634Y213000D02*
X251366D01*
X254000Y203750D02*
X256000D01*
X254000D02*
X256000D01*
X254000Y213750D02*
X256000D01*
X251000Y212750D02*
Y214750D01*
X252000Y213333D02*
Y214167D01*
X243307Y215000D02*
X250693D01*
X241561Y214000D02*
X252439D01*
X260000Y211750D02*
Y215750D01*
X261000Y208750D02*
Y218750D01*
X254000Y213750D02*
X256000D01*
X258000Y213333D02*
Y214167D01*
X259000Y212750D02*
Y214750D01*
X257561Y204000D02*
X266904D01*
X259307Y205000D02*
X267904D01*
X259800Y212000D02*
X273625D01*
X258634Y213000D02*
X273625D01*
X260176Y206000D02*
X268904D01*
X260684Y207000D02*
X269904D01*
X260943Y208000D02*
X270904D01*
X260994Y209000D02*
X271904D01*
X260841Y210000D02*
X272904D01*
X260465Y211000D02*
X273625D01*
X257561Y214000D02*
X273625D01*
X259307Y215000D02*
X273625D01*
X260176Y216000D02*
X273625D01*
X260684Y217000D02*
X273625D01*
X260943Y218000D02*
X273625D01*
X260465Y221000D02*
X273625D01*
X260994Y219000D02*
X273625D01*
X260841Y220000D02*
X273625D01*
X263000Y178500D02*
Y190904D01*
X264000Y178500D02*
Y191904D01*
X262000Y178500D02*
Y189904D01*
X263096Y191000D02*
X272227D01*
X264096Y192000D02*
X272092D01*
X265000Y178500D02*
Y192904D01*
X272000Y178500D02*
Y193750D01*
X266000Y178500D02*
Y193904D01*
X267000Y178500D02*
Y194904D01*
X265096Y193000D02*
X272017D01*
X266096Y194000D02*
X272002D01*
X261000Y198096D02*
Y198750D01*
X267096Y195000D02*
X272047D01*
X261000Y198750D02*
Y208750D01*
X262000Y199096D02*
Y222215D01*
X263000Y200096D02*
Y223215D01*
X268000Y178500D02*
Y195904D01*
X269000Y178500D02*
Y196904D01*
X270000Y178500D02*
Y197904D01*
X271000Y178500D02*
Y198904D01*
X268096Y196000D02*
X272152D01*
X272000Y193750D02*
Y199904D01*
X273000Y178500D02*
Y188049D01*
X274000Y178500D02*
Y185813D01*
X262096Y190000D02*
X272425D01*
X275000Y178500D02*
Y184184D01*
X261096Y189000D02*
X272688D01*
X279000Y178500D02*
Y180130D01*
X281000Y178500D02*
Y178901D01*
X280000Y178500D02*
Y179467D01*
X276000Y178500D02*
Y182887D01*
X278000Y178500D02*
Y180905D01*
X277000Y178500D02*
Y181813D01*
X269096Y197000D02*
X272318D01*
X270096Y198000D02*
X272548D01*
X271096Y199000D02*
X272844D01*
X272096Y200000D02*
X273210D01*
X273000Y199451D02*
Y200904D01*
X273096Y201000D02*
X273650D01*
X301998Y204000D02*
X304000D01*
X303327Y202000D02*
X304000D01*
X302714Y203000D02*
X304000D01*
X261000Y218750D02*
Y221459D01*
X261786Y222000D02*
X273625D01*
X262786Y223000D02*
X273625D01*
X280000Y208033D02*
Y208482D01*
X301160Y205000D02*
X304000D01*
X280103Y209000D02*
X281822D01*
X280125Y210000D02*
X284688D01*
X280125Y211000D02*
X304000D01*
X280125Y214000D02*
X304000D01*
X261768Y221982D02*
X263018Y223232D01*
X263541Y224000D02*
X273625D01*
X263750Y225000D02*
X273625D01*
X263750Y228000D02*
X273625D01*
X263750Y226000D02*
X273625D01*
X263750Y227000D02*
X273625D01*
X263750Y231000D02*
X273625D01*
X263750Y229000D02*
X273625D01*
X263750Y230000D02*
X273625D01*
X280125Y215000D02*
X304000D01*
X280125Y213000D02*
X304000D01*
X280125Y218000D02*
X304000D01*
X280125Y216000D02*
X304000D01*
X280125Y217000D02*
X304000D01*
X297553Y208000D02*
X304000D01*
X300174Y206000D02*
X304000D01*
X298997Y207000D02*
X304000D01*
X280125Y212000D02*
X304000D01*
X295678Y209000D02*
X304000D01*
X292812Y210000D02*
X304000D01*
X280125Y227000D02*
X304000D01*
X280125Y225000D02*
X304000D01*
X280125Y226000D02*
X304000D01*
X280125Y230000D02*
X304000D01*
X280125Y228000D02*
X304000D01*
X280125Y229000D02*
X304000D01*
X280125Y221000D02*
X304000D01*
X280125Y219000D02*
X304000D01*
X280125Y220000D02*
X304000D01*
X280125Y224000D02*
X304000D01*
X280125Y222000D02*
X304000D01*
X280125Y223000D02*
X304000D01*
X261000Y236041D02*
Y236459D01*
X263750Y225000D02*
Y232500D01*
X262000Y235285D02*
Y237214D01*
X261768Y235518D02*
X263018Y234268D01*
X263000Y234285D02*
Y238214D01*
X264000Y201096D02*
Y239214D01*
X265000Y202096D02*
Y240214D01*
X266000Y203096D02*
Y241214D01*
X267000Y204096D02*
Y242214D01*
X261768Y236982D02*
X270518Y245732D01*
X268000Y205096D02*
Y243215D01*
X269000Y206096D02*
Y244215D01*
X270000Y207096D02*
Y245215D01*
X271000Y208096D02*
Y246410D01*
X262285Y235000D02*
X273625D01*
X263250Y234000D02*
X273625D01*
X262786Y238000D02*
X273625D01*
X261090Y236000D02*
X273625D01*
X261786Y237000D02*
X273625D01*
X263786Y239000D02*
X273625D01*
X263750Y232000D02*
X273625D01*
X263700Y233000D02*
X273625D01*
X266786Y242000D02*
X273625D01*
X264786Y240000D02*
X273625D01*
X265786Y241000D02*
X273625D01*
X268786Y244000D02*
X273625D01*
X267786Y243000D02*
X273625D01*
X271199Y247000D02*
X273625D01*
X269785Y245000D02*
X273625D01*
X270750Y246000D02*
X273625D01*
X271250Y250000D02*
X273625D01*
X271250Y248000D02*
X273625D01*
X271250Y249000D02*
X273625D01*
X271250Y253000D02*
X273625D01*
X271250Y251000D02*
X273625D01*
X271250Y252000D02*
X273625D01*
X242634Y263000D02*
X251366D01*
X252000Y263333D02*
Y264167D01*
X254000Y263750D02*
X256000D01*
X241561Y264000D02*
X252439D01*
X258000Y263333D02*
Y264167D01*
X258750Y262926D02*
Y264574D01*
X254000Y263750D02*
X256000D01*
X257561Y264000D02*
X258750D01*
X251000Y262750D02*
Y264750D01*
X243307Y265000D02*
X250693D01*
X260330Y281250D02*
X267500D01*
X269268Y280518D02*
X270518Y279268D01*
X270000Y279785D02*
Y310214D01*
X268000Y281200D02*
Y308214D01*
X269000Y280750D02*
Y309214D01*
X271250Y261000D02*
X273625D01*
X271250Y260000D02*
X273625D01*
X271250Y264000D02*
X273625D01*
X271250Y262000D02*
X273625D01*
X271250Y263000D02*
X273625D01*
X271250Y256000D02*
X273625D01*
X271250Y254000D02*
X273625D01*
X271250Y255000D02*
X273625D01*
X271250Y259000D02*
X273625D01*
X271250Y257000D02*
X273625D01*
X271250Y258000D02*
X273625D01*
X271000Y278590D02*
Y311410D01*
X268590Y281000D02*
X273625D01*
X270750Y279000D02*
X273625D01*
X269785Y280000D02*
X273625D01*
X271250Y270000D02*
X273625D01*
X271250Y265000D02*
X273625D01*
X271250Y269000D02*
X273625D01*
X271199Y278000D02*
X273625D01*
X271250Y275000D02*
X273625D01*
X271250Y276000D02*
X273625D01*
X282000Y209080D02*
Y311036D01*
X283000Y209482D02*
Y310801D01*
X284000Y209812D02*
Y310756D01*
X285000Y210075D02*
Y310894D01*
X286000Y210273D02*
Y311231D01*
X294000Y209656D02*
Y310756D01*
X295000Y209290D02*
Y310894D01*
X296000Y208850D02*
Y311231D01*
X291000Y210348D02*
Y311487D01*
X293000Y209952D02*
Y310801D01*
X292000Y210182D02*
Y311036D01*
X272000Y209096D02*
Y343750D01*
X281000Y208599D02*
Y311487D01*
X273000Y210096D02*
Y343750D01*
X280125Y209375D02*
Y312114D01*
X273625Y210721D02*
Y319375D01*
X287000Y210408D02*
Y311813D01*
X297000Y208327D02*
Y311813D01*
X298000Y207714D02*
Y312759D01*
X288000Y210483D02*
Y312759D01*
X290000Y210453D02*
Y312227D01*
X289000Y210498D02*
Y313477D01*
X280125Y238000D02*
X304000D01*
X280125Y237000D02*
X304000D01*
X280125Y241000D02*
X304000D01*
X280125Y239000D02*
X304000D01*
X280125Y240000D02*
X304000D01*
X280125Y233000D02*
X304000D01*
X280125Y231000D02*
X304000D01*
X280125Y232000D02*
X304000D01*
X280125Y236000D02*
X304000D01*
X280125Y234000D02*
X304000D01*
X280125Y235000D02*
X304000D01*
X299000Y206998D02*
Y314611D01*
X280125Y242000D02*
X304000D01*
X300000Y206160D02*
Y318965D01*
X280125Y245000D02*
X304000D01*
X280125Y243000D02*
X304000D01*
X280125Y244000D02*
X304000D01*
Y200678D02*
Y404322D01*
Y200678D02*
Y404322D01*
Y200678D02*
Y404322D01*
X301000Y205174D02*
Y319965D01*
X302000Y203997D02*
Y321000D01*
X303000Y202553D02*
Y402447D01*
X280125Y257000D02*
X304000D01*
X280125Y253000D02*
X304000D01*
X280125Y260000D02*
X304000D01*
X280125Y258000D02*
X304000D01*
X280125Y259000D02*
X304000D01*
X280125Y248000D02*
X304000D01*
X280125Y246000D02*
X304000D01*
X280125Y247000D02*
X304000D01*
X280125Y252000D02*
X304000D01*
X280125Y250000D02*
X304000D01*
X280125Y251000D02*
X304000D01*
X271250Y247500D02*
Y277500D01*
Y272000D02*
X273625D01*
X271250Y277000D02*
X273625D01*
X271250Y273000D02*
X273625D01*
X271250Y274000D02*
X273625D01*
X271250Y266000D02*
X273625D01*
X280125Y261000D02*
X304000D01*
X280125Y262000D02*
X304000D01*
X271250Y271000D02*
X273625D01*
X271250Y267000D02*
X273625D01*
X271250Y268000D02*
X273625D01*
X280125Y266000D02*
X304000D01*
X280125Y265000D02*
X304000D01*
X280125Y269000D02*
X304000D01*
X280125Y267000D02*
X304000D01*
X280125Y268000D02*
X304000D01*
X280125Y255000D02*
X304000D01*
X280125Y249000D02*
X304000D01*
X280125Y254000D02*
X304000D01*
X280125Y264000D02*
X304000D01*
X280125Y256000D02*
X304000D01*
X280125Y263000D02*
X304000D01*
X280125Y278000D02*
X304000D01*
X280125Y276000D02*
X304000D01*
X280125Y277000D02*
X304000D01*
X280125Y281000D02*
X304000D01*
X280125Y279000D02*
X304000D01*
X280125Y280000D02*
X304000D01*
X280125Y272000D02*
X304000D01*
X280125Y270000D02*
X304000D01*
X280125Y271000D02*
X304000D01*
X280125Y275000D02*
X304000D01*
X280125Y273000D02*
X304000D01*
X280125Y274000D02*
X304000D01*
X214000Y281750D02*
Y285750D01*
X213800Y282000D02*
X216250D01*
X213307Y285000D02*
X215214D01*
X214191Y286023D02*
X216250Y283964D01*
X217285Y290000D02*
X223750D01*
X221250Y284000D02*
X223750D01*
X221250Y282000D02*
X223750D01*
X221250Y283000D02*
X223750D01*
X218285Y289000D02*
X223750D01*
X214000Y291750D02*
Y295750D01*
X214330Y291250D02*
X215000D01*
X213000Y302750D02*
Y304750D01*
X214000Y301750D02*
Y305750D01*
Y311750D02*
Y315750D01*
X216768Y290518D02*
X220518Y286768D01*
X215000Y308750D02*
Y318750D01*
Y291250D02*
Y298750D01*
Y308750D01*
X213307Y295000D02*
X223750D01*
X213800Y292000D02*
X223750D01*
X214943Y298000D02*
X223750D01*
X214176Y296000D02*
X223750D01*
X214684Y297000D02*
X223750D01*
X220286Y287000D02*
X223750D01*
X221250Y285000D02*
X223750D01*
X221041Y286000D02*
X223750D01*
X214994Y299000D02*
X223750D01*
X219285Y288000D02*
X223750D01*
X216090Y291000D02*
X223750D01*
X213307Y305000D02*
X223750D01*
X213800Y302000D02*
X223750D01*
X213800Y312000D02*
X223750D01*
X214176Y306000D02*
X223750D01*
X214465Y311000D02*
X223750D01*
X214684Y307000D02*
X223750D01*
X214841Y300000D02*
X223750D01*
X214465Y301000D02*
X223750D01*
X214841Y310000D02*
X223750D01*
X214943Y308000D02*
X223750D01*
X214994Y309000D02*
X223750D01*
X213000Y312750D02*
Y314750D01*
X213307Y315000D02*
X223750D01*
X213000Y322750D02*
Y324750D01*
X213307Y325000D02*
X223750D01*
X214000Y321750D02*
Y325750D01*
X214994Y319000D02*
X223750D01*
X214684Y317000D02*
X223750D01*
X214943Y318000D02*
X223750D01*
X214684Y327000D02*
X223750D01*
X214841Y320000D02*
X223750D01*
X214176Y326000D02*
X223750D01*
X214000Y331750D02*
Y335750D01*
X214465Y331000D02*
X223750D01*
X213000Y332750D02*
Y334750D01*
Y342750D02*
Y344750D01*
X214000Y341750D02*
Y345750D01*
X215000Y318750D02*
Y328750D01*
X214943Y328000D02*
X223750D01*
X215000Y328750D02*
Y338750D01*
Y348750D01*
X214994Y329000D02*
X223750D01*
X214841Y330000D02*
X223750D01*
X213800Y322000D02*
X223750D01*
X214176Y316000D02*
X223750D01*
X214176Y336000D02*
X223750D01*
X213800Y332000D02*
X223750D01*
X213307Y335000D02*
X223750D01*
X214465Y321000D02*
X223750D01*
X214684Y337000D02*
X223750D01*
X214943Y338000D02*
X223800D01*
X214994Y339000D02*
X224250D01*
X214465Y341000D02*
X226410D01*
X213800Y342000D02*
X236200D01*
X213307Y345000D02*
X236693D01*
X214684Y347000D02*
X235316D01*
X214176Y346000D02*
X235824D01*
X214465Y351000D02*
X235535D01*
X214841Y340000D02*
X225215D01*
X224482Y339268D02*
X225732Y340518D01*
X214994Y349000D02*
X235006D01*
X214943Y348000D02*
X235057D01*
X214841Y350000D02*
X235159D01*
X236250Y282057D02*
Y285443D01*
Y283000D02*
X237366D01*
X236250Y284000D02*
X238439D01*
X237000Y282750D02*
Y284750D01*
X243000Y282750D02*
Y284750D01*
X236250Y285000D02*
X236693D01*
X242000Y283333D02*
Y284167D01*
X238000Y283333D02*
Y284167D01*
X236250Y292057D02*
Y295443D01*
X237000Y292750D02*
Y294750D01*
X236250Y293000D02*
X237366D01*
X238000Y293333D02*
Y294167D01*
X244000Y281750D02*
Y285750D01*
X242000Y293333D02*
Y294167D01*
X243000Y292750D02*
Y294750D01*
X244000Y291750D02*
Y295750D01*
X243800Y282000D02*
X250200D01*
X242634Y283000D02*
X251366D01*
X243307Y285000D02*
X250693D01*
X244176Y286000D02*
X249824D01*
X251000Y282750D02*
Y284750D01*
X250000Y281750D02*
Y285750D01*
X244994Y289000D02*
X249006D01*
X244684Y287000D02*
X249316D01*
X244943Y288000D02*
X249057D01*
X244465Y291000D02*
X249535D01*
X243800Y292000D02*
X250200D01*
X242634Y293000D02*
X251366D01*
X245000Y288750D02*
Y298750D01*
X249000Y288750D02*
Y298750D01*
X246000Y281250D02*
Y301250D01*
X244841Y290000D02*
X249159D01*
X251000Y292750D02*
Y294750D01*
X250000Y291750D02*
Y295750D01*
X236250Y294000D02*
X238439D01*
X227500Y341250D02*
X235670D01*
X236250Y295000D02*
X236693D01*
X245000Y298750D02*
Y301250D01*
X235000Y341250D02*
Y348750D01*
X236000Y341750D02*
Y345750D01*
X237000Y342750D02*
Y344750D01*
X238000Y343333D02*
Y344167D01*
X243000Y342750D02*
Y344750D01*
X244000Y341750D02*
Y345750D01*
X245000Y341250D02*
Y348750D01*
X242000Y343333D02*
Y344167D01*
X244176Y296000D02*
X249824D01*
X243307Y295000D02*
X250693D01*
X244330Y301250D02*
X249670D01*
X244330Y341250D02*
X249670D01*
X243800Y342000D02*
X250200D01*
X249000Y298750D02*
Y301250D01*
X244684Y297000D02*
X249316D01*
X244943Y298000D02*
X249057D01*
X244994Y299000D02*
X249006D01*
X244841Y300000D02*
X249159D01*
X244465Y301000D02*
X249535D01*
X242634Y343000D02*
X251366D01*
X243307Y345000D02*
X250693D01*
X244684Y347000D02*
X249316D01*
X244176Y346000D02*
X249824D01*
X244465Y351000D02*
X249535D01*
X249000Y341250D02*
Y348750D01*
X251000Y342750D02*
Y344750D01*
X250000Y341750D02*
Y345750D01*
X244994Y349000D02*
X249006D01*
X244943Y348000D02*
X249057D01*
X244841Y350000D02*
X249159D01*
X214000Y351750D02*
Y355750D01*
X215000Y348750D02*
Y358750D01*
X214000Y371750D02*
Y375750D01*
X214176Y356000D02*
X231250D01*
X214000Y361750D02*
Y365750D01*
X216000Y291041D02*
Y391214D01*
X217000Y290285D02*
Y392214D01*
X218000Y289285D02*
Y393215D01*
X215000Y368750D02*
Y378750D01*
X231250Y355000D02*
Y362500D01*
X215000Y358750D02*
Y368750D01*
X220000Y287285D02*
Y395215D01*
X221000Y286090D02*
Y396215D01*
X219000Y288285D02*
Y394215D01*
X225000Y339786D02*
Y396250D01*
X224000Y338590D02*
Y396250D01*
X226000Y340750D02*
Y396250D01*
X228000Y341250D02*
Y396250D01*
X227000Y341199D02*
Y396250D01*
X229000Y341250D02*
Y396250D01*
X231000Y341250D02*
Y396250D01*
X230000Y341250D02*
Y396250D01*
X213307Y355000D02*
X231250D01*
X213800Y352000D02*
X233214D01*
X213800Y362000D02*
X231250D01*
X214684Y357000D02*
X231250D01*
X214465Y361000D02*
X231250D01*
X214994Y359000D02*
X231250D01*
X214943Y358000D02*
X231250D01*
X214841Y360000D02*
X231250D01*
X213307Y365000D02*
X232715D01*
X214176Y366000D02*
X233910D01*
X214176Y376000D02*
X235824D01*
X213800Y372000D02*
X236200D01*
X213307Y375000D02*
X236693D01*
X214994Y369000D02*
X235006D01*
X214684Y367000D02*
X235316D01*
X214943Y368000D02*
X235057D01*
X214684Y377000D02*
X233214D01*
X214841Y370000D02*
X235159D01*
X214465Y371000D02*
X235535D01*
X214000Y381750D02*
Y385750D01*
X215000Y388750D02*
Y390214D01*
X214830Y390044D02*
X221036Y396250D01*
X215000Y397286D02*
Y426500D01*
Y378750D02*
Y388750D01*
X216000Y398286D02*
Y426500D01*
X226000Y401250D02*
Y426500D01*
X225000Y401250D02*
Y426500D01*
X214000Y396286D02*
Y426500D01*
X217000Y399286D02*
Y426500D01*
X218000Y400285D02*
Y426500D01*
X220000Y401250D02*
Y426500D01*
X219000Y401041D02*
Y426500D01*
X224000Y401250D02*
Y426500D01*
X228000Y401250D02*
Y426500D01*
X227000Y401250D02*
Y426500D01*
X221000Y401250D02*
Y426500D01*
X223000Y401250D02*
Y426500D01*
X222000Y401250D02*
Y426500D01*
X213800Y382000D02*
X231250D01*
X214465Y381000D02*
X231250D01*
X214684Y387000D02*
X231250D01*
X213307Y385000D02*
X231250D01*
X214176Y386000D02*
X231250D01*
X214994Y379000D02*
X231459D01*
X214943Y378000D02*
X232214D01*
X214994Y389000D02*
X231250D01*
X214841Y380000D02*
X231250D01*
X214943Y388000D02*
X231250D01*
X216786Y392000D02*
X231250D01*
X214841Y390000D02*
X231250D01*
X215786Y391000D02*
X231250D01*
X217786Y393000D02*
X231250D01*
X218786Y394000D02*
X231262D01*
X219785Y395000D02*
X231585D01*
X220785Y396000D02*
X232465D01*
X221036Y396250D02*
X232715D01*
X229000Y401250D02*
Y426500D01*
X231000Y401250D02*
Y426500D01*
X230000Y401250D02*
Y426500D01*
X232000Y341250D02*
Y353215D01*
X233000Y341250D02*
Y352215D01*
X231982Y353232D02*
X233232Y351982D01*
X231982Y364268D02*
X233232Y365518D01*
X234000Y341250D02*
Y351459D01*
X235000Y348750D02*
Y351250D01*
X235670D01*
X232000Y364285D02*
Y378215D01*
X233000Y365285D02*
Y377215D01*
X234000Y366041D02*
Y376459D01*
X235000Y366250D02*
Y368750D01*
Y366250D02*
X235670D01*
X235000Y368750D02*
Y376250D01*
X244330Y351250D02*
X249670D01*
X244943Y368000D02*
X249057D01*
X244330Y366250D02*
X249670D01*
X244684Y367000D02*
X249316D01*
X246000Y341250D02*
Y351250D01*
X248000Y341250D02*
Y351250D01*
X247000Y341250D02*
Y351250D01*
X245000Y348750D02*
Y351250D01*
X249000Y348750D02*
Y351250D01*
X245000Y366250D02*
Y368750D01*
X244994Y369000D02*
X249006D01*
X244841Y370000D02*
X249159D01*
X244465Y371000D02*
X249535D01*
X246000Y366250D02*
Y376250D01*
X248000Y366250D02*
Y376250D01*
X247000Y366250D02*
Y376250D01*
X245000Y368750D02*
Y376250D01*
X249000Y366250D02*
Y368750D01*
Y376250D01*
X231982Y378232D02*
X233232Y376982D01*
X231250Y380000D02*
Y393750D01*
X236000Y371750D02*
Y375750D01*
X238000Y373333D02*
Y374167D01*
X237000Y372750D02*
Y374750D01*
X235000Y376250D02*
X235670D01*
X232000Y395535D02*
Y396250D01*
X231982Y395518D02*
X232715Y396250D01*
X232000Y401250D02*
Y426500D01*
X234000Y401250D02*
Y426500D01*
X233000Y401250D02*
Y426500D01*
X238000Y401250D02*
Y426500D01*
X240000Y401250D02*
Y426500D01*
X239000Y401250D02*
Y426500D01*
X235000Y401250D02*
Y426500D01*
X237000Y401250D02*
Y426500D01*
X236000Y401250D02*
Y426500D01*
X243000Y372750D02*
Y374750D01*
X242634Y373000D02*
X251366D01*
X242000Y373333D02*
Y374167D01*
X243307Y375000D02*
X250693D01*
X244000Y371750D02*
Y375750D01*
X243800Y372000D02*
X250200D01*
X250000Y371750D02*
Y375750D01*
X244176Y376000D02*
X249824D01*
X252000Y373333D02*
Y374167D01*
X251000Y372750D02*
Y374750D01*
X241000Y401250D02*
Y426500D01*
X244330Y376250D02*
X249670D01*
X242000Y401250D02*
Y426500D01*
X243000Y401250D02*
Y426500D01*
X245000Y401250D02*
Y426500D01*
X244000Y401250D02*
Y426500D01*
X249000Y401250D02*
Y426500D01*
X251000Y401250D02*
Y426500D01*
X250000Y401250D02*
Y426500D01*
X246000Y401250D02*
Y426500D01*
X248000Y401250D02*
Y426500D01*
X247000Y401250D02*
Y426500D01*
X252000Y283333D02*
Y284167D01*
X254000Y283750D02*
X256000D01*
X241561Y284000D02*
X252439D01*
X254000Y283750D02*
X256000D01*
X259000Y282750D02*
Y284750D01*
X260000Y281750D02*
Y285750D01*
X258000Y283333D02*
Y284167D01*
X252000Y293333D02*
Y294167D01*
X254000Y293750D02*
X256000D01*
X254000D02*
X256000D01*
X259000Y292750D02*
Y294750D01*
X260000Y291750D02*
Y295750D01*
X258000Y293333D02*
Y294167D01*
X258634Y283000D02*
X273625D01*
X259800Y282000D02*
X273625D01*
X257561Y284000D02*
X273625D01*
X259307Y285000D02*
X273625D01*
X261000Y281250D02*
Y288750D01*
X260176Y286000D02*
X273625D01*
X260684Y287000D02*
X273625D01*
X260841Y290000D02*
X273625D01*
X260943Y288000D02*
X273625D01*
X260994Y289000D02*
X273625D01*
X261000Y288750D02*
Y298750D01*
X258634Y293000D02*
X273625D01*
X260465Y291000D02*
X273625D01*
X259800Y292000D02*
X273625D01*
X265000Y281250D02*
Y305215D01*
X266000Y281250D02*
Y306214D01*
X267000Y281250D02*
Y307214D01*
X262000Y281250D02*
Y302215D01*
X263000Y281250D02*
Y303215D01*
X264000Y281250D02*
Y304215D01*
X241561Y294000D02*
X252439D01*
X257561D02*
X273625D01*
X259307Y295000D02*
X273625D01*
X260943Y298000D02*
X273625D01*
X260176Y296000D02*
X273625D01*
X260684Y297000D02*
X273625D01*
X260841Y300000D02*
X273625D01*
X260465Y301000D02*
X273625D01*
X261000Y298750D02*
Y301459D01*
X261786Y302000D02*
X273625D01*
X261768Y301982D02*
X270518Y310732D01*
X264786Y305000D02*
X273625D01*
X262786Y303000D02*
X273625D01*
X263786Y304000D02*
X273625D01*
X265786Y306000D02*
X273625D01*
X266786Y307000D02*
X273625D01*
X260994Y299000D02*
X273625D01*
X269785Y310000D02*
X273625D01*
X267786Y308000D02*
X273625D01*
X268786Y309000D02*
X273625D01*
X271250Y315000D02*
X273625D01*
X270750Y311000D02*
X273625D01*
X271199Y312000D02*
X273625D01*
X271250Y316000D02*
X273625D01*
X271250Y320000D02*
X273686D01*
X271250Y325000D02*
X277904D01*
X271250Y336000D02*
X278256D01*
X271250Y335000D02*
X278394D01*
X271250Y337000D02*
X278301D01*
X271250Y338000D02*
X278536D01*
X271250Y339000D02*
X278987D01*
X271250Y340000D02*
X279727D01*
X271250Y329000D02*
X278987D01*
X271250Y330000D02*
X279727D01*
X271250Y331000D02*
X280977D01*
X271250Y334000D02*
X278731D01*
X271250Y332000D02*
X280259D01*
X271250Y333000D02*
X279313D01*
X280125Y294000D02*
X304000D01*
X280125Y293000D02*
X304000D01*
X280125Y297000D02*
X304000D01*
X280125Y295000D02*
X304000D01*
X280125Y296000D02*
X304000D01*
X280125Y286000D02*
X304000D01*
X280125Y282000D02*
X304000D01*
X280125Y283000D02*
X304000D01*
X280125Y292000D02*
X304000D01*
X280125Y290000D02*
X304000D01*
X280125Y291000D02*
X304000D01*
X280125Y311000D02*
X282111D01*
X271250Y312500D02*
Y328750D01*
Y313000D02*
X273625D01*
X271250Y314000D02*
X273625D01*
X285389Y311000D02*
X292111D01*
X280125Y298000D02*
X304000D01*
X288187Y313000D02*
X289313D01*
X287241Y312000D02*
X290259D01*
X280125Y301000D02*
X304000D01*
X280125Y300000D02*
X304000D01*
X280125Y304000D02*
X304000D01*
X280125Y302000D02*
X304000D01*
X280125Y303000D02*
X304000D01*
X280125Y287000D02*
X304000D01*
X280125Y284000D02*
X304000D01*
X280125Y285000D02*
X304000D01*
X280125Y299000D02*
X304000D01*
X280125Y288000D02*
X304000D01*
X280125Y289000D02*
X304000D01*
X280125Y307000D02*
X304000D01*
X280125Y305000D02*
X304000D01*
X280125Y306000D02*
X304000D01*
X280125Y310000D02*
X304000D01*
X280125Y308000D02*
X304000D01*
X280125Y309000D02*
X304000D01*
X298187Y313000D02*
X304000D01*
X295389Y311000D02*
X304000D01*
X297241Y312000D02*
X304000D01*
X299244Y316000D02*
X304000D01*
X298769Y314000D02*
X304000D01*
X299106Y315000D02*
X304000D01*
X271250Y319000D02*
X273625D01*
X271250Y317000D02*
X273625D01*
X271250Y321000D02*
X274060D01*
X271250Y322000D02*
X274904D01*
X271250Y323000D02*
X275904D01*
X271250Y318000D02*
X273625D01*
X298982Y317946D02*
X301768Y320732D01*
X271250Y324000D02*
X276904D01*
X274577Y321673D02*
X278314Y325411D01*
X271250Y326000D02*
X278256D01*
X271250Y327000D02*
X278301D01*
X271250Y328000D02*
X278536D01*
X279000Y329023D02*
Y333477D01*
X280000Y330273D02*
Y332227D01*
X281000Y331013D02*
Y331487D01*
X302500Y336000D02*
X304000D01*
X299036Y318000D02*
X304000D01*
X299199Y317000D02*
X304000D01*
X302000Y321000D02*
X304000D01*
X300036Y319000D02*
X304000D01*
X301035Y320000D02*
X304000D01*
X302500Y324000D02*
X304000D01*
X302449Y322000D02*
X304000D01*
X302500Y323000D02*
X304000D01*
X302500Y327000D02*
X304000D01*
X302500Y325000D02*
X304000D01*
X302500Y326000D02*
X304000D01*
X302500Y337000D02*
X304000D01*
X302500Y334000D02*
X304000D01*
X302500Y335000D02*
X304000D01*
X302500Y340000D02*
X304000D01*
X302500Y338000D02*
X304000D01*
X302500Y339000D02*
X304000D01*
X302500Y330000D02*
X304000D01*
X302500Y328000D02*
X304000D01*
X302500Y329000D02*
X304000D01*
X302500Y333000D02*
X304000D01*
X302500Y331000D02*
X304000D01*
X302500Y332000D02*
X304000D01*
X252000Y343333D02*
Y344167D01*
X241561Y344000D02*
X252439D01*
X254000Y343750D02*
X256000D01*
X254000D02*
X256000D01*
X258000Y343333D02*
Y344167D01*
X258750Y342926D02*
Y344574D01*
X257561Y344000D02*
X258750D01*
X241561Y374000D02*
X252439D01*
X258000Y373333D02*
Y374167D01*
X258750Y372926D02*
Y374574D01*
X254000Y373750D02*
X256000D01*
X254000D02*
X256000D01*
X271250Y342000D02*
X280259D01*
X271250Y341000D02*
X280977D01*
X257561Y374000D02*
X258750D01*
X271250Y343000D02*
X279313D01*
X274000Y320890D02*
Y343750D01*
X276000Y323096D02*
Y343750D01*
X275000Y322096D02*
Y343750D01*
X271250Y328750D02*
Y343750D01*
X278851D01*
X277000Y324096D02*
Y343750D01*
X263018Y400518D02*
X301768Y361768D01*
X274000Y389535D02*
Y403313D01*
X274535Y389000D02*
X304000D01*
X275000Y388535D02*
Y401684D01*
X277000Y386536D02*
Y399313D01*
X277536Y386000D02*
X304000D01*
X278000Y385536D02*
Y398405D01*
X276000Y387536D02*
Y400387D01*
X276536Y387000D02*
X304000D01*
X275535Y388000D02*
X304000D01*
X254000Y401250D02*
Y426500D01*
X256000Y401250D02*
Y426500D01*
X252000Y401250D02*
Y426500D01*
X220000Y401250D02*
X261250D01*
X253000D02*
Y426500D01*
X260000Y401250D02*
Y426500D01*
X257000Y401250D02*
Y426500D01*
X259000Y401250D02*
Y426500D01*
X258000Y401250D02*
Y426500D01*
X263000Y400535D02*
Y426500D01*
X264000Y399535D02*
Y426500D01*
X255000Y401250D02*
Y426500D01*
X262000Y401135D02*
Y426500D01*
X261000Y401250D02*
Y426500D01*
X268000Y395535D02*
Y426500D01*
X270000Y393535D02*
Y426500D01*
X269000Y394535D02*
Y426500D01*
X265000Y398535D02*
Y426500D01*
X267000Y396535D02*
Y426500D01*
X266000Y397535D02*
Y426500D01*
X266535Y397000D02*
X279947D01*
X267535Y396000D02*
X281822D01*
X263535Y400000D02*
X276340D01*
X265535Y398000D02*
X278503D01*
X264535Y399000D02*
X277326D01*
X271535Y392000D02*
X304000D01*
X273535Y390000D02*
X304000D01*
X272535Y391000D02*
X304000D01*
X268535Y395000D02*
X284688D01*
X270535Y393000D02*
X304000D01*
X269535Y394000D02*
X304000D01*
X271000Y392535D02*
Y426500D01*
X273000Y390535D02*
Y405549D01*
X272000Y391535D02*
Y411250D01*
Y426500D01*
X262340Y401000D02*
X275502D01*
X273000Y416951D02*
Y426500D01*
X275000Y420816D02*
Y426500D01*
X274000Y419187D02*
Y426500D01*
X276000Y422113D02*
Y426500D01*
X278000Y424095D02*
Y426500D01*
X277000Y423187D02*
Y426500D01*
X278000Y325096D02*
Y343750D01*
X279000Y339023D02*
Y343477D01*
X280000Y340273D02*
Y342227D01*
X281000Y341013D02*
Y341487D01*
X302500Y346000D02*
X304000D01*
X302500Y347000D02*
X304000D01*
X302500Y350000D02*
X304000D01*
X302500Y348000D02*
X304000D01*
X302500Y349000D02*
X304000D01*
X298000Y365535D02*
Y397286D01*
X299000Y364535D02*
Y398002D01*
X295000Y368535D02*
Y395710D01*
X296000Y367535D02*
Y396150D01*
X297000Y366535D02*
Y396673D01*
X302500Y322500D02*
Y360000D01*
X300000Y363535D02*
Y398840D01*
X301000Y362536D02*
Y399826D01*
X302000Y361500D02*
Y401003D01*
X302500Y353000D02*
X304000D01*
X302500Y352000D02*
X304000D01*
X302500Y356000D02*
X304000D01*
X302500Y354000D02*
X304000D01*
X302500Y355000D02*
X304000D01*
X302500Y343000D02*
X304000D01*
X302500Y341000D02*
X304000D01*
X302500Y342000D02*
X304000D01*
X302500Y351000D02*
X304000D01*
X302500Y344000D02*
X304000D01*
X302500Y345000D02*
X304000D01*
X298535Y365000D02*
X304000D01*
X300535Y363000D02*
X304000D01*
X299535Y364000D02*
X304000D01*
X295535Y368000D02*
X304000D01*
X297535Y366000D02*
X304000D01*
X296535Y367000D02*
X304000D01*
X302500Y359000D02*
X304000D01*
X302500Y357000D02*
X304000D01*
X302500Y358000D02*
X304000D01*
X301536Y362000D02*
X304000D01*
X302500Y360000D02*
X304000D01*
X302291Y361000D02*
X304000D01*
X287000Y376536D02*
Y394592D01*
X287536Y376000D02*
X304000D01*
X285000Y378536D02*
Y394925D01*
X286536Y377000D02*
X304000D01*
X286000Y377536D02*
Y394727D01*
X291000Y372535D02*
Y394652D01*
X292535Y371000D02*
X304000D01*
X292000Y371535D02*
Y394818D01*
X288000Y375535D02*
Y394517D01*
X289000Y374535D02*
Y394502D01*
X290000Y373535D02*
Y394547D01*
X280000Y383536D02*
Y396967D01*
X281000Y382536D02*
Y396401D01*
X279000Y384536D02*
Y397630D01*
X280000Y425533D02*
Y426500D01*
X279000Y424870D02*
Y426500D01*
X284000Y379536D02*
Y395188D01*
X293000Y370535D02*
Y395048D01*
X294000Y369535D02*
Y395344D01*
X281000Y426099D02*
Y426500D01*
X283000Y380536D02*
Y395518D01*
X282000Y381536D02*
Y395920D01*
X284536Y379000D02*
X304000D01*
X285536Y378000D02*
X304000D01*
X281536Y382000D02*
X304000D01*
X283536Y380000D02*
X304000D01*
X282536Y381000D02*
X304000D01*
X291535Y372000D02*
X304000D01*
X294535Y369000D02*
X304000D01*
X293535Y370000D02*
X304000D01*
X288535Y375000D02*
X304000D01*
X290535Y373000D02*
X304000D01*
X289535Y374000D02*
X304000D01*
X278536Y385000D02*
X304000D01*
X280536Y383000D02*
X304000D01*
X279536Y384000D02*
X304000D01*
X297553Y397000D02*
X304000D01*
X292812Y395000D02*
X304000D01*
X295678Y396000D02*
X304000D01*
X301160Y400000D02*
X304000D01*
X298997Y398000D02*
X304000D01*
X300174Y399000D02*
X304000D01*
X303327Y403000D02*
X304000D01*
X301998Y401000D02*
X304000D01*
X302714Y402000D02*
X304000D01*
D11*
X231000Y222500D02*
D03*
X219000D02*
D03*
D12*
X267500Y278750D02*
X268750Y277500D01*
X255000Y328750D02*
X268750D01*
X240000D02*
X255000D01*
X283750Y346250D02*
X293750D01*
X268750D02*
X283750D01*
X268750D02*
Y375000D01*
Y328750D02*
Y346250D01*
Y312500D02*
Y328750D01*
X235000Y278750D02*
X267500D01*
X240000Y238750D02*
X260000D01*
X255000Y388750D02*
X268750Y375000D01*
X261250Y398750D02*
X300000Y360000D01*
X220000Y398750D02*
X261250D01*
X300000Y322500D02*
Y360000D01*
X272500Y362500D02*
Y382500D01*
X235000Y378750D02*
X260000D01*
X278750Y356250D02*
X293750D01*
X227500Y338750D02*
X260000D01*
X227500Y268750D02*
X260000D01*
X231250Y228750D02*
X255000D01*
X272500Y362500D02*
X278750Y356250D01*
X231250Y223750D02*
X260000D01*
X235000Y248750D02*
X263750D01*
X230000Y275000D02*
Y332500D01*
Y308750D02*
X255000D01*
X231250Y333750D02*
X263750D01*
X240000Y358750D02*
X263750D01*
X265000Y335000D02*
Y357500D01*
X263750Y333750D02*
X265000Y335000D01*
X263750Y358750D02*
X265000Y357500D01*
X263750Y248750D02*
X265000Y250000D01*
X263750Y273750D02*
X265000Y272500D01*
Y250000D02*
Y272500D01*
X260000Y223750D02*
X261250Y225000D01*
X260000Y233750D02*
X261250Y232500D01*
Y225000D02*
Y232500D01*
X233750Y247500D02*
X235000Y248750D01*
X233750Y235000D02*
X235000Y233750D01*
X233750Y235000D02*
Y247500D01*
X235000Y233750D02*
X260000D01*
X230000Y275000D02*
X231250Y273750D01*
X263750D01*
X230000Y332500D02*
X231250Y333750D01*
X260000Y395000D02*
X272500Y382500D01*
X185000Y263750D02*
Y327500D01*
X161250Y330000D02*
X182500D01*
X190000Y258750D02*
X195000D01*
X182500Y330000D02*
X185000Y327500D01*
Y342500D02*
Y378750D01*
X161250Y340000D02*
X182500D01*
X185000Y378750D02*
X195000Y388750D01*
X182500Y340000D02*
X185000Y342500D01*
X195000Y388750D02*
X210000D01*
X233750Y380000D02*
Y393750D01*
X235000Y395000D02*
X260000D01*
X233750Y393750D02*
X235000Y395000D01*
X233750Y380000D02*
X235000Y378750D01*
X240000Y388750D02*
X255000D01*
X268750Y247500D02*
Y277500D01*
X260000Y238750D02*
X268750Y247500D01*
X260000Y303750D02*
X268750Y312500D01*
X235000Y303750D02*
X260000D01*
X233750Y362500D02*
X235000Y363750D01*
X233750Y355000D02*
X235000Y353750D01*
X233750Y355000D02*
Y362500D01*
X260000Y363750D02*
X261250Y365000D01*
Y377500D01*
X260000Y378750D02*
X261250Y377500D01*
X235000Y363750D02*
X260000D01*
Y353750D02*
X261250Y352500D01*
X260000Y338750D02*
X261250Y340000D01*
X235000Y353750D02*
X260000D01*
X261250Y340000D02*
Y352500D01*
X260000Y268750D02*
X261250Y267500D01*
X260000Y253750D02*
X261250Y255000D01*
Y267500D01*
X233750Y280000D02*
X235000Y278750D01*
X233750Y302500D02*
X235000Y303750D01*
X233750Y280000D02*
Y302500D01*
X226250Y337500D02*
X227500Y338750D01*
X226250Y270000D02*
X227500Y268750D01*
X226250Y270000D02*
Y337500D01*
X230000Y230000D02*
X231250Y228750D01*
X230000Y252500D02*
X231250Y253750D01*
X230000Y230000D02*
Y252500D01*
X231250Y253750D02*
X260000D01*
X195000Y258750D02*
X210000D01*
X185000Y263750D02*
X190000Y258750D01*
X215000Y288750D02*
X218750Y285000D01*
X190000Y253750D02*
X218750D01*
X195000Y268750D02*
X218750D01*
X195000Y288750D02*
X215000D01*
X218750Y223750D02*
Y285000D01*
X210000Y388750D02*
X220000Y398750D01*
X283750Y316250D02*
X293750D01*
X300000Y322500D01*
D13*
X283750Y336250D02*
X293750D01*
X190000Y190000D02*
X257500D01*
X276875Y209375D01*
Y319375D01*
X185000Y248750D02*
X190000Y253750D01*
X185000Y195000D02*
Y248750D01*
Y195000D02*
X190000Y190000D01*
X276875Y319375D02*
X283750Y326250D01*
X293750D01*
D14*
X189500Y228750D02*
X195000D01*
Y224250D02*
Y228750D01*
X189500Y238750D02*
X195000D01*
Y228750D02*
Y233250D01*
Y234250D02*
Y238750D01*
Y228750D02*
X200500D01*
X195000Y238750D02*
X200500D01*
X210000Y224250D02*
Y228750D01*
X205500D02*
X210000D01*
Y233250D01*
Y228750D02*
X214500D01*
X210000Y238750D02*
X214500D01*
X195000D02*
Y243250D01*
Y244250D02*
Y248750D01*
X200500D01*
X189500Y278750D02*
X195000D01*
Y274250D02*
Y278750D01*
Y283250D01*
Y278750D02*
X200500D01*
X210000Y234250D02*
Y238750D01*
X205500Y248750D02*
X210000D01*
X205500Y238750D02*
X210000D01*
Y243250D01*
Y248750D02*
X214500D01*
X210000Y244250D02*
Y248750D01*
Y274250D02*
Y278750D01*
X205500D02*
X210000D01*
X214500D01*
X210000D02*
Y283250D01*
X189500Y318750D02*
X195000D01*
Y323250D01*
Y314250D02*
Y318750D01*
Y324250D02*
Y328750D01*
Y318750D02*
X200500D01*
X189500Y328750D02*
X195000D01*
Y334250D02*
Y338750D01*
X189500D02*
X195000D01*
Y328750D02*
Y333250D01*
Y338750D02*
X200500D01*
X189500Y348750D02*
X195000D01*
Y353250D01*
Y338750D02*
Y343250D01*
Y344250D02*
Y348750D01*
Y328750D02*
X200500D01*
X195000Y348750D02*
X200500D01*
X210000Y314250D02*
Y318750D01*
X205500D02*
X210000D01*
Y323250D01*
Y318750D02*
X214500D01*
X210000Y324250D02*
Y328750D01*
X205500D02*
X210000D01*
Y333250D01*
X205500Y338750D02*
X210000D01*
Y328750D02*
X214500D01*
X210000Y334250D02*
Y338750D01*
Y343250D01*
Y338750D02*
X214500D01*
X210000Y344250D02*
Y348750D01*
X214500D01*
X205500D02*
X210000D01*
X195000Y354250D02*
Y358750D01*
X189500D02*
X195000D01*
Y363250D01*
Y358750D02*
X200500D01*
X210000Y348750D02*
Y353250D01*
Y358750D02*
X214500D01*
X205500D02*
X210000D01*
Y354250D02*
Y358750D01*
Y363250D01*
X235500Y208750D02*
X240000D01*
Y204250D02*
Y208750D01*
Y213250D01*
Y208750D02*
X244500D01*
X249500D02*
X255000D01*
Y204250D02*
Y208750D01*
Y213250D01*
Y208750D02*
X260500D01*
X240000Y288750D02*
Y293250D01*
Y284250D02*
Y288750D01*
X244500D01*
X240000Y298750D02*
X244500D01*
X240000Y294250D02*
Y298750D01*
X235500Y348750D02*
X240000D01*
Y344250D02*
Y348750D01*
X244500D01*
X235500Y368750D02*
X240000D01*
Y373250D01*
Y368750D02*
X244500D01*
X249500Y288750D02*
X255000D01*
Y284250D02*
Y288750D01*
Y293250D01*
Y294250D02*
Y298750D01*
Y288750D02*
X260500D01*
X249500Y298750D02*
X255000D01*
X260500D01*
X278750Y336250D02*
X283750D01*
X255000Y344250D02*
Y348750D01*
X249500D02*
X255000D01*
X249500Y368750D02*
X255000D01*
Y373250D01*
D15*
Y388750D02*
D03*
Y378750D02*
D03*
Y368750D02*
D03*
Y358750D02*
D03*
Y348750D02*
D03*
Y338750D02*
D03*
Y328750D02*
D03*
Y318750D02*
D03*
Y308750D02*
D03*
Y298750D02*
D03*
Y288750D02*
D03*
Y278750D02*
D03*
X195000Y388750D02*
D03*
Y378750D02*
D03*
Y368750D02*
D03*
Y358750D02*
D03*
Y348750D02*
D03*
Y338750D02*
D03*
Y328750D02*
D03*
Y318750D02*
D03*
Y308750D02*
D03*
Y298750D02*
D03*
Y288750D02*
D03*
Y278750D02*
D03*
Y268750D02*
D03*
Y258750D02*
D03*
X255000Y268750D02*
D03*
Y258750D02*
D03*
Y248750D02*
D03*
Y238750D02*
D03*
Y228750D02*
D03*
Y218750D02*
D03*
Y208750D02*
D03*
Y198750D02*
D03*
X195000D02*
D03*
Y208750D02*
D03*
Y218750D02*
D03*
Y228750D02*
D03*
Y238750D02*
D03*
Y248750D02*
D03*
D16*
X161250Y350000D02*
D03*
Y340000D02*
D03*
Y330000D02*
D03*
D17*
X288750Y193750D02*
D03*
Y411250D02*
D03*
X161250Y193750D02*
D03*
Y411250D02*
D03*
D18*
X283750Y326250D02*
D03*
X293750D02*
D03*
X283750Y316250D02*
D03*
X293750D02*
D03*
Y336250D02*
D03*
X283750D02*
D03*
X293750Y346250D02*
D03*
X283750D02*
D03*
X293750Y356250D02*
D03*
X283750D02*
D03*
D19*
X240000Y298750D02*
D03*
Y288750D02*
D03*
X210000Y358750D02*
D03*
Y348750D02*
D03*
Y338750D02*
D03*
Y328750D02*
D03*
Y318750D02*
D03*
Y278750D02*
D03*
Y248750D02*
D03*
X240000Y208750D02*
D03*
Y348750D02*
D03*
X210000Y378750D02*
D03*
X240000D02*
D03*
X210000Y388750D02*
D03*
X240000D02*
D03*
X210000Y368750D02*
D03*
X240000D02*
D03*
Y338750D02*
D03*
Y328750D02*
D03*
Y318750D02*
D03*
X210000Y298750D02*
D03*
Y308750D02*
D03*
X240000D02*
D03*
X210000Y288750D02*
D03*
X240000Y278750D02*
D03*
X210000Y258750D02*
D03*
X240000D02*
D03*
X210000Y268750D02*
D03*
X240000D02*
D03*
Y248750D02*
D03*
X210000Y238750D02*
D03*
X240000D02*
D03*
X210000Y218750D02*
D03*
X240000D02*
D03*
X210000Y228750D02*
D03*
X240000D02*
D03*
X210000Y208750D02*
D03*
Y198750D02*
D03*
X240000D02*
D03*
Y358750D02*
D03*
M02*
