M48
;Layer_Color=9474304
;FILE_FORMAT=2:5
INCH,LZ
;TYPE=PLATED
T1F00S00C0.03000
T2F00S00C0.04000
T3F00S00C0.12795
%
T01
X021Y019875
Y020875
Y021875
Y022875
Y023875
Y024875
Y025875
Y026875
Y027875
Y028875
Y029875
Y030875
X024
Y029875
Y028875
Y027875
Y026875
Y025875
Y024875
Y023875
Y022875
Y021875
Y020875
Y019875
Y031875
Y032875
Y033875
Y034875
Y035875
Y036875
Y037875
Y038875
X021
Y037875
Y036875
Y035875
Y034875
Y033875
Y032875
Y031875
T02
X0195Y019875
Y020875
Y021875
Y022875
Y023875
Y024875
Y025875
Y026875
Y027875
Y028875
Y029875
Y030875
X0255
Y029875
Y028875
Y027875
Y026875
Y025875
Y024875
Y023875
Y022875
Y021875
Y020875
Y019875
Y031875
Y032875
Y033875
Y034875
Y035875
Y036875
Y037875
Y038875
X0195
Y037875
Y036875
Y035875
Y034875
Y033875
Y032875
Y031875
X016125Y033
Y034
Y035
X028375Y034625
Y033625
Y032625
X029375
Y031625
X028375
X029375Y033625
Y034625
Y035625
X028375
T03
X016125Y019375
X028875
Y041125
X016125
M30
